<svg version="1.1" viewBox="0.0 0.0 800.0 200.0" fill="none" stroke="none" stroke-linecap="square" stroke-miterlimit="10" xmlns:xlink="http://www.w3.org/1999/xlink" xmlns="http://www.w3.org/2000/svg"><clipPath id="p.0"><path d="m0 0l800.0 0l0 200.0l-800.0 0l0 -200.0z" clip-rule="nonzero"/></clipPath><g clip-path="url(#p.0)"><path fill="#000000" fill-opacity="0.0" d="m0 0l800.0 0l0 200.0l-800.0 0z" fill-rule="evenodd"/><path fill="#000000" fill-opacity="0.0" d="m-2.7559056 -39.989502l786.77167 0l0 249.88977l-786.77167 0z" fill-rule="evenodd"/><path fill="#000000" d="m130.12578 17.447144l3.421875 41.796875l-3.421875 0q-5.171875 -15.625 -13.375 -23.53125q-11.8125 -11.421875 -30.375 -11.421875q-25.28125 0 -38.46875 20.015625q-11.03125 16.890625 -11.03125 40.234375q0 18.9375 7.3125 34.5625q7.328125 15.625 19.1875 22.90625q11.875 7.28125 24.375 7.28125q7.328125 0 14.15625 -1.859375q6.84375 -1.859375 13.1875 -5.46875l0 -38.28125q0 -9.96875 -1.515625 -13.03125q-1.515625 -3.078125 -4.6875 -4.6875q-3.171875 -1.625 -11.1875 -1.625l0 -3.703125l51.28125 0l0 3.703125l-2.453125 0q-7.609375 0 -10.4375 5.078125q-1.953125 3.625 -1.953125 14.265625l0 40.53125q-11.234375 6.046875 -22.171875 8.875q-10.9375 2.84375 -24.3125 2.84375q-38.390625 0 -58.3125 -24.609375q-14.9375 -18.46875 -14.9375 -42.578125q0 -17.484375 8.40625 -33.5q9.953125 -19.046875 27.34375 -29.296875q14.546875 -8.5 34.375 -8.5q7.21875 0 13.125 1.171875q5.90625 1.171875 16.75 5.171875q5.46875 2.0625 7.328125 2.0625q1.859375 0 3.171875 -1.703125q1.3125 -1.71875 1.609375 -6.703125l3.609375 0z" fill-rule="nonzero"/><path fill="#000000" d="m180.1375 120.71277l0 19.796875q0 5.71875 0.703125 7.203125q0.703125 1.484375 2.46875 2.375q1.78125 0.890625 6.625 0.890625l0 1.921875l-36.140625 0l0 -1.921875q4.890625 0 6.625 -0.90625q1.75 -0.921875 2.453125 -2.375q0.703125 -1.46875 0.703125 -7.1875l0 -45.828125q0 -5.734375 -0.703125 -7.21875q-0.703125 -1.484375 -2.46875 -2.359375q-1.765625 -0.890625 -6.609375 -0.890625l0 -1.9375l32.796875 0q12.8125 0 18.75 1.78125q5.9375 1.765625 9.6875 6.53125q3.75 4.765625 3.75 11.171875q0 7.8125 -5.625 12.921875q-3.59375 3.21875 -10.046875 4.84375l16.984375 23.890625q3.328125 4.640625 4.734375 5.78125q2.140625 1.625 4.953125 1.78125l0 1.921875l-22.25 0l-22.75 -32.1875l-4.640625 0zm0 -34.625l0 30.9375l2.96875 0q7.234375 0 10.828125 -1.328125q3.59375 -1.328125 5.65625 -4.796875q2.0625 -3.46875 2.0625 -9.03125q0 -8.078125 -3.78125 -11.921875q-3.78125 -3.859375 -12.15625 -3.859375l-5.578125 0zm93.07057 46.703125l-24.953094 0l-2.96875 6.875q-1.453125 3.4375 -1.453125 5.6875q0 2.96875 2.390625 4.375q1.40625 0.828125 6.9375 1.25l0 1.921875l-23.5 0l0 -1.921875q3.8125 -0.578125 6.25 -3.15625q2.453125 -2.578125 6.046875 -10.65625l25.24997 -56.34375l1.0 0l25.46875 57.90625q3.640625 8.234375 5.984375 10.375q1.765625 1.609375 5.0 1.875l0 1.921875l-34.171875 0l0 -1.921875l1.40625 0q4.125 0 5.78125 -1.15625q1.15625 -0.828125 1.15625 -2.390625q0 -0.9375 -0.3125 -1.921875q-0.109375 -0.46875 -1.5625 -3.90625l-3.75 -8.8125zm-1.78125 -3.84375l-10.515625 -24.328125l-10.8280945 24.328125l21.34372 0zm85.25812 -0.109375l19.171875 -46.5625l28.734375 0l0 1.9375l-2.28125 0q-3.125 0 -5.0 1.09375q-1.3125 0.71875 -2.09375 2.4375q-0.5625 1.25 -0.5625 6.515625l0 46.5625q0 5.40625 0.5625 6.765625q0.578125 1.359375 2.34375 2.375q1.78125 1.015625 4.75 1.015625l2.28125 0l0 1.921875l-36.859375 0l0 -1.921875l2.28125 0q3.125 0 5.0 -1.09375q1.3125 -0.734375 2.09375 -2.5q0.5625 -1.25 0.5625 -6.5625l0 -52.34375l-27.078125 64.421875l-1.25 0l-27.5 -63.953125l0 49.734375q0 5.203125 0.265625 6.40625q0.671875 2.609375 2.9375 4.25q2.265625 1.640625 7.109375 1.640625l0 1.921875l-24.15625 0l0 -1.921875l0.71875 0q2.34375 0.046875 4.375 -0.75q2.03125 -0.8125 3.078125 -2.171875q1.046875 -1.359375 1.609375 -3.796875q0.109375 -0.578125 0.109375 -5.3125l0 -44.6875q0 -5.359375 -0.578125 -6.6875q-0.5625 -1.328125 -2.34375 -2.34375q-1.765625 -1.015625 -4.734375 -1.015625l-2.234375 0l0 -1.9375l28.84375 0l19.84375 46.5625zm100.66724 0l19.171875 -46.5625l28.734375 0l0 1.9375l-2.28125 0q-3.125 0 -5.0 1.09375q-1.3125 0.71875 -2.09375 2.4375q-0.5625 1.25 -0.5625 6.515625l0 46.5625q0 5.40625 0.5625 6.765625q0.578125 1.359375 2.34375 2.375q1.78125 1.015625 4.75 1.015625l2.28125 0l0 1.921875l-36.859375 0l0 -1.921875l2.28125 0q3.125 0 5.0 -1.09375q1.3125 -0.734375 2.09375 -2.5q0.5625 -1.25 0.5625 -6.5625l0 -52.34375l-27.078125 64.421875l-1.25 0l-27.5 -63.953125l0 49.734375q0 5.203125 0.265625 6.40625q0.671875 2.609375 2.9375 4.25q2.265625 1.640625 7.109375 1.640625l0 1.921875l-24.15625 0l0 -1.921875l0.71875 0q2.34375 0.046875 4.375 -0.75q2.03125 -0.8125 3.078125 -2.171875q1.046875 -1.359375 1.609375 -3.796875q0.109375 -0.578125 0.109375 -5.3125l0 -44.6875q0 -5.359375 -0.578125 -6.6875q-0.5625 -1.328125 -2.34375 -2.34375q-1.765625 -1.015625 -4.734375 -1.015625l-2.234375 0l0 -1.9375l28.84375 0l19.84375 46.5625zm94.21417 3.953125l-24.953125 0l-2.96875 6.875q-1.453125 3.4375 -1.453125 5.6875q0 2.96875 2.390625 4.375q1.40625 0.828125 6.9375 1.25l0 1.921875l-23.50003 0l0 -1.921875q3.8125305 -0.578125 6.2500305 -3.15625q2.453125 -2.578125 6.046875 -10.65625l25.25 -56.34375l1.0 0l25.46875 57.90625q3.640625 8.234375 5.984375 10.375q1.765625 1.609375 5.0 1.875l0 1.921875l-34.171875 0l0 -1.921875l1.40625 0q4.125 0 5.78125 -1.15625q1.15625 -0.828125 1.15625 -2.390625q0 -0.9375 -0.3125 -1.921875q-0.109375 -0.46875 -1.5625 -3.90625l-3.75 -8.8125zm-1.78125 -3.84375l-10.515625 -24.328125l-10.828125 24.328125l21.34375 0zm73.49243 22.03125l0 1.921875l-36.921875 0l0 -1.921875l2.34375 0q3.0625 0 4.9375 -1.09375q1.359375 -0.734375 2.09375 -2.5q0.5625 -1.25 0.5625 -6.5625l0 -46.453125q0 -5.421875 -0.578125 -6.765625q-0.5625 -1.359375 -2.3125 -2.375q-1.734375 -1.015625 -4.703125 -1.015625l-2.34375 0l0 -1.9375l36.921875 0l0 1.9375l-2.34375 0q-3.078125 0 -4.953125 1.09375q-1.359375 0.71875 -2.140625 2.5q-0.5625 1.25 -0.5625 6.5625l0 46.453125q0 5.40625 0.59375 6.765625q0.59375 1.359375 2.34375 2.375q1.75 1.015625 4.71875 1.015625l2.34375 0zm30.771973 -30.265625l0 19.796875q0 5.71875 0.703125 7.203125q0.703125 1.484375 2.46875 2.375q1.78125 0.890625 6.625 0.890625l0 1.921875l-36.140625 0l0 -1.921875q4.890625 0 6.625 -0.90625q1.75 -0.921875 2.453125 -2.375q0.703125 -1.46875 0.703125 -7.1875l0 -45.828125q0 -5.734375 -0.703125 -7.21875q-0.703125 -1.484375 -2.46875 -2.359375q-1.765625 -0.890625 -6.609375 -0.890625l0 -1.9375l32.796875 0q12.8125 0 18.75 1.78125q5.9375 1.765625 9.6875 6.53125q3.75 4.765625 3.75 11.171875q0 7.8125 -5.625 12.921875q-3.59375 3.21875 -10.046875 4.84375l16.984375 23.890625q3.328125 4.640625 4.734375 5.78125q2.140625 1.625 4.953125 1.78125l0 1.921875l-22.25 0l-22.75 -32.1875l-4.640625 0zm0 -34.625l0 30.9375l2.96875 0q7.234375 0 10.828125 -1.328125q3.59375 -1.328125 5.65625 -4.796875q2.0625 -3.46875 2.0625 -9.03125q0 -8.078125 -3.78125 -11.921875q-3.78125 -3.859375 -12.15625 -3.859375l-5.578125 0zm77.75818 0.25l0 28.75l1.40625 0q6.71875 0 9.734375 -4.21875q3.015625 -4.21875 3.859375 -12.4375l1.96875 0l0 36.96875l-1.96875 0q-0.625 -6.046875 -2.640625 -9.890625q-2.0 -3.859375 -4.65625 -5.1875q-2.65625 -1.328125 -7.703125 -1.328125l0 19.890625q0 5.84375 0.484375 7.140625q0.5 1.296875 1.84375 2.140625q1.359375 0.828125 4.390625 0.828125l4.21875 0q9.890625 0 15.84375 -4.578125q5.96875 -4.59375 8.578125 -13.96875l1.921875 0l-3.171875 22.453125l-61.03125 0l0 -1.921875l2.34375 0q3.0625 0 4.9375 -1.09375q1.359375 -0.734375 2.09375 -2.5q0.5625 -1.25 0.5625 -6.5625l0 -46.453125q0 -4.796875 -0.25 -5.890625q-0.53125 -1.828125 -1.9375 -2.8125q-1.96875 -1.453125 -5.40625 -1.453125l-2.34375 0l0 -1.9375l59.109375 0l0 20.890625l-1.984375 0q-1.515625 -7.65625 -4.25 -10.984375q-2.734375 -3.34375 -7.734375 -4.90625q-2.90625 -0.9375 -10.9375 -0.9375l-7.28125 0z" fill-rule="nonzero"/><path fill="#000000" fill-opacity="0.0" d="m173.8162 -0.6771653l606.61414 0l0 51.937008l-606.61414 0z" fill-rule="evenodd"/><path fill="#000000" d="m187.0037 17.855335l8.953125 0l-0.171875 0.578125q-1.375 0.03125 -1.96875 0.265625q-0.578125 0.21875 -1.0 0.796875q-0.40625 0.578125 -0.859375 2.140625l-2.171875 7.5q-0.578125 2.0 -0.6875 2.625q-0.1875 1.0 -0.1875 1.859375q0 1.890625 1.40625 3.203125q1.40625 1.296875 3.765625 1.296875q1.546875 0 2.765625 -0.578125q1.21875 -0.59375 2.078125 -1.640625q0.875 -1.0625 1.59375 -2.859375q0.71875 -1.8125 1.265625 -3.65625l1.875 -6.46875q0.703125 -2.421875 0.703125 -3.15625q0 -0.515625 -0.484375 -0.875q-0.46875 -0.375 -1.921875 -0.453125l0.171875 -0.578125l6.734375 0l-0.171875 0.578125q-1.1875 0 -1.71875 0.234375q-0.515625 0.21875 -0.90625 0.8125q-0.390625 0.578125 -0.875 2.265625l-2.296875 7.859375q-1.109375 3.828125 -2.09375 5.65625q-0.984375 1.8125 -2.859375 3.046875q-1.859375 1.21875 -4.625 1.21875q-3.1875 0 -5.140625 -1.796875q-1.953125 -1.8125 -1.953125 -4.140625q0 -0.921875 0.171875 -1.96875q0.125 -0.6875 0.609375 -2.375l2.09375 -7.203125q0.4375 -1.5625 0.4375 -2.296875q0 -0.578125 -0.453125 -0.890625q-0.4375 -0.328125 -2.234375 -0.421875l0.15625 -0.578125zm28.09375 0l6.546875 16.609375l3.546875 -12.40625q0.4375 -1.53125 0.4375 -2.375q0 -0.578125 -0.40625 -0.90625q-0.40625 -0.328125 -1.515625 -0.328125q-0.1875 0 -0.390625 -0.015625l0.171875 -0.578125l6.8125 0l-0.1875 0.578125q-1.0625 -0.015625 -1.578125 0.21875q-0.734375 0.328125 -1.09375 0.84375q-0.5 0.734375 -1.015625 2.5625l-4.984375 17.46875l-0.5625 0l-7.046875 -17.875l-3.765625 13.203125q-0.421875 1.5 -0.421875 2.296875q0 0.59375 0.375 0.90625q0.390625 0.296875 1.828125 0.40625l-0.15625 0.578125l-6.65625 0l0.21875 -0.578125q1.25 -0.03125 1.671875 -0.21875q0.640625 -0.28125 0.953125 -0.734375q0.453125 -0.6875 1.015625 -2.65625l4.203125 -14.734375q-0.609375 -0.9375 -1.3125 -1.28125q-0.6875 -0.359375 -2.15625 -0.40625l0.171875 -0.578125l5.296875 0zm29.328125 0l8.34375 0l-0.171875 0.578125q-1.609375 0.015625 -2.265625 0.59375q-0.65625 0.5625 -1.375 3.046875l-2.6875 9.328125q-0.765625 2.640625 -1.546875 4.03125q-1.046875 1.875 -2.828125 2.984375q-1.765625 1.109375 -3.96875 1.109375q-1.8125 0 -2.78125 -0.828125q-0.96875 -0.84375 -0.96875 -2.03125q0 -0.9375 0.59375 -1.5625q0.578125 -0.625 1.390625 -0.625q0.703125 0 1.140625 0.421875q0.453125 0.421875 0.453125 1.03125q0 0.5 -0.40625 0.96875q-0.515625 0.59375 -0.515625 0.8125q0 0.328125 0.296875 0.59375q0.296875 0.265625 0.796875 0.265625q0.71875 0 1.484375 -0.34375q0.78125 -0.34375 1.453125 -1.046875q0.6875 -0.703125 1.1875 -1.6875q0.515625 -0.984375 1.046875 -2.6875l0.765625 -2.703125l2.328125 -8.03125q0.515625 -1.765625 0.515625 -2.203125q0 -0.59375 -0.46875 -0.96875q-0.46875 -0.375 -1.984375 -0.46875l0.171875 -0.578125zm15.40625 1.140625l-2.421875 8.375l1.984375 0q2.125 0 3.078125 -0.640625q0.953125 -0.65625 1.640625 -2.40625l0.578125 0l-2.171875 7.6875l-0.625 0q0.28125 -0.96875 0.28125 -1.65625q0 -0.671875 -0.28125 -1.078125q-0.265625 -0.40625 -0.75 -0.59375q-0.46875 -0.203125 -2.0 -0.203125l-2.015625 0l-2.046875 7.015625q-0.296875 1.015625 -0.296875 1.546875q0 0.40625 0.390625 0.71875q0.265625 0.21875 1.328125 0.21875l1.875 0q3.046875 0 4.875 -1.078125q1.84375 -1.078125 3.296875 -3.75l0.578125 0l-2.0 5.890625l-16.375 0l0.203125 -0.578125q1.21875 -0.03125 1.640625 -0.21875q0.625 -0.28125 0.90625 -0.71875q0.421875 -0.640625 1.0 -2.6875l3.71875 -12.78125q0.4375 -1.546875 0.4375 -2.359375q0 -0.59375 -0.421875 -0.921875q-0.40625 -0.34375 -1.609375 -0.34375l-0.328125 0l0.1875 -0.578125l15.21875 0l-1.3125 5.109375l-0.578125 0q0.109375 -0.71875 0.109375 -1.203125q0 -0.828125 -0.40625 -1.390625q-0.53125 -0.71875 -1.546875 -1.09375q-0.75 -0.28125 -3.453125 -0.28125l-2.6875 0zm13.375 -1.140625l8.953125 0l-0.171875 0.578125q-1.375 0.03125 -1.96875 0.265625q-0.578125 0.21875 -1.0 0.796875q-0.40625 0.578125 -0.859375 2.140625l-2.171875 7.5q-0.578125 2.0 -0.6875 2.625q-0.1875 1.0 -0.1875 1.859375q0 1.890625 1.40625 3.203125q1.40625 1.296875 3.765625 1.296875q1.546875 0 2.765625 -0.578125q1.21875 -0.59375 2.078125 -1.640625q0.875 -1.0625 1.59375 -2.859375q0.71875 -1.8125 1.265625 -3.65625l1.875 -6.46875q0.703125 -2.421875 0.703125 -3.15625q0 -0.515625 -0.484375 -0.875q-0.46875 -0.375 -1.921875 -0.453125l0.171875 -0.578125l6.734375 0l-0.171875 0.578125q-1.1875 0 -1.71875 0.234375q-0.515625 0.21875 -0.90625 0.8125q-0.390625 0.578125 -0.875 2.265625l-2.296875 7.859375q-1.109375 3.828125 -2.09375 5.65625q-0.984375 1.8125 -2.859375 3.046875q-1.859375 1.21875 -4.625 1.21875q-3.1875 0 -5.140625 -1.796875q-1.953125 -1.8125 -1.953125 -4.140625q0 -0.921875 0.171875 -1.96875q0.125 -0.6875 0.609375 -2.375l2.09375 -7.203125q0.4375 -1.5625 0.4375 -2.296875q0 -0.578125 -0.453125 -0.890625q-0.4375 -0.328125 -2.234375 -0.421875l0.15625 -0.578125zm31.609375 0.578125l0.1875 -0.578125l6.765625 0q4.296875 0 6.359375 0.984375q2.078125 0.984375 3.3125 3.109375q1.234375 2.109375 1.234375 4.53125q0 2.078125 -0.71875 4.046875q-0.703125 1.953125 -1.609375 3.140625q-0.890625 1.171875 -2.75 2.59375q-1.859375 1.421875 -4.03125 2.109375q-2.171875 0.671875 -5.421875 0.671875l-8.96875 0l0.203125 -0.578125q1.234375 -0.03125 1.65625 -0.21875q0.625 -0.265625 0.921875 -0.71875q0.453125 -0.65625 1.015625 -2.640625l3.75 -12.8125q0.4375 -1.515625 0.4375 -2.375q0 -0.609375 -0.40625 -0.9375q-0.40625 -0.328125 -1.59375 -0.328125l-0.34375 0zm5.546875 0.59375l-4.59375 15.859375q-0.515625 1.78125 -0.515625 2.203125q0 0.25 0.15625 0.484375q0.171875 0.234375 0.453125 0.3125q0.40625 0.140625 1.3125 0.140625q2.453125 0 4.546875 -0.5q2.109375 -0.515625 3.453125 -1.515625q1.90625 -1.453125 3.046875 -4.0q1.140625 -2.546875 1.140625 -5.796875q0 -3.671875 -1.75 -5.453125q-1.75 -1.796875 -5.109375 -1.796875q-0.828125 0 -2.140625 0.0625zm23.234375 -0.03125l-2.421875 8.375l1.984375 0q2.125 0 3.078125 -0.640625q0.953125 -0.65625 1.640625 -2.40625l0.578125 0l-2.171875 7.6875l-0.625 0q0.28125 -0.96875 0.28125 -1.65625q0 -0.671875 -0.28125 -1.078125q-0.265625 -0.40625 -0.75 -0.59375q-0.46875 -0.203125 -2.0 -0.203125l-2.015625 0l-2.046875 7.015625q-0.296875 1.015625 -0.296875 1.546875q0 0.40625 0.390625 0.71875q0.265625 0.21875 1.328125 0.21875l1.875 0q3.046875 0 4.875 -1.078125q1.84375 -1.078125 3.296875 -3.75l0.578125 0l-2.0 5.890625l-16.375 0l0.203125 -0.578125q1.21875 -0.03125 1.640625 -0.21875q0.625 -0.28125 0.90625 -0.71875q0.421875 -0.640625 1.0 -2.6875l3.71875 -12.78125q0.4375 -1.546875 0.4375 -2.359375q0 -0.59375 -0.421875 -0.921875q-0.40625 -0.34375 -1.609375 -0.34375l-0.328125 0l0.1875 -0.578125l15.21875 0l-1.3125 5.109375l-0.578125 0q0.109375 -0.71875 0.109375 -1.203125q0 -0.828125 -0.40625 -1.390625q-0.53125 -0.71875 -1.546875 -1.09375q-0.75 -0.28125 -3.453125 -0.28125l-2.6875 0zm9.40625 20.53125l1.75 -7.859375l0.53125 0q-0.109375 1.140625 -0.109375 1.890625q0 2.140625 1.359375 3.484375q1.375 1.34375 3.578125 1.34375q2.046875 0 3.109375 -1.25q1.0625 -1.265625 1.0625 -2.90625q0 -1.0625 -0.484375 -1.9375q-0.734375 -1.296875 -3.921875 -4.5625q-1.546875 -1.5625 -1.984375 -2.328125q-0.71875 -1.265625 -0.71875 -2.65625q0 -2.21875 1.65625 -3.796875q1.65625 -1.578125 4.25 -1.578125q0.875 0 1.65625 0.171875q0.484375 0.09375 1.765625 0.625q0.90625 0.359375 1.0 0.390625q0.21875 0.046875 0.484375 0.046875q0.453125 0 0.78125 -0.234375q0.328125 -0.234375 0.765625 -1.0l0.59375 0l-1.625 7.03125l-0.53125 0q0.0625 -0.9375 0.0625 -1.515625q0 -1.890625 -1.25 -3.09375q-1.25 -1.203125 -3.296875 -1.203125q-1.625 0 -2.640625 0.953125q-1.015625 0.953125 -1.015625 2.203125q0 1.09375 0.640625 2.09375q0.65625 0.984375 2.984375 3.234375q2.34375 2.234375 3.03125 3.5q0.6875 1.25 0.6875 2.671875q0 1.609375 -0.859375 3.125q-0.84375 1.5 -2.4375 2.328125q-1.59375 0.828125 -3.484375 0.828125q-0.9375 0 -1.75 -0.171875q-0.8125 -0.171875 -2.59375 -0.84375q-0.609375 -0.234375 -1.015625 -0.234375q-0.921875 0 -1.4375 1.25l-0.59375 0zm46.296875 -22.15625l-1.578125 6.859375l-0.5625 0l-0.0625 -1.71875q-0.078125 -0.9375 -0.359375 -1.671875q-0.28125 -0.734375 -0.84375 -1.265625q-0.5625 -0.546875 -1.421875 -0.84375q-0.859375 -0.3125 -1.90625 -0.3125q-2.796875 0 -4.890625 1.53125q-2.671875 1.953125 -4.1875 5.515625q-1.25 2.9375 -1.25 5.953125q0 3.078125 1.796875 4.921875q1.796875 1.828125 4.671875 1.828125q2.171875 0 3.859375 -0.96875q1.703125 -0.96875 3.15625 -2.984375l0.734375 0q-1.71875 2.734375 -3.8125 4.03125q-2.09375 1.28125 -5.015625 1.28125q-2.59375 0 -4.59375 -1.078125q-2.0 -1.09375 -3.046875 -3.0625q-1.046875 -1.96875 -1.046875 -4.234375q0 -3.46875 1.859375 -6.75q1.859375 -3.28125 5.09375 -5.15625q3.25 -1.875 6.546875 -1.875q1.546875 0 3.46875 0.734375q0.84375 0.3125 1.21875 0.3125q0.375 0 0.65625 -0.15625q0.28125 -0.15625 0.9375 -0.890625l0.578125 0zm15.3125 0l-1.609375 17.625q-0.125 1.234375 -0.125 1.625q0 0.625 0.234375 0.953125q0.296875 0.453125 0.796875 0.671875q0.515625 0.21875 1.71875 0.21875l-0.171875 0.578125l-8.34375 0l0.171875 -0.578125l0.359375 0q1.015625 0 1.65625 -0.4375q0.453125 -0.296875 0.703125 -0.984375q0.171875 -0.484375 0.328125 -2.28125l0.25 -2.6875l-6.0625 0l-2.15625 2.921875q-0.734375 0.984375 -0.921875 1.421875q-0.1875 0.421875 -0.1875 0.796875q0 0.5 0.40625 0.859375q0.40625 0.359375 1.34375 0.390625l-0.171875 0.578125l-6.265625 0l0.171875 -0.578125q1.15625 -0.046875 2.03125 -0.765625q0.890625 -0.734375 2.640625 -3.109375l12.65625 -17.21875l0.546875 0zm-3.09375 5.203125l-6.140625 8.359375l5.328125 0l0.8125 -8.359375zm19.453125 16.46875l-3.390625 -10.296875q-1.1875 0.015625 -2.4375 -0.234375l-1.828125 6.40625q-0.359375 1.25 -0.359375 2.109375q0 0.65625 0.453125 1.03125q0.34375 0.28125 1.875 0.40625l-0.140625 0.578125l-8.203125 0l0.171875 -0.578125q1.15625 -0.046875 1.5625 -0.234375q0.640625 -0.265625 0.9375 -0.71875q0.5 -0.734375 1.046875 -2.59375l3.703125 -12.796875q0.375 -1.28125 0.375 -1.984375q0 -0.71875 -0.59375 -1.21875q-0.578125 -0.5 -1.671875 -0.484375l0.1875 -0.578125l6.90625 0q3.46875 0 5.0 1.3125q1.53125 1.3125 1.53125 3.453125q0 2.046875 -1.578125 3.75q-1.5625 1.6875 -4.296875 2.140625l2.0625 6.203125q0.75 2.28125 1.5 2.96875q0.75 0.6875 2.421875 0.78125l-0.171875 0.578125l-5.0625 0zm-5.5625 -11.421875q1.0 0.140625 1.78125 0.140625q2.6875 0 4.25 -1.484375q1.5625 -1.5 1.5625 -3.71875q0 -1.734375 -0.984375 -2.65625q-0.96875 -0.921875 -2.921875 -0.921875q-0.5 0 -1.1875 0.125l-2.5 8.515625zm16.5 -9.765625l16.09375 0l-1.734375 5.625l-0.59375 0q0.296875 -1.234375 0.296875 -2.203125q0 -1.140625 -0.703125 -1.71875q-0.53125 -0.4375 -2.734375 -0.4375l-1.671875 0l-4.1875 14.59375q-0.796875 2.75 -0.796875 3.390625q0 0.59375 0.5 0.984375q0.5 0.375 1.765625 0.375l0.71875 0l-0.1875 0.578125l-9.21875 0l0.171875 -0.578125l0.40625 0q1.21875 0 1.875 -0.390625q0.453125 -0.265625 0.8125 -0.953125q0.375 -0.703125 1.03125 -2.953125l4.390625 -15.046875l-1.265625 0q-1.828125 0 -2.953125 0.46875q-1.109375 0.46875 -1.796875 1.359375q-0.6875 0.890625 -1.125 2.53125l-0.578125 0l1.484375 -5.625zm23.46875 1.140625l-2.421875 8.375l1.984375 0q2.125 0 3.078125 -0.640625q0.953125 -0.65625 1.640625 -2.40625l0.578125 0l-2.171875 7.6875l-0.625 0q0.28125 -0.96875 0.28125 -1.65625q0 -0.671875 -0.28125 -1.078125q-0.265625 -0.40625 -0.75 -0.59375q-0.46875 -0.203125 -2.0 -0.203125l-2.015625 0l-2.046875 7.015625q-0.296875 1.015625 -0.296875 1.546875q0 0.40625 0.390625 0.71875q0.265625 0.21875 1.328125 0.21875l1.875 0q3.046875 0 4.875 -1.078125q1.84375 -1.078125 3.296875 -3.75l0.578125 0l-2.0 5.890625l-16.375 0l0.203125 -0.578125q1.21875 -0.03125 1.640625 -0.21875q0.625 -0.28125 0.90625 -0.71875q0.421875 -0.640625 1.0 -2.6875l3.71875 -12.78125q0.4375 -1.546875 0.4375 -2.359375q0 -0.59375 -0.421875 -0.921875q-0.40625 -0.34375 -1.609375 -0.34375l-0.328125 0l0.1875 -0.578125l15.21875 0l-1.3125 5.109375l-0.578125 0q0.109375 -0.71875 0.109375 -1.203125q0 -0.828125 -0.40625 -1.390625q-0.53125 -0.71875 -1.546875 -1.09375q-0.75 -0.28125 -3.453125 -0.28125l-2.6875 0zm9.40625 20.53125l1.75 -7.859375l0.53125 0q-0.109375 1.140625 -0.109375 1.890625q0 2.140625 1.359375 3.484375q1.375 1.34375 3.578125 1.34375q2.046875 0 3.109375 -1.25q1.0625 -1.265625 1.0625 -2.90625q0 -1.0625 -0.484375 -1.9375q-0.734375 -1.296875 -3.921875 -4.5625q-1.546875 -1.5625 -1.984375 -2.328125q-0.71875 -1.265625 -0.71875 -2.65625q0 -2.21875 1.65625 -3.796875q1.65625 -1.578125 4.25 -1.578125q0.875 0 1.65625 0.171875q0.484375 0.09375 1.765625 0.625q0.90625 0.359375 1.0 0.390625q0.21875 0.046875 0.484375 0.046875q0.453125 0 0.78125 -0.234375q0.328125 -0.234375 0.765625 -1.0l0.59375 0l-1.625 7.03125l-0.53125 0q0.0625 -0.9375 0.0625 -1.515625q0 -1.890625 -1.25 -3.09375q-1.25 -1.203125 -3.296875 -1.203125q-1.625 0 -2.640625 0.953125q-1.015625 0.953125 -1.015625 2.203125q0 1.09375 0.640625 2.09375q0.65625 0.984375 2.984375 3.234375q2.34375 2.234375 3.03125 3.5q0.6875 1.25 0.6875 2.671875q0 1.609375 -0.859375 3.125q-0.84375 1.5 -2.4375 2.328125q-1.59375 0.828125 -3.484375 0.828125q-0.9375 0 -1.75 -0.171875q-0.8125 -0.171875 -2.59375 -0.84375q-0.609375 -0.234375 -1.015625 -0.234375q-0.921875 0 -1.4375 1.25l-0.59375 0zm15.453125 3.03125q1.171875 -0.53125 1.90625 -1.34375q0.5625 -0.625 0.5625 -1.203125q0 -0.28125 -0.09375 -0.515625q-0.0625 -0.125 -0.4375 -0.5q-0.375 -0.375 -0.421875 -0.515625q-0.109375 -0.265625 -0.109375 -0.609375q0 -0.671875 0.453125 -1.15625q0.46875 -0.484375 1.09375 -0.484375q0.640625 0 1.125 0.515625q0.5 0.515625 0.5 1.296875q0 1.390625 -1.09375 2.8125q-1.09375 1.421875 -3.171875 2.203125l-0.3125 -0.5zm31.0 -3.515625l-15.703125 0l0.21875 -0.578125q1.25 -0.03125 1.671875 -0.203125q0.65625 -0.28125 0.96875 -0.734375q0.484375 -0.71875 1.03125 -2.59375l3.734375 -12.890625q0.46875 -1.59375 0.46875 -2.34375q0 -0.59375 -0.4375 -0.921875q-0.421875 -0.328125 -1.609375 -0.328125q-0.265625 0 -0.421875 -0.015625l0.1875 -0.578125l8.640625 0l-0.125 0.578125q-1.453125 0 -2.0625 0.28125q-0.609375 0.28125 -1.015625 0.921875q-0.28125 0.421875 -0.921875 2.625l-3.671875 12.671875q-0.421875 1.4375 -0.421875 2.0q0 0.375 0.421875 0.71875q0.265625 0.234375 1.203125 0.234375l2.046875 0q2.234375 0 3.546875 -0.5625q0.96875 -0.421875 1.78125 -1.265625q0.4375 -0.46875 1.5468445 -2.328125l0.40625 -0.703125l0.578125 0l-2.0624695 6.015625zm13.4843445 -20.046875l-2.421875 8.375l1.984375 0q2.125 0 3.078125 -0.640625q0.953125 -0.65625 1.640625 -2.40625l0.578125 0l-2.171875 7.6875l-0.625 0q0.28125 -0.96875 0.28125 -1.65625q0 -0.671875 -0.28125 -1.078125q-0.265625 -0.40625 -0.75 -0.59375q-0.46875 -0.203125 -2.0 -0.203125l-2.015625 0l-2.046875 7.015625q-0.296875 1.015625 -0.296875 1.546875q0 0.40625 0.390625 0.71875q0.265625 0.21875 1.328125 0.21875l1.875 0q3.046875 0 4.875 -1.078125q1.84375 -1.078125 3.296875 -3.75l0.578125 0l-2.0 5.890625l-16.375 0l0.203125 -0.578125q1.21875 -0.03125 1.640625 -0.21875q0.625 -0.28125 0.90625 -0.71875q0.421875 -0.640625 1.0 -2.6875l3.71875 -12.78125q0.4375 -1.546875 0.4375 -2.359375q0 -0.59375 -0.421875 -0.921875q-0.40625 -0.34375 -1.609375 -0.34375l-0.328125 0l0.1875 -0.578125l15.21875 0l-1.3125 5.109375l-0.578125 0q0.109375 -0.71875 0.109375 -1.203125q0 -0.828125 -0.40625 -1.390625q-0.53125 -0.71875 -1.546875 -1.09375q-0.75 -0.28125 -3.453125 -0.28125l-2.6875 0zm27.328125 -1.140625l1.953125 17.0625l12.296875 -17.0625l5.171875 0l0 0.578125q-1.6875 0.109375 -1.984375 0.21875q-0.515625 0.203125 -0.953125 0.8125q-0.421875 0.609375 -0.921875 2.34375l-3.921875 13.4375q-0.34375 1.171875 -0.34375 1.84375q0 0.609375 0.421875 0.921875q0.59375 0.453125 1.875 0.453125l0.375 0l-0.140625 0.578125l-8.921875 0l0.15625 -0.578125l0.421875 0q1.1875 0 1.8125 -0.34375q0.484375 -0.25 0.859375 -0.9375q0.390625 -0.703125 1.078125 -3.09375l3.5 -12.28125l-12.359375 17.234375l-0.625 0l-1.984375 -17.234375l-3.78125 13.109375q-0.484375 1.671875 -0.484375 2.25q0 0.578125 0.421875 0.890625q0.421875 0.296875 2.046875 0.40625l-0.171875 0.578125l-6.984375 0l0.171875 -0.578125l0.421875 0q1.546875 0 2.234375 -0.78125q0.5 -0.5625 1.046875 -2.4375l4.609375 -15.796875q-0.515625 -0.53125 -0.984375 -0.71875q-0.46875 -0.1875 -1.734375 -0.296875l0.15625 -0.578125l5.265625 0zm32.28125 -0.484375q2.109375 0 3.734375 0.921875q1.625 0.90625 2.546875 2.703125q0.921875 1.78125 0.921875 3.703125q0 3.40625 -1.984375 7.15625q-1.96875 3.734375 -5.15625 5.703125q-3.1875 1.96875 -6.59375 1.96875q-2.453125 0 -4.109375 -1.078125q-1.640625 -1.09375 -2.4375 -2.875q-0.78125 -1.78125 -0.78125 -3.453125q0 -2.96875 1.421875 -5.859375q1.4375 -2.90625 3.421875 -4.84375q1.984375 -1.953125 4.234375 -3.0q2.25 -1.046875 4.78125 -1.046875zm-0.53125 1.0q-1.5625 0 -3.0625 0.78125q-1.484375 0.765625 -2.953125 2.53125q-1.46875 1.75 -2.640625 4.59375q-1.4375 3.5 -1.4375 6.609375q0 2.21875 1.140625 3.9375q1.140625 1.703125 3.5 1.703125q1.421875 0 2.78125 -0.703125q1.375 -0.703125 2.859375 -2.40625q1.859375 -2.140625 3.125 -5.453125q1.265625 -3.328125 1.265625 -6.203125q0 -2.125 -1.140625 -3.75q-1.140625 -1.640625 -3.4375 -1.640625zm17.046875 -0.515625l6.546875 16.609375l3.546875 -12.40625q0.4375 -1.53125 0.4375 -2.375q0 -0.578125 -0.40625 -0.90625q-0.40625 -0.328125 -1.515625 -0.328125q-0.1875 0 -0.390625 -0.015625l0.171875 -0.578125l6.8125 0l-0.1875 0.578125q-1.0625 -0.015625 -1.578125 0.21875q-0.734375 0.328125 -1.09375 0.84375q-0.5 0.734375 -1.015625 2.5625l-4.984375 17.46875l-0.5625 0l-7.046875 -17.875l-3.765625 13.203125q-0.421875 1.5 -0.421875 2.296875q0 0.59375 0.375 0.90625q0.390625 0.296875 1.828125 0.40625l-0.15625 0.578125l-6.65625 0l0.21875 -0.578125q1.25 -0.03125 1.671875 -0.21875q0.640625 -0.28125 0.953125 -0.734375q0.453125 -0.6875 1.015625 -2.65625l4.203125 -14.734375q-0.609375 -0.9375 -1.3125 -1.28125q-0.6875 -0.359375 -2.15625 -0.40625l0.171875 -0.578125l5.296875 0zm16.859375 0.578125l0.1875 -0.578125l6.765625 0q4.296875 0 6.359375 0.984375q2.078125 0.984375 3.3125 3.109375q1.234375 2.109375 1.234375 4.53125q0 2.078125 -0.71875 4.046875q-0.703125 1.953125 -1.609375 3.140625q-0.890625 1.171875 -2.75 2.59375q-1.859375 1.421875 -4.03125 2.109375q-2.171875 0.671875 -5.421875 0.671875l-8.96875 0l0.203125 -0.578125q1.234375 -0.03125 1.65625 -0.21875q0.625 -0.265625 0.921875 -0.71875q0.453125 -0.65625 1.015625 -2.640625l3.75 -12.8125q0.4375 -1.515625 0.4375 -2.375q0 -0.609375 -0.40625 -0.9375q-0.40625 -0.328125 -1.59375 -0.328125l-0.34375 0zm5.546875 0.59375l-4.59375 15.859375q-0.515625 1.78125 -0.515625 2.203125q0 0.25 0.15625 0.484375q0.171875 0.234375 0.453125 0.3125q0.40625 0.140625 1.3125 0.140625q2.453125 0 4.546875 -0.5q2.109375 -0.515625 3.453125 -1.515625q1.90625 -1.453125 3.046875 -4.0q1.140625 -2.546875 1.140625 -5.796875q0 -3.671875 -1.75 -5.453125q-1.75 -1.796875 -5.109375 -1.796875q-0.828125 0 -2.140625 0.0625zm23.234375 -0.03125l-2.421875 8.375l1.984375 0q2.125 0 3.078125 -0.640625q0.953125 -0.65625 1.640625 -2.40625l0.578125 0l-2.171875 7.6875l-0.625 0q0.28125 -0.96875 0.28125 -1.65625q0 -0.671875 -0.28125 -1.078125q-0.265625 -0.40625 -0.75 -0.59375q-0.46875 -0.203125 -2.0 -0.203125l-2.015625 0l-2.046875 7.015625q-0.296875 1.015625 -0.296875 1.546875q0 0.40625 0.390625 0.71875q0.265625 0.21875 1.328125 0.21875l1.875 0q3.046875 0 4.875 -1.078125q1.84375 -1.078125 3.296875 -3.75l0.578125 0l-2.0 5.890625l-16.375 0l0.203125 -0.578125q1.21875 -0.03125 1.640625 -0.21875q0.625 -0.28125 0.90625 -0.71875q0.421875 -0.640625 1.0 -2.6875l3.71875 -12.78125q0.4375 -1.546875 0.4375 -2.359375q0 -0.59375 -0.421875 -0.921875q-0.40625 -0.34375 -1.609375 -0.34375l-0.328125 0l0.1875 -0.578125l15.21875 0l-1.3125 5.109375l-0.578125 0q0.109375 -0.71875 0.109375 -1.203125q0 -0.828125 -0.40625 -1.390625q-0.53125 -0.71875 -1.546875 -1.09375q-0.75 -0.28125 -3.453125 -0.28125l-2.6875 0zm21.875 -0.5625l0.1875 -0.578125l6.765625 0q4.296875 0 6.359375 0.984375q2.078125 0.984375 3.3125 3.109375q1.234375 2.109375 1.234375 4.53125q0 2.078125 -0.71875 4.046875q-0.703125 1.953125 -1.609375 3.140625q-0.890625 1.171875 -2.75 2.59375q-1.859375 1.421875 -4.03125 2.109375q-2.171875 0.671875 -5.421875 0.671875l-8.96875 0l0.203125 -0.578125q1.234375 -0.03125 1.65625 -0.21875q0.625 -0.265625 0.921875 -0.71875q0.453125 -0.65625 1.015625 -2.640625l3.75 -12.8125q0.4375 -1.515625 0.4375 -2.375q0 -0.609375 -0.40625 -0.9375q-0.40625 -0.328125 -1.59375 -0.328125l-0.34375 0zm5.546875 0.59375l-4.59375 15.859375q-0.515625 1.78125 -0.515625 2.203125q0 0.25 0.15625 0.484375q0.171875 0.234375 0.453125 0.3125q0.40625 0.140625 1.3125 0.140625q2.453125 0 4.546875 -0.5q2.109375 -0.515625 3.453125 -1.515625q1.90625 -1.453125 3.046875 -4.0q1.140625 -2.546875 1.140625 -5.796875q0 -3.671875 -1.75 -5.453125q-1.75 -1.796875 -5.109375 -1.796875q-0.828125 0 -2.140625 0.0625zm23.234375 -0.03125l-2.421875 8.375l1.984375 0q2.125 0 3.078125 -0.640625q0.953125 -0.65625 1.640625 -2.40625l0.578125 0l-2.171875 7.6875l-0.625 0q0.28125 -0.96875 0.28125 -1.65625q0 -0.671875 -0.28125 -1.078125q-0.265625 -0.40625 -0.75 -0.59375q-0.46875 -0.203125 -2.0 -0.203125l-2.015625 0l-2.046875 7.015625q-0.296875 1.015625 -0.296875 1.546875q0 0.40625 0.390625 0.71875q0.265625 0.21875 1.328125 0.21875l1.875 0q3.046875 0 4.875 -1.078125q1.84375 -1.078125 3.296875 -3.75l0.578125 0l-2.0 5.890625l-16.375 0l0.203125 -0.578125q1.21875 -0.03125 1.640625 -0.21875q0.625 -0.28125 0.90625 -0.71875q0.421875 -0.640625 1.0 -2.6875l3.71875 -12.78125q0.4375 -1.546875 0.4375 -2.359375q0 -0.59375 -0.421875 -0.921875q-0.40625 -0.34375 -1.609375 -0.34375l-0.328125 0l0.1875 -0.578125l15.21875 0l-1.3125 5.109375l-0.578125 0q0.109375 -0.71875 0.109375 -1.203125q0 -0.828125 -0.40625 -1.390625q-0.53125 -0.71875 -1.546875 -1.09375q-0.75 -0.28125 -3.453125 -0.28125l-2.6875 0zm31.859375 20.046875l-15.703125 0l0.21875 -0.578125q1.25 -0.03125 1.671875 -0.203125q0.65625 -0.28125 0.96875 -0.734375q0.484375 -0.71875 1.03125 -2.59375l3.734375 -12.890625q0.46875 -1.59375 0.46875 -2.34375q0 -0.59375 -0.4375 -0.921875q-0.421875 -0.328125 -1.609375 -0.328125q-0.265625 0 -0.421875 -0.015625l0.1875 -0.578125l8.640625 0l-0.125 0.578125q-1.453125 0 -2.0625 0.28125q-0.609375 0.28125 -1.015625 0.921875q-0.28125 0.421875 -0.921875 2.625l-3.671875 12.671875q-0.421875 1.4375 -0.421875 2.0q0 0.375 0.421875 0.71875q0.265625 0.234375 1.203125 0.234375l2.046875 0q2.234375 0 3.546875 -0.5625q0.96875 -0.421875 1.78125 -1.265625q0.4375 -0.46875 1.546875 -2.328125l0.40625 -0.703125l0.578125 0l-2.0625 6.015625zm19.609375 -21.671875l-1.609375 17.625q-0.125 1.234375 -0.125 1.625q0 0.625 0.234375 0.953125q0.296875 0.453125 0.796875 0.671875q0.515625 0.21875 1.71875 0.21875l-0.171875 0.578125l-8.34375 0l0.171875 -0.578125l0.359375 0q1.015625 0 1.65625 -0.4375q0.453125 -0.296875 0.703125 -0.984375q0.171875 -0.484375 0.328125 -2.28125l0.25 -2.6875l-6.0625 0l-2.15625 2.921875q-0.734375 0.984375 -0.921875 1.421875q-0.1875 0.421875 -0.1875 0.796875q0 0.5 0.40625 0.859375q0.40625 0.359375 1.34375 0.390625l-0.171875 0.578125l-6.265625 0l0.171875 -0.578125q1.15625 -0.046875 2.03125 -0.765625q0.890625 -0.734375 2.640625 -3.109375l12.65625 -17.21875l0.546875 0zm-3.09375 5.203125l-6.140625 8.359375l5.328125 0l0.8125 -8.359375z" fill-rule="nonzero"/><path fill="#000000" fill-opacity="0.0" d="m24.341558 174.79721l743.1181 0" fill-rule="evenodd"/><path stroke="#000000" stroke-width="3.0" stroke-linejoin="round" stroke-linecap="butt" d="m41.226387 174.79723l709.34845 0" fill-rule="evenodd"/><path fill="#000000" stroke="#000000" stroke-width="3.0" stroke-linecap="butt" d="m41.226387 174.79723l-7.1348305 -4.995865l-7.1348286 4.995865l7.1348286 4.995865z" fill-rule="evenodd"/><path fill="#000000" stroke="#000000" stroke-width="3.0" stroke-linecap="butt" d="m750.5748 174.79723l7.1348267 4.995865l7.1348267 -4.995865l-7.1348267 -4.995865z" fill-rule="evenodd"/><path fill="#000000" fill-opacity="0.0" d="m160.53018 57.217846l606.61414 0.062992096" fill-rule="evenodd"/><path stroke="#000000" stroke-width="3.0" stroke-linejoin="round" stroke-linecap="butt" d="m177.41501 57.2196l572.8445 0.05948639" fill-rule="evenodd"/><path fill="#000000" stroke="#000000" stroke-width="3.0" stroke-linecap="butt" d="m177.41501 57.2196l-7.134308 -4.996601l-7.1353455 4.995121l7.134308 4.996601z" fill-rule="evenodd"/><path fill="#000000" stroke="#000000" stroke-width="3.0" stroke-linecap="butt" d="m750.2595 57.279087l7.1343384 4.996601l7.135315 -4.995121l-7.1342773 -4.996601z" fill-rule="evenodd"/></g></svg>