<svg version="1.1" viewBox="0.0 0.0 800.0 200.0" fill="none" stroke="none" stroke-linecap="square" stroke-miterlimit="10" xmlns:xlink="http://www.w3.org/1999/xlink" xmlns="http://www.w3.org/2000/svg"><clipPath id="p.0"><path d="m0 0l800.0 0l0 200.0l-800.0 0l0 -200.0z" clip-rule="nonzero"/></clipPath><g clip-path="url(#p.0)"><path fill="#000000" fill-opacity="0.0" d="m0 0l800.0 0l0 200.0l-800.0 0z" fill-rule="evenodd"/><path fill="#000000" fill-opacity="0.0" d="m24.199474 -39.989502l435.65356 0l0 249.88977l-435.65356 0z" fill-rule="evenodd"/><path fill="#000000" d="m115.04323 152.90027l-51.17188 -111.421875l0 88.46875q0 12.203125 2.6250038 15.234375q3.625 4.109375 11.4375 4.109375l4.6875 0l0 3.609375l-46.093754 0l0 -3.609375l4.6875 0q8.390625 0 11.90625 -5.078125q2.15625 -3.125 2.15625 -14.265625l0 -86.515625q0 -8.796875 -1.953125 -12.703125q-1.375 -2.828125 -5.046875 -4.734375q-3.65625 -1.90625 -11.75 -1.90625l0 -3.609375l37.500004 0l48.046875 103.609375l47.265625 -103.609375l37.5 0l0 3.609375l-4.59375 0q-8.5 0 -12.015625 5.078125q-2.140625 3.125 -2.140625 14.265625l0 86.515625q0 12.203125 2.734375 15.234375q3.609375 4.109375 11.421875 4.109375l4.59375 0l0 3.609375l-56.25 0l0 -3.609375l4.6875 0q8.484375 0 11.90625 -5.078125q2.15625 -3.125 2.15625 -14.265625l0 -88.46875l-51.078125 111.421875l-3.21875 0z" fill-rule="nonzero"/><path fill="#000000" d="m255.40651 132.7909l-24.953125 0l-2.96875 6.875q-1.453125 3.4375 -1.453125 5.6875q0 2.96875 2.390625 4.375q1.40625 0.828125 6.9375 1.25l0 1.921875l-23.5 0l0 -1.921875q3.8125 -0.578125 6.25 -3.15625q2.453125 -2.578125 6.046875 -10.65625l25.25 -56.34375l1.0 0l25.468735 57.90625q3.640625 8.234375 5.984375 10.375q1.765625 1.609375 5.0 1.875l0 1.921875l-34.17186 0l0 -1.921875l1.40625 0q4.1249847 0 5.7812347 -1.15625q1.15625 -0.828125 1.15625 -2.390625q0 -0.9375 -0.3125 -1.921875q-0.109375 -0.46875 -1.5625 -3.90625l-3.7499847 -8.8125zm-1.78125 -3.84375l-10.515625 -24.328125l-10.828125 24.328125l21.34375 0zm36.929977 -46.671875l36.453125 0l0 1.9375l-1.828125 0q-4.109375 0 -5.65625 0.859375q-1.53125 0.859375 -2.1875 2.375q-0.640625 1.5 -0.640625 7.546875l0 34.578125q0 9.46875 1.421875 12.546875q1.4375 3.078125 4.71875 5.109375q3.28125 2.03125 8.28125 2.03125q5.734375 0 9.765625 -2.578125q4.046875 -2.578125 6.046875 -7.109375q2.0 -4.53125 2.0 -15.78125l0 -28.796875q0 -4.75 -0.984375 -6.78125q-0.984375 -2.03125 -2.5 -2.8125q-2.34375 -1.1875 -6.609375 -1.1875l0 -1.9375l24.421875 0l0 1.9375l-1.453125 0q-2.96875 0 -4.953125 1.203125q-1.984375 1.1875 -2.859375 3.578125q-0.6875 1.671875 -0.6875 6.0l0 26.8125q0 12.453125 -1.640625 17.96875q-1.640625 5.515625 -8.0 10.15625q-6.34375 4.640625 -17.328125 4.640625q-9.171875 0 -14.171875 -2.453125q-6.8125 -3.328125 -9.625 -8.53125q-2.8125 -5.21875 -2.8125 -14.015625l0 -34.578125q0 -6.09375 -0.6875 -7.578125q-0.671875 -1.484375 -2.34375 -2.375q-1.65625 -0.890625 -6.140625 -0.828125l0 -1.9375zm150.46121 0l0 1.9375q-3.859375 0.625 -6.875 4.109375q-2.1875 2.609375 -6.515625 12.234375l-24.328125 53.953125l-1.71875 0l-24.203125 -56.140625q-4.375 -10.15625 -5.859375 -11.921875q-1.484375 -1.765625 -5.609375 -2.234375l0 -1.9375l33.859375 0l0 1.9375l-1.15625 0q-4.578125 0 -6.25 1.140625q-1.1875 0.78125 -1.1875 2.296875q0 0.9375 0.40625 2.21875q0.421875 1.265625 2.8125 6.84375l15.0625 35.140625l13.953125 -31.296875q2.5 -5.671875 3.0625 -7.59375q0.578125 -1.9375 0.578125 -3.28125q0 -1.5625 -0.828125 -2.765625q-0.828125 -1.203125 -2.453125 -1.828125q-2.234375 -0.875 -5.9375 -0.875l0 -1.9375l23.1875 0z" fill-rule="nonzero"/><path fill="#000000" fill-opacity="0.0" d="m232.05315 -0.6771653l540.3779 0l0 51.937008l-540.3779 0z" fill-rule="evenodd"/><path fill="#000000" d="m255.72502 39.042835l-15.703125 0l0.21875 -0.578125q1.25 -0.03125 1.671875 -0.203125q0.65625 -0.28125 0.96875 -0.734375q0.484375 -0.71875 1.03125 -2.59375l3.734375 -12.890625q0.46875 -1.59375 0.46875 -2.34375q0 -0.59375 -0.4375 -0.921875q-0.421875 -0.328125 -1.609375 -0.328125q-0.265625 0 -0.421875 -0.015625l0.1875 -0.578125l8.640625 0l-0.125 0.578125q-1.453125 0 -2.0625 0.28125q-0.609375 0.28125 -1.015625 0.921875q-0.28125 0.421875 -0.921875 2.625l-3.671875 12.671875q-0.421875 1.4375 -0.421875 2.0q0 0.375 0.421875 0.71875q0.265625 0.234375 1.203125 0.234375l2.046875 0q2.234375 0 3.546875 -0.5625q0.96875 -0.421875 1.78125 -1.265625q0.4375 -0.46875 1.5468903 -2.328125l0.40625 -0.703125l0.578125 0l-2.0625153 6.015625zm19.60939 -21.671875l-1.609375 17.625q-0.125 1.234375 -0.125 1.625q0 0.625 0.234375 0.953125q0.296875 0.453125 0.796875 0.671875q0.515625 0.21875 1.71875 0.21875l-0.171875 0.578125l-8.34375 0l0.171875 -0.578125l0.359375 0q1.015625 0 1.65625 -0.4375q0.453125 -0.296875 0.703125 -0.984375q0.171875 -0.484375 0.328125 -2.28125l0.25 -2.6875l-6.0625 0l-2.15625 2.921875q-0.734375 0.984375 -0.921875 1.421875q-0.1875 0.421875 -0.1875 0.796875q0 0.5 0.40625 0.859375q0.40625 0.359375 1.34375 0.390625l-0.171875 0.578125l-6.265625 0l0.171875 -0.578125q1.15625 -0.046875 2.03125 -0.765625q0.890625 -0.734375 2.640625 -3.109375l12.65625 -17.21875l0.546875 0zm-3.09375 5.203125l-6.140625 8.359375l5.328125 0l0.8125 -8.359375zm36.671875 -5.203125l-1.578125 6.859375l-0.5625 0l-0.0625 -1.71875q-0.078125 -0.9375 -0.359375 -1.671875q-0.28125 -0.734375 -0.84375 -1.265625q-0.5625 -0.546875 -1.421875 -0.84375q-0.859375 -0.3125 -1.90625 -0.3125q-2.796875 0 -4.890625 1.53125q-2.671875 1.953125 -4.1875 5.515625q-1.25 2.9375 -1.25 5.953125q0 3.078125 1.796875 4.921875q1.796875 1.828125 4.671875 1.828125q2.171875 0 3.859375 -0.96875q1.703125 -0.96875 3.15625 -2.984375l0.734375 0q-1.71875 2.734375 -3.8125 4.03125q-2.09375 1.28125 -5.015625 1.28125q-2.59375 0 -4.59375 -1.078125q-2.0 -1.09375 -3.046875 -3.0625q-1.046875 -1.96875 -1.046875 -4.234375q0 -3.46875 1.859375 -6.75q1.859375 -3.28125 5.09375 -5.15625q3.25 -1.875 6.546875 -1.875q1.546875 0 3.46875 0.734375q0.84375 0.3125 1.21875 0.3125q0.375 0 0.65625 -0.15625q0.28125 -0.15625 0.9375 -0.890625l0.578125 0zm14.59375 0q2.109375 0 3.734375 0.921875q1.625 0.90625 2.546875 2.703125q0.921875 1.78125 0.921875 3.703125q0 3.40625 -1.984375 7.15625q-1.96875 3.734375 -5.15625 5.703125q-3.1875 1.96875 -6.59375 1.96875q-2.453125 0 -4.109375 -1.078125q-1.640625 -1.09375 -2.4375 -2.875q-0.78125 -1.78125 -0.78125 -3.453125q0 -2.96875 1.421875 -5.859375q1.4375 -2.90625 3.421875 -4.84375q1.984375 -1.953125 4.234375 -3.0q2.25 -1.046875 4.78125 -1.046875zm-0.53125 1.0q-1.5625 0 -3.0625 0.78125q-1.484375 0.765625 -2.953125 2.53125q-1.46875 1.75 -2.640625 4.59375q-1.4375 3.5 -1.4375 6.609375q0 2.21875 1.140625 3.9375q1.140625 1.703125 3.5 1.703125q1.421875 0 2.78125 -0.703125q1.375 -0.703125 2.859375 -2.40625q1.859375 -2.140625 3.125 -5.453125q1.265625 -3.328125 1.265625 -6.203125q0 -2.125 -1.140625 -3.75q-1.140625 -1.640625 -3.4375 -1.640625zm17.046875 -0.515625l6.546875 16.609375l3.546875 -12.40625q0.4375 -1.53125 0.4375 -2.375q0 -0.578125 -0.40625 -0.90625q-0.40625 -0.328125 -1.515625 -0.328125q-0.1875 0 -0.390625 -0.015625l0.171875 -0.578125l6.8125 0l-0.1875 0.578125q-1.0625 -0.015625 -1.578125 0.21875q-0.734375 0.328125 -1.09375 0.84375q-0.5 0.734375 -1.015625 2.5625l-4.984375 17.46875l-0.5625 0l-7.046875 -17.875l-3.765625 13.203125q-0.421875 1.5 -0.421875 2.296875q0 0.59375 0.375 0.90625q0.390625 0.296875 1.828125 0.40625l-0.15625 0.578125l-6.65625 0l0.21875 -0.578125q1.25 -0.03125 1.671875 -0.21875q0.640625 -0.28125 0.953125 -0.734375q0.453125 -0.6875 1.015625 -2.65625l4.203125 -14.734375q-0.609375 -0.9375 -1.3125 -1.28125q-0.6875 -0.359375 -2.15625 -0.40625l0.171875 -0.578125l5.296875 0zm16.859375 0l16.09375 0l-1.734375 5.625l-0.59375 0q0.296875 -1.234375 0.296875 -2.203125q0 -1.140625 -0.703125 -1.71875q-0.53125 -0.4375 -2.734375 -0.4375l-1.671875 0l-4.1875 14.59375q-0.796875 2.75 -0.796875 3.390625q0 0.59375 0.5 0.984375q0.5 0.375 1.765625 0.375l0.71875 0l-0.1875 0.578125l-9.21875 0l0.171875 -0.578125l0.40625 0q1.21875 0 1.875 -0.390625q0.453125 -0.265625 0.8125 -0.953125q0.375 -0.703125 1.03125 -2.953125l4.390625 -15.046875l-1.265625 0q-1.828125 0 -2.953125 0.46875q-1.109375 0.46875 -1.796875 1.359375q-0.6875 0.890625 -1.125 2.53125l-0.578125 0l1.484375 -5.625zm21.0 20.609375l-0.171875 0.578125l-8.71875 0l0.21875 -0.578125q1.3125 -0.03125 1.734375 -0.21875q0.6875 -0.265625 1.015625 -0.734375q0.515625 -0.734375 1.0625 -2.625l3.6875 -12.78125q0.46875 -1.59375 0.46875 -2.40625q0 -0.40625 -0.203125 -0.6875q-0.203125 -0.28125 -0.625 -0.421875q-0.40625 -0.15625 -1.609375 -0.15625l0.1875 -0.578125l8.1875 0l-0.171875 0.578125q-1.0 -0.015625 -1.484375 0.21875q-0.703125 0.3125 -1.078125 0.890625q-0.359375 0.578125 -0.9375 2.5625l-3.671875 12.78125q-0.5 1.765625 -0.5 2.25q0 0.390625 0.1875 0.671875q0.203125 0.265625 0.625 0.421875q0.4375 0.140625 1.796875 0.234375zm11.9375 -20.609375l6.546875 16.609375l3.546875 -12.40625q0.4375 -1.53125 0.4375 -2.375q0 -0.578125 -0.40625 -0.90625q-0.40625 -0.328125 -1.515625 -0.328125q-0.1875 0 -0.390625 -0.015625l0.171875 -0.578125l6.8125 0l-0.1875 0.578125q-1.0625 -0.015625 -1.578125 0.21875q-0.734375 0.328125 -1.09375 0.84375q-0.5 0.734375 -1.015625 2.5625l-4.984375 17.46875l-0.5625 0l-7.046875 -17.875l-3.765625 13.203125q-0.421875 1.5 -0.421875 2.296875q0 0.59375 0.375 0.90625q0.390625 0.296875 1.828125 0.40625l-0.15625 0.578125l-6.65625 0l0.21875 -0.578125q1.25 -0.03125 1.671875 -0.21875q0.640625 -0.28125 0.953125 -0.734375q0.453125 -0.6875 1.015625 -2.65625l4.203125 -14.734375q-0.609375 -0.9375 -1.3125 -1.28125q-0.6875 -0.359375 -2.15625 -0.40625l0.171875 -0.578125l5.296875 0zm16.359375 0l8.953125 0l-0.171875 0.578125q-1.375 0.03125 -1.96875 0.265625q-0.578125 0.21875 -1.0 0.796875q-0.40625 0.578125 -0.859375 2.140625l-2.171875 7.5q-0.578125 2.0 -0.6875 2.625q-0.1875 1.0 -0.1875 1.859375q0 1.890625 1.40625 3.203125q1.40625 1.296875 3.765625 1.296875q1.546875 0 2.765625 -0.578125q1.21875 -0.59375 2.078125 -1.640625q0.875 -1.0625 1.59375 -2.859375q0.71875 -1.8125 1.265625 -3.65625l1.875 -6.46875q0.703125 -2.421875 0.703125 -3.15625q0 -0.515625 -0.484375 -0.875q-0.46875 -0.375 -1.921875 -0.453125l0.171875 -0.578125l6.734375 0l-0.171875 0.578125q-1.1875 0 -1.71875 0.234375q-0.515625 0.21875 -0.90625 0.8125q-0.390625 0.578125 -0.875 2.265625l-2.296875 7.859375q-1.109375 3.828125 -2.09375 5.65625q-0.984375 1.8125 -2.859375 3.046875q-1.859375 1.21875 -4.625 1.21875q-3.1875 0 -5.140625 -1.796875q-1.953125 -1.8125 -1.953125 -4.140625q0 -0.921875 0.171875 -1.96875q0.125 -0.6875 0.609375 -2.375l2.09375 -7.203125q0.4375 -1.5625 0.4375 -2.296875q0 -0.578125 -0.453125 -0.890625q-0.4375 -0.328125 -2.234375 -0.421875l0.15625 -0.578125zm35.40625 -0.484375l-1.609375 17.625q-0.125 1.234375 -0.125 1.625q0 0.625 0.234375 0.953125q0.296875 0.453125 0.796875 0.671875q0.515625 0.21875 1.71875 0.21875l-0.171875 0.578125l-8.34375 0l0.171875 -0.578125l0.359375 0q1.015625 0 1.65625 -0.4375q0.453125 -0.296875 0.703125 -0.984375q0.171875 -0.484375 0.328125 -2.28125l0.25 -2.6875l-6.0625 0l-2.15625 2.921875q-0.734375 0.984375 -0.921875 1.421875q-0.1875 0.421875 -0.1875 0.796875q0 0.5 0.40625 0.859375q0.40625 0.359375 1.34375 0.390625l-0.171875 0.578125l-6.265625 0l0.171875 -0.578125q1.15625 -0.046875 2.03125 -0.765625q0.890625 -0.734375 2.640625 -3.109375l12.65625 -17.21875l0.546875 0zm-3.09375 5.203125l-6.140625 8.359375l5.328125 0l0.8125 -8.359375zm10.84375 -4.71875l16.09375 0l-1.734375 5.625l-0.59375 0q0.296875 -1.234375 0.296875 -2.203125q0 -1.140625 -0.703125 -1.71875q-0.53125 -0.4375 -2.734375 -0.4375l-1.671875 0l-4.1875 14.59375q-0.796875 2.75 -0.796875 3.390625q0 0.59375 0.5 0.984375q0.5 0.375 1.765625 0.375l0.71875 0l-0.1875 0.578125l-9.21875 0l0.171875 -0.578125l0.40625 0q1.21875 0 1.875 -0.390625q0.453125 -0.265625 0.8125 -0.953125q0.375 -0.703125 1.03125 -2.953125l4.390625 -15.046875l-1.265625 0q-1.828125 0 -2.953125 0.46875q-1.109375 0.46875 -1.796875 1.359375q-0.6875 0.890625 -1.125 2.53125l-0.578125 0l1.484375 -5.625zm21.0 20.609375l-0.171875 0.578125l-8.71875 0l0.21875 -0.578125q1.3125 -0.03125 1.734375 -0.21875q0.6875 -0.265625 1.015625 -0.734375q0.515625 -0.734375 1.0625 -2.625l3.6875 -12.78125q0.46875 -1.59375 0.46875 -2.40625q0 -0.40625 -0.203125 -0.6875q-0.203125 -0.28125 -0.625 -0.421875q-0.40625 -0.15625 -1.609375 -0.15625l0.1875 -0.578125l8.1875 0l-0.171875 0.578125q-1.0 -0.015625 -1.484375 0.21875q-0.703125 0.3125 -1.078125 0.890625q-0.359375 0.578125 -0.9375 2.5625l-3.671875 12.78125q-0.5 1.765625 -0.5 2.25q0 0.390625 0.1875 0.671875q0.203125 0.265625 0.625 0.421875q0.4375 0.140625 1.796875 0.234375zm18.53125 -21.09375q2.109375 0 3.734375 0.921875q1.625 0.90625 2.546875 2.703125q0.921875 1.78125 0.921875 3.703125q0 3.40625 -1.984375 7.15625q-1.96875 3.734375 -5.15625 5.703125q-3.1875 1.96875 -6.59375 1.96875q-2.453125 0 -4.109375 -1.078125q-1.640625 -1.09375 -2.4375 -2.875q-0.78125 -1.78125 -0.78125 -3.453125q0 -2.96875 1.421875 -5.859375q1.4375 -2.90625 3.421875 -4.84375q1.984375 -1.953125 4.234375 -3.0q2.25 -1.046875 4.78125 -1.046875zm-0.53125 1.0q-1.5625 0 -3.0625 0.78125q-1.484375 0.765625 -2.953125 2.53125q-1.46875 1.75 -2.640625 4.59375q-1.4375 3.5 -1.4375 6.609375q0 2.21875 1.140625 3.9375q1.140625 1.703125 3.5 1.703125q1.421875 0 2.78125 -0.703125q1.375 -0.703125 2.859375 -2.40625q1.859375 -2.140625 3.125 -5.453125q1.265625 -3.328125 1.265625 -6.203125q0 -2.125 -1.140625 -3.75q-1.140625 -1.640625 -3.4375 -1.640625zm17.046875 -0.515625l6.546875 16.609375l3.546875 -12.40625q0.4375 -1.53125 0.4375 -2.375q0 -0.578125 -0.40625 -0.90625q-0.40625 -0.328125 -1.515625 -0.328125q-0.1875 0 -0.390625 -0.015625l0.171875 -0.578125l6.8125 0l-0.1875 0.578125q-1.0625 -0.015625 -1.578125 0.21875q-0.734375 0.328125 -1.09375 0.84375q-0.5 0.734375 -1.015625 2.5625l-4.984375 17.46875l-0.5625 0l-7.046875 -17.875l-3.765625 13.203125q-0.421875 1.5 -0.421875 2.296875q0 0.59375 0.375 0.90625q0.390625 0.296875 1.828125 0.40625l-0.15625 0.578125l-6.65625 0l0.21875 -0.578125q1.25 -0.03125 1.671875 -0.21875q0.640625 -0.28125 0.953125 -0.734375q0.453125 -0.6875 1.015625 -2.65625l4.203125 -14.734375q-0.609375 -0.9375 -1.3125 -1.28125q-0.6875 -0.359375 -2.15625 -0.40625l0.171875 -0.578125l5.296875 0zm11.84375 24.703125q1.171875 -0.53125 1.90625 -1.34375q0.5625 -0.625 0.5625 -1.203125q0 -0.28125 -0.09375 -0.515625q-0.0625 -0.125 -0.4375 -0.5q-0.375 -0.375 -0.421875 -0.515625q-0.109375 -0.265625 -0.109375 -0.609375q0 -0.671875 0.453125 -1.15625q0.46875 -0.484375 1.09375 -0.484375q0.640625 0 1.125 0.515625q0.5 0.515625 0.5 1.296875q0 1.390625 -1.09375 2.8125q-1.09375 1.421875 -3.171875 2.203125l-0.3125 -0.5zm31.0 -3.515625l-15.703125 0l0.21875 -0.578125q1.25 -0.03125 1.671875 -0.203125q0.65625 -0.28125 0.96875 -0.734375q0.484375 -0.71875 1.03125 -2.59375l3.734375 -12.890625q0.46875 -1.59375 0.46875 -2.34375q0 -0.59375 -0.4375 -0.921875q-0.421875 -0.328125 -1.609375 -0.328125q-0.265625 0 -0.421875 -0.015625l0.1875 -0.578125l8.640625 0l-0.125 0.578125q-1.453125 0 -2.0625 0.28125q-0.609375 0.28125 -1.015625 0.921875q-0.28125 0.421875 -0.921875 2.625l-3.671875 12.671875q-0.421875 1.4375 -0.421875 2.0q0 0.375 0.421875 0.71875q0.265625 0.234375 1.203125 0.234375l2.046875 0q2.234375 0 3.546875 -0.5625q0.96875 -0.421875 1.78125 -1.265625q0.4375 -0.46875 1.546875 -2.328125l0.40625 -0.703125l0.578125 0l-2.0625 6.015625zm9.390625 -15.34375q1.171875 -0.515625 1.90625 -1.34375q0.5625 -0.625 0.5625 -1.1875q0 -0.296875 -0.09375 -0.53125q-0.0625 -0.125 -0.4375 -0.5q-0.375 -0.375 -0.421875 -0.515625q-0.109375 -0.25 -0.109375 -0.609375q0 -0.671875 0.453125 -1.15625q0.46875 -0.484375 1.09375 -0.484375q0.640625 0 1.125 0.515625q0.5 0.515625 0.5 1.296875q0 1.390625 -1.09375 2.8125q-1.09375 1.421875 -3.171875 2.203125l-0.3125 -0.5zm20.875 -6.328125l-1.609375 17.625q-0.125 1.234375 -0.125 1.625q0 0.625 0.234375 0.953125q0.296875 0.453125 0.796875 0.671875q0.515625 0.21875 1.71875 0.21875l-0.171875 0.578125l-8.34375 0l0.171875 -0.578125l0.359375 0q1.015625 0 1.65625 -0.4375q0.453125 -0.296875 0.703125 -0.984375q0.171875 -0.484375 0.328125 -2.28125l0.25 -2.6875l-6.0625 0l-2.15625 2.921875q-0.734375 0.984375 -0.921875 1.421875q-0.1875 0.421875 -0.1875 0.796875q0 0.5 0.40625 0.859375q0.40625 0.359375 1.34375 0.390625l-0.171875 0.578125l-6.265625 0l0.171875 -0.578125q1.15625 -0.046875 2.03125 -0.765625q0.890625 -0.734375 2.640625 -3.109375l12.65625 -17.21875l0.546875 0zm-3.09375 5.203125l-6.140625 8.359375l5.328125 0l0.8125 -8.359375zm15.328125 -4.71875l6.546875 16.609375l3.546875 -12.40625q0.4375 -1.53125 0.4375 -2.375q0 -0.578125 -0.40625 -0.90625q-0.40625 -0.328125 -1.515625 -0.328125q-0.1875 0 -0.390625 -0.015625l0.171875 -0.578125l6.8125 0l-0.1875 0.578125q-1.0625 -0.015625 -1.578125 0.21875q-0.734375 0.328125 -1.09375 0.84375q-0.5 0.734375 -1.015625 2.5625l-4.984375 17.46875l-0.5625 0l-7.046875 -17.875l-3.765625 13.203125q-0.421875 1.5 -0.421875 2.296875q0 0.59375 0.375 0.90625q0.390625 0.296875 1.828125 0.40625l-0.15625 0.578125l-6.65625 0l0.21875 -0.578125q1.25 -0.03125 1.671875 -0.21875q0.640625 -0.28125 0.953125 -0.734375q0.453125 -0.6875 1.015625 -2.65625l4.203125 -14.734375q-0.609375 -0.9375 -1.3125 -1.28125q-0.6875 -0.359375 -2.15625 -0.40625l0.171875 -0.578125l5.296875 0zm16.859375 0l16.09375 0l-1.734375 5.625l-0.59375 0q0.296875 -1.234375 0.296875 -2.203125q0 -1.140625 -0.703125 -1.71875q-0.53125 -0.4375 -2.734375 -0.4375l-1.671875 0l-4.1875 14.59375q-0.796875 2.75 -0.796875 3.390625q0 0.59375 0.5 0.984375q0.5 0.375 1.765625 0.375l0.71875 0l-0.1875 0.578125l-9.21875 0l0.171875 -0.578125l0.40625 0q1.21875 0 1.875 -0.390625q0.453125 -0.265625 0.8125 -0.953125q0.375 -0.703125 1.03125 -2.953125l4.390625 -15.046875l-1.265625 0q-1.828125 0 -2.953125 0.46875q-1.109375 0.46875 -1.796875 1.359375q-0.6875 0.890625 -1.125 2.53125l-0.578125 0l1.484375 -5.625zm21.0 9.453125l9.78125 0l1.546875 -5.234375q0.4375 -1.53125 0.4375 -2.375q0 -0.40625 -0.203125 -0.6875q-0.1875 -0.296875 -0.59375 -0.4375q-0.40625 -0.140625 -1.59375 -0.140625l0.15625 -0.578125l8.53125 0l-0.1875 0.578125q-1.078125 -0.015625 -1.609375 0.21875q-0.75 0.328125 -1.109375 0.84375q-0.515625 0.734375 -1.046875 2.578125l-3.734375 12.796875q-0.46875 1.59375 -0.46875 2.28125q0 0.59375 0.40625 0.90625q0.421875 0.296875 1.984375 0.40625l-0.171875 0.578125l-8.25 0l0.21875 -0.578125q1.21875 -0.03125 1.625 -0.21875q0.625 -0.28125 0.90625 -0.71875q0.40625 -0.609375 1.0 -2.65625l1.90625 -6.484375l-9.828125 0l-1.921875 6.484375q-0.453125 1.5625 -0.453125 2.28125q0 0.59375 0.40625 0.90625q0.40625 0.296875 1.96875 0.40625l-0.125 0.578125l-8.3125 0l0.203125 -0.578125q1.234375 -0.03125 1.640625 -0.21875q0.625 -0.28125 0.921875 -0.71875q0.40625 -0.640625 1.0 -2.65625l3.75 -12.796875q0.453125 -1.5625 0.453125 -2.375q0 -0.40625 -0.203125 -0.6875q-0.1875 -0.296875 -0.609375 -0.4375q-0.40625 -0.140625 -1.609375 -0.140625l0.1875 -0.578125l8.359375 0l-0.171875 0.578125q-1.046875 -0.015625 -1.546875 0.21875q-0.734375 0.3125 -1.078125 0.828125q-0.46875 0.6875 -1.03125 2.59375l-1.53125 5.234375zm30.984375 -9.9375q2.109375 0 3.734375 0.921875q1.625 0.90625 2.546875 2.703125q0.921875 1.78125 0.921875 3.703125q0 3.40625 -1.984375 7.15625q-1.96875 3.734375 -5.15625 5.703125q-3.1875 1.96875 -6.59375 1.96875q-2.453125 0 -4.109375 -1.078125q-1.640625 -1.09375 -2.4375 -2.875q-0.78125 -1.78125 -0.78125 -3.453125q0 -2.96875 1.421875 -5.859375q1.4375 -2.90625 3.421875 -4.84375q1.984375 -1.953125 4.234375 -3.0q2.25 -1.046875 4.78125 -1.046875zm-0.53125 1.0q-1.5625 0 -3.0625 0.78125q-1.484375 0.765625 -2.953125 2.53125q-1.46875 1.75 -2.640625 4.59375q-1.4375 3.5 -1.4375 6.609375q0 2.21875 1.140625 3.9375q1.140625 1.703125 3.5 1.703125q1.421875 0 2.78125 -0.703125q1.375 -0.703125 2.859375 -2.40625q1.859375 -2.140625 3.125 -5.453125q1.265625 -3.328125 1.265625 -6.203125q0 -2.125 -1.140625 -3.75q-1.140625 -1.640625 -3.4375 -1.640625zm22.546875 20.671875l-15.703125 0l0.21875 -0.578125q1.25 -0.03125 1.671875 -0.203125q0.65625 -0.28125 0.96875 -0.734375q0.484375 -0.71875 1.03125 -2.59375l3.734375 -12.890625q0.46875 -1.59375 0.46875 -2.34375q0 -0.59375 -0.4375 -0.921875q-0.421875 -0.328125 -1.609375 -0.328125q-0.265625 0 -0.421875 -0.015625l0.1875 -0.578125l8.640625 0l-0.125 0.578125q-1.453125 0 -2.0625 0.28125q-0.609375 0.28125 -1.015625 0.921875q-0.28125 0.421875 -0.921875 2.625l-3.671875 12.671875q-0.421875 1.4375 -0.421875 2.0q0 0.375 0.421875 0.71875q0.265625 0.234375 1.203125 0.234375l2.046875 0q2.234375 0 3.546875 -0.5625q0.96875 -0.421875 1.78125 -1.265625q0.4375 -0.46875 1.546875 -2.328125l0.40625 -0.703125l0.578125 0l-2.0625 6.015625zm18.890625 -21.671875q2.109375 0 3.734375 0.921875q1.625 0.90625 2.546875 2.703125q0.921875 1.78125 0.921875 3.703125q0 3.40625 -1.984375 7.15625q-1.96875 3.734375 -5.15625 5.703125q-3.1875 1.96875 -6.59375 1.96875q-2.453125 0 -4.109375 -1.078125q-1.640625 -1.09375 -2.4375 -2.875q-0.78125 -1.78125 -0.78125 -3.453125q0 -2.96875 1.421875 -5.859375q1.4375 -2.90625 3.421875 -4.84375q1.984375 -1.953125 4.234375 -3.0q2.25 -1.046875 4.78125 -1.046875zm-0.53125 1.0q-1.5625 0 -3.0625 0.78125q-1.484375 0.765625 -2.953125 2.53125q-1.46875 1.75 -2.640625 4.59375q-1.4375 3.5 -1.4375 6.609375q0 2.21875 1.140625 3.9375q1.140625 1.703125 3.5 1.703125q1.421875 0 2.78125 -0.703125q1.375 -0.703125 2.859375 -2.40625q1.859375 -2.140625 3.125 -5.453125q1.265625 -3.328125 1.265625 -6.203125q0 -2.125 -1.140625 -3.75q-1.140625 -1.640625 -3.4375 -1.640625zm30.90625 -1.0l-1.578125 6.671875l-0.59375 0q0.140625 -1.171875 0.140625 -1.734375q0 -1.53125 -1.359375 -2.703125q-1.34375 -1.1875 -3.71875 -1.1875q-4.859375 0 -7.9375 4.5625q-2.453125 3.609375 -2.453125 8.078125q0 2.96875 1.515625 5.125q1.515625 2.15625 4.671875 2.15625q0.78125 0 1.46875 -0.140625q0.703125 -0.140625 2.109375 -0.625l1.546875 -5.453125q0.328125 -1.125 0.328125 -1.796875q0 -0.5625 -0.40625 -0.859375q-0.65625 -0.453125 -2.125 -0.453125l-0.4375 0l0.171875 -0.609375l8.8125 0l-0.15625 0.609375q-1.203125 0.015625 -1.75 0.28125q-0.546875 0.265625 -0.9375 0.90625q-0.265625 0.421875 -0.859375 2.453125l-1.5625 5.359375q-2.140625 0.921875 -3.453125 1.21875q-1.3125 0.3125 -2.765625 0.3125q-3.34375 0 -5.421875 -1.25q-2.078125 -1.265625 -3.078125 -3.328125q-0.984375 -2.078125 -0.984375 -4.125q0 -2.75 1.15625 -5.21875q1.15625 -2.484375 2.875 -4.1875q1.734375 -1.71875 3.765625 -2.703125q2.796875 -1.359375 5.875 -1.359375q2.265625 0 4.09375 0.75q0.734375 0.296875 1.078125 0.296875q0.390625 0 0.65625 -0.171875q0.28125 -0.1875 0.71875 -0.875l0.59375 0zm7.96875 21.09375l-0.171875 0.578125l-8.71875 0l0.21875 -0.578125q1.3125 -0.03125 1.734375 -0.21875q0.6875 -0.265625 1.015625 -0.734375q0.515625 -0.734375 1.0625 -2.625l3.6875 -12.78125q0.46875 -1.59375 0.46875 -2.40625q0 -0.40625 -0.203125 -0.6875q-0.203125 -0.28125 -0.625 -0.421875q-0.40625 -0.15625 -1.609375 -0.15625l0.1875 -0.578125l8.1875 0l-0.171875 0.578125q-1.0 -0.015625 -1.484375 0.21875q-0.703125 0.3125 -1.078125 0.890625q-0.359375 0.578125 -0.9375 2.5625l-3.671875 12.78125q-0.5 1.765625 -0.5 2.25q0 0.390625 0.1875 0.671875q0.203125 0.265625 0.625 0.421875q0.4375 0.140625 1.796875 0.234375zm13.125 -19.46875l-2.421875 8.375l1.984375 0q2.125 0 3.078125 -0.640625q0.953125 -0.65625 1.640625 -2.40625l0.578125 0l-2.171875 7.6875l-0.625 0q0.28125 -0.96875 0.28125 -1.65625q0 -0.671875 -0.28125 -1.078125q-0.265625 -0.40625 -0.75 -0.59375q-0.46875 -0.203125 -2.0 -0.203125l-2.015625 0l-2.046875 7.015625q-0.296875 1.015625 -0.296875 1.546875q0 0.40625 0.390625 0.71875q0.265625 0.21875 1.328125 0.21875l1.875 0q3.046875 0 4.875 -1.078125q1.84375 -1.078125 3.296875 -3.75l0.578125 0l-2.0 5.890625l-16.375 0l0.203125 -0.578125q1.21875 -0.03125 1.640625 -0.21875q0.625 -0.28125 0.90625 -0.71875q0.421875 -0.640625 1.0 -2.6875l3.71875 -12.78125q0.4375 -1.546875 0.4375 -2.359375q0 -0.59375 -0.421875 -0.921875q-0.40625 -0.34375 -1.609375 -0.34375l-0.328125 0l0.1875 -0.578125l15.21875 0l-1.3125 5.109375l-0.578125 0q0.109375 -0.71875 0.109375 -1.203125q0 -0.828125 -0.40625 -1.390625q-0.53125 -0.71875 -1.546875 -1.09375q-0.75 -0.28125 -3.453125 -0.28125l-2.6875 0z" fill-rule="nonzero"/><path fill="#000000" fill-opacity="0.0" d="m24.341558 174.79721l743.1181 0" fill-rule="evenodd"/><path stroke="#000000" stroke-width="3.0" stroke-linejoin="round" stroke-linecap="butt" d="m41.226387 174.79723l709.34845 0" fill-rule="evenodd"/><path fill="#000000" stroke="#000000" stroke-width="3.0" stroke-linecap="butt" d="m41.226387 174.79723l-7.1348305 -4.995865l-7.1348286 4.995865l7.1348286 4.995865z" fill-rule="evenodd"/><path fill="#000000" stroke="#000000" stroke-width="3.0" stroke-linecap="butt" d="m750.5748 174.79723l7.1348267 4.995865l7.1348267 -4.995865l-7.1348267 -4.995865z" fill-rule="evenodd"/><path fill="#000000" fill-opacity="0.0" d="m226.75514 57.29134l540.378 0" fill-rule="evenodd"/><path stroke="#000000" stroke-width="3.0" stroke-linejoin="round" stroke-linecap="butt" d="m243.63995 57.29134l506.60834 0" fill-rule="evenodd"/><path fill="#000000" stroke="#000000" stroke-width="3.0" stroke-linecap="butt" d="m243.63995 57.29134l-7.1348267 -4.995861l-7.1348267 4.995861l7.1348267 4.995861z" fill-rule="evenodd"/><path fill="#000000" stroke="#000000" stroke-width="3.0" stroke-linecap="butt" d="m750.2483 57.29134l7.1348267 4.995861l7.1348267 -4.995861l-7.1348267 -4.995861z" fill-rule="evenodd"/><path fill="#000000" fill-opacity="0.0" d="m624.0525 67.90408l125.57483 0l0 95.65355l-125.57483 0z" fill-rule="evenodd"/><path fill="#000000" d="m650.8223 97.5996l-8.203125 0l-1.640625 2.03125l-1.875 2.234375q-0.546875 0.734375 -0.8125 1.3125q-0.1875 0.453125 -0.1875 0.90625q0 0.46875 0.5 0.875q0.5 0.390625 1.640625 0.453125l0 0.71875l-7.90625 0l0.1875 -0.71875q1.0625 -0.1875 1.875 -0.75q1.109375 -0.78125 3.15625 -3.21875l18.765625 -22.40625l0.875 0l-0.875 21.6875q-0.0625 1.6875 -0.0625 2.046875q0 1.328125 0.53125 1.9375q0.546875 0.59375 1.796875 0.703125l-0.1875 0.71875l-11.46875 0l0.21875 -0.71875q1.6875 -0.15625 1.953125 -0.28125q0.546875 -0.265625 0.984375 -1.140625q0.453125 -0.875 0.546875 -3.015625l0.1875 -3.375zm0 -1.609375l0.5 -8.625l-7.359375 8.625l6.859375 0zm39.289062 -16.953125l-1.953125 8.421875l-0.765625 0q-0.125 -3.4375 -1.6875 -5.125q-1.546875 -1.6875 -4.046875 -1.6875q-2.703125 0 -5.375 2.3125q-2.671875 2.296875 -4.53125 7.03125q-1.5 3.859375 -1.5 7.609375q0 3.359375 1.640625 5.125q1.65625 1.765625 4.53125 1.765625q2.328125 0 4.234375 -1.015625q1.921875 -1.015625 3.875 -3.296875l0.9375 0q-2.421875 3.625 -4.90625 5.09375q-2.46875 1.46875 -6.03125 1.46875q-4.796875 0 -7.71875 -2.90625q-2.90625 -2.90625 -2.90625 -7.5625q0 -4.375 2.3125 -8.34375q2.328125 -3.984375 6.6875 -6.4375q4.375 -2.453125 8.6875 -2.453125q1.640625 0 4.078125 0.703125q1.25 0.359375 1.75 0.359375q0.96875 0 1.96875 -1.0625l0.71875 0zm4.2578125 0.609375l21.3125 0l-2.015625 7.125l-0.703125 0q0.046875 -0.5625 0.046875 -1.0q0 -2.03125 -1.203125 -3.140625q-1.1875 -1.125 -4.015625 -1.28125l-5.90625 19.9375q-0.484375 1.65625 -0.484375 2.453125q0 0.75 0.609375 1.1875q0.609375 0.4375 2.453125 0.484375l-0.171875 0.71875l-13.140625 0l0.234375 -0.71875q2.015625 0 2.921875 -0.75q0.921875 -0.765625 1.6875 -3.375l5.890625 -19.9375q-3.046875 0.09375 -5.09375 1.328125q-2.046875 1.21875 -3.75 4.09375l-0.765625 0l2.09375 -7.125zm33.152344 1.46875l-2.953125 10.265625l0.890625 0q3.5625 0 5.1875 -0.9375q1.640625 -0.9375 2.765625 -3.3125l0.71875 0l-2.96875 10.3125l-0.671875 0q0.171875 -1.046875 0.171875 -1.6875q0 -1.078125 -0.640625 -1.75q-0.625 -0.6875 -1.640625 -0.984375q-0.671875 -0.1875 -2.765625 -0.1875l-1.515625 0l-2.546875 8.875q-0.328125 1.171875 -0.328125 1.75q0 0.4375 0.4375 0.71875q0.625 0.390625 2.359375 0.390625q3.34375 0 6.28125 -1.40625q2.953125 -1.421875 5.296875 -4.296875l0.796875 0l-2.75 7.265625l-22.65625 0l0.234375 -0.71875q2.0 0 2.90625 -0.75q0.921875 -0.765625 1.671875 -3.3125l4.96875 -17.0625q0.421875 -1.421875 0.421875 -2.234375q0 -0.75 -0.53125 -1.140625q-0.53125 -0.40625 -2.40625 -0.546875l0.21875 -0.71875l21.109375 0l-1.703125 6.625l-0.703125 0q-0.078125 -1.953125 -0.59375 -2.765625q-0.828125 -1.25 -2.1875 -1.8125q-1.359375 -0.578125 -4.40625 -0.578125l-2.46875 0z" fill-rule="nonzero"/><path fill="#000000" d="m666.42975 140.28711l1.109375 0q-0.109375 3.09375 -1.609375 4.703125q-1.5 1.59375 -3.640625 1.59375q-1.03125 0 -2.203125 -0.328125q-1.15625 -0.328125 -5.125 -1.984375q-2.84375 -1.203125 -4.125 -1.203125q-1.328125 0 -2.21875 0.8125q-0.875 0.8125 -1.21875 2.6875l-1.125 0q0.15625 -3.203125 1.59375 -4.75q1.4375 -1.5625 3.484375 -1.5625q1.03125 0 2.03125 0.28125q1.96875 0.5625 5.453125 2.046875q1.875 0.828125 2.859375 1.09375q0.59375 0.15625 1.28125 0.15625q1.375 0 2.328125 -0.90625q0.953125 -0.921875 1.125 -2.640625zm26.972656 13.84375l-15.578125 0l0 -0.4375q7.15625 -8.53125 8.6875 -11.46875q1.546875 -2.953125 1.546875 -5.765625q0 -2.0625 -1.28125 -3.40625q-1.265625 -1.359375 -3.09375 -1.359375q-3.015625 0 -4.671875 3.0l-0.71875 -0.25q1.046875 -3.75 3.1875 -5.546875q2.15625 -1.7968826 4.96875 -1.7968826q2.015625 0 3.671875 0.9375076q1.65625 0.9375 2.59375 2.578125q0.9375 1.625 0.9375 3.046875q0 2.59375 -1.4375 5.265625q-1.96875 3.625 -8.609375 10.078125l5.71875 0q2.109375 0 2.734375 -0.171875q0.640625 -0.171875 1.046875 -0.59375q0.421875 -0.421875 1.078125 -1.765625l0.703125 0l-1.484375 7.65625zm33.828125 -13.84375l1.109375 0q-0.109375 3.09375 -1.609375 4.703125q-1.5 1.59375 -3.640625 1.59375q-1.03125 0 -2.203125 -0.328125q-1.15625 -0.328125 -5.125 -1.984375q-2.84375 -1.203125 -4.125 -1.203125q-1.328125 0 -2.21875 0.8125q-0.875 0.8125 -1.21875 2.6875l-1.125 0q0.15625 -3.203125 1.59375 -4.75q1.4375 -1.5625 3.484375 -1.5625q1.03125 0 2.03125 0.28125q1.96875 0.5625 5.453125 2.046875q1.875 0.828125 2.859375 1.09375q0.59375 0.15625 1.28125 0.15625q1.375 0 2.328125 -0.90625q0.953125 -0.921875 1.125 -2.640625z" fill-rule="nonzero"/><path fill="#000000" fill-opacity="0.0" d="m415.13986 -60.81069l435.65353 0l0 249.88977l-435.65353 0z" fill-rule="evenodd"/><path fill="#000000" d="m468.51486 134.36969l-24.953125 0l-2.96875 6.875q-1.453125 3.4375 -1.453125 5.6875q0 2.96875 2.390625 4.375q1.40625 0.828125 6.9375 1.25l0 1.921875l-23.5 0l0 -1.921875q3.8125 -0.578125 6.25 -3.15625q2.453125 -2.578125 6.046875 -10.65625l25.25 -56.343742l1.0 0l25.46875 57.906242q3.640625 8.234375 5.984375 10.375q1.765625 1.609375 5.0 1.875l0 1.921875l-34.171875 0l0 -1.921875l1.40625 0q4.125 0 5.78125 -1.15625q1.15625 -0.828125 1.15625 -2.390625q0 -0.9375 -0.3125 -1.921875q-0.109375 -0.46875 -1.5625 -3.90625l-3.75 -8.8125zm-1.78125 -3.84375l-10.515625 -24.328117l-10.828125 24.328117l21.34375 0zm73.49246 22.03125l0 1.921875l-36.921844 0l0 -1.921875l2.34375 0q3.0625 0 4.9375 -1.09375q1.359375 -0.734375 2.0937195 -2.5q0.5625 -1.25 0.5625 -6.5625l0 -46.453117q0 -5.421875 -0.578125 -6.765625q-0.5625 -1.359375 -2.3124695 -2.375q-1.734375 -1.015625 -4.703125 -1.015625l-2.34375 0l0 -1.9375l36.921844 0l0 1.9375l-2.34375 0q-3.078125 0 -4.953125 1.09375q-1.359375 0.71875 -2.140625 2.5q-0.5625 1.25 -0.5625 6.5625l0 46.453117q0 5.40625 0.59375 6.765625q0.59375 1.359375 2.34375 2.375q1.75 1.015625 4.71875 1.015625l2.34375 0zm52.53766 -70.31249l0.578125 23.546875l-2.140625 0q-1.5 -8.859375 -7.421875 -14.25q-5.90625 -5.390625 -12.78125 -5.390625q-5.3125 0 -8.40625 2.84375q-3.09375 2.828125 -3.09375 6.53125q0 2.34375 1.09375 4.171875q1.5 2.4375 4.84375 4.84375q2.4375 1.71875 11.296875 6.09375q12.390625 6.09375 16.71875 11.5q4.265625 5.421875 4.265625 12.390617q0 8.859375 -6.90625 15.25q-6.890625 6.375 -17.515625 6.375q-3.34375 0 -6.3125 -0.6875q-2.953125 -0.671875 -7.4375 -2.546875q-2.5 -1.046875 -4.109375 -1.046875q-1.359375 0 -2.875 1.046875q-1.5 1.046875 -2.4375 3.171875l-1.9375 0l0 -26.65625l1.9375 0q2.28125 11.25 8.8125 17.15625q6.546875 5.90625 14.09375 5.90625q5.828125 0 9.296875 -3.171875q3.46875 -3.171875 3.46875 -7.390625q0 -2.5 -1.328125 -4.84375q-1.328125 -2.34375 -4.046875 -4.453125q-2.703125 -2.109375 -9.578125 -5.4999924q-9.625 -4.734375 -13.84375 -8.0625q-4.21875 -3.34375 -6.484375 -7.453125q-2.265625 -4.109375 -2.265625 -9.0625q0 -8.4375 6.1875 -14.375q6.203125 -5.9375 15.625 -5.9375q3.4375 0 6.671875 0.828125q2.4375 0.625 5.953125 2.328125q3.515625 1.6875 4.921875 1.6875q1.359375 0 2.140625 -0.828125q0.78125 -0.84375 1.453125 -4.015625l1.5625 0z" fill-rule="nonzero"/></g></svg>