<svg version="1.1" viewBox="0.0 0.0 800.0 200.0" fill="none" stroke="none" stroke-linecap="square" stroke-miterlimit="10" xmlns:xlink="http://www.w3.org/1999/xlink" xmlns="http://www.w3.org/2000/svg"><clipPath id="p.0"><path d="m0 0l800.0 0l0 200.0l-800.0 0l0 -200.0z" clip-rule="nonzero"/></clipPath><g clip-path="url(#p.0)"><path fill="#000000" fill-opacity="0.0" d="m0 0l800.0 0l0 200.0l-800.0 0z" fill-rule="evenodd"/><path fill="#000000" fill-opacity="0.0" d="m24.199474 -39.989502l775.81104 0l0 249.88977l-775.81104 0z" fill-rule="evenodd"/><path fill="#000000" d="m106.3401 17.447144q25.78125 0 44.671875 19.578125q18.90625 19.578125 18.90625 48.875q0 30.1875 -19.046875 50.109375q-19.03125 19.921875 -46.09375 19.921875q-27.34375 0 -45.95313 -19.4375q-18.59375 -19.4375 -18.59375 -50.296875q0 -31.546875 21.484375 -51.46875q18.656254 -17.28125 44.625004 -17.28125zm-1.84375 7.125q-17.78125 0 -28.515625 13.1875q-13.390629 16.40625 -13.390629 48.046875q0 32.421875 13.875004 49.90625q10.640625 13.28125 28.125 13.28125q18.65625 0 30.8125 -14.546875q12.15625 -14.5625 12.15625 -45.90625q0 -33.984375 -13.375 -50.6875q-10.75 -13.28125 -29.6875 -13.28125z" fill-rule="nonzero"/><path fill="#000000" d="m204.19557 82.27527l34.84375 43.8125l0 -30.375q0 -6.34375 -1.828125 -8.59375q-2.5 -3.015625 -8.390625 -2.90625l0 -1.9375l23.34375 0l0 1.9375q-4.484375 0.5625 -6.03125 1.484375q-1.53125 0.90625 -2.390625 2.96875q-0.859375 2.046875 -0.859375 7.046875l0 58.796875l-1.765625 0l-47.75 -58.796875l0 44.890625q0 6.09375 2.78125 8.234375q2.78125 2.140625 6.375 2.140625l1.671875 0l0 1.921875l-25.046875 0l0 -1.921875q5.828125 -0.0625 8.109375 -2.40625q2.296875 -2.34375 2.296875 -7.96875l0 -49.828125l-1.5 -1.875q-2.25 -2.8125 -3.96875 -3.703125q-1.71875 -0.890625 -4.9375 -0.984375l0 -1.9375l25.046875 0zm51.867477 70.625l0 -1.921875l2.34375 0q3.078125 0 4.71875 -0.96875q1.640625 -0.96875 2.421875 -2.625q0.46875 -1.09375 0.46875 -6.5625l0 -46.453125q0 -5.421875 -0.578125 -6.765625q-0.578125 -1.359375 -2.328125 -2.375q-1.734375 -1.015625 -4.703125 -1.015625l-2.34375 0l0 -1.9375l31.609375 0q12.65625 0 20.359375 3.4375q9.4375 4.21875 14.296875 12.765625q4.875 8.546875 4.875 19.328125q0 7.4375 -2.40625 13.71875q-2.390625 6.265625 -6.1875 10.359375q-3.796875 4.09375 -8.78125 6.5625q-4.96875 2.46875 -12.15625 3.828125q-3.171875 0.625 -10.0 0.625l-31.609375 0zm26.921875 -66.609375l0 55.09375q0 4.375 0.40625 5.375q0.421875 0.984375 1.421875 1.5q1.40625 0.78125 4.0625 0.78125q8.6875 0 13.28125 -5.9375q6.25 -8.015625 6.25 -24.890625q0 -13.59375 -4.28125 -21.71875q-3.375 -6.34375 -8.6875 -8.640625q-3.75 -1.609375 -12.453125 -1.5625zm116.03934 41.8125l-2.65625 24.796875l-62.703125 0l0 -1.921875l2.34375 0q3.0625 0 4.9375 -1.09375q1.359375 -0.734375 2.09375 -2.5q0.5625 -1.25 0.5625 -6.5625l0 -46.453125q0 -5.421875 -0.578125 -6.765625q-0.5625 -1.359375 -2.3125 -2.375q-1.734375 -1.015625 -4.703125 -1.015625l-2.34375 0l0 -1.9375l37.640625 0l0 1.9375l-3.0625 0q-3.078125 0 -4.953125 1.09375q-1.359375 0.71875 -2.140625 2.5q-0.5625 1.25 -0.5625 6.5625l0 44.984375q0 5.421875 0.625 6.90625q0.625 1.484375 2.4375 2.21875q1.3125 0.46875 6.3125 0.46875l5.875 0q5.625 0 9.375 -1.984375q3.75 -1.984375 6.484375 -6.25q2.734375 -4.265625 5.1875 -12.609375l2.140625 0zm42.857635 22.875l0 1.921875l-36.921875 0l0 -1.921875l2.34375 0q3.0625 0 4.9375 -1.09375q1.359375 -0.734375 2.09375 -2.5q0.5625 -1.25 0.5625 -6.5625l0 -46.453125q0 -5.421875 -0.578125 -6.765625q-0.5625 -1.359375 -2.3125 -2.375q-1.734375 -1.015625 -4.703125 -1.015625l-2.34375 0l0 -1.9375l36.921875 0l0 1.9375l-2.34375 0q-3.078125 0 -4.953125 1.09375q-1.359375 0.71875 -2.140625 2.5q-0.5625 1.25 -0.5625 6.5625l0 46.453125q0 5.40625 0.59375 6.765625q0.59375 1.359375 2.34375 2.375q1.75 1.015625 4.71875 1.015625l2.34375 0zm31.240723 -30.046875l0 19.578125q0 5.71875 0.703125 7.203125q0.703125 1.484375 2.5 2.375q1.796875 0.890625 6.59375 0.890625l0 1.921875l-35.890625 0l0 -1.921875q4.90625 0 6.640625 -0.90625q1.75 -0.921875 2.453125 -2.375q0.703125 -1.46875 0.703125 -7.1875l0 -45.828125q0 -5.734375 -0.703125 -7.21875q-0.703125 -1.484375 -2.484375 -2.359375q-1.765625 -0.890625 -6.609375 -0.890625l0 -1.9375l30.78125 0q15.203125 0 21.8125 5.421875q6.625 5.421875 6.625 13.546875q0 6.875 -4.28125 11.765625q-4.265625 4.890625 -11.765625 6.671875q-5.046875 1.25 -17.078125 1.25zm0 -34.59375l0 30.53125q1.71875 0.09375 2.609375 0.09375q6.34375 0 9.78125 -3.765625q3.4375 -3.78125 3.4375 -11.703125q0 -7.859375 -3.4375 -11.5q-3.4375 -3.65625 -10.25 -3.65625l-2.140625 0zm65.1499 34.59375l0 19.578125q0 5.71875 0.703125 7.203125q0.703125 1.484375 2.5 2.375q1.796875 0.890625 6.59375 0.890625l0 1.921875l-35.890625 0l0 -1.921875q4.90625 0 6.640625 -0.90625q1.75 -0.921875 2.453125 -2.375q0.703125 -1.46875 0.703125 -7.1875l0 -45.828125q0 -5.734375 -0.703125 -7.21875q-0.703125 -1.484375 -2.484375 -2.359375q-1.765625 -0.890625 -6.609375 -0.890625l0 -1.9375l30.78125 0q15.203125 0 21.8125 5.421875q6.625 5.421875 6.625 13.546875q0 6.875 -4.28125 11.765625q-4.265625 4.890625 -11.765625 6.671875q-5.046875 1.25 -17.078125 1.25zm0 -34.59375l0 30.53125q1.71875 0.09375 2.609375 0.09375q6.34375 0 9.78125 -3.765625q3.4375 -3.78125 3.4375 -11.703125q0 -7.859375 -3.4375 -11.5q-3.4375 -3.65625 -10.25 -3.65625l-2.140625 0zm65.41553 0l0 28.75l1.40625 0q6.71875 0 9.734375 -4.21875q3.015625 -4.21875 3.859375 -12.4375l1.96875 0l0 36.96875l-1.96875 0q-0.625 -6.046875 -2.640625 -9.890625q-2.0 -3.859375 -4.65625 -5.1875q-2.65625 -1.328125 -7.703125 -1.328125l0 19.890625q0 5.84375 0.484375 7.140625q0.5 1.296875 1.84375 2.140625q1.359375 0.828125 4.390625 0.828125l4.21875 0q9.890625 0 15.84375 -4.578125q5.96875 -4.59375 8.578125 -13.96875l1.921875 0l-3.171875 22.453125l-61.03125 0l0 -1.921875l2.34375 0q3.0625 0 4.9375 -1.09375q1.359375 -0.734375 2.09375 -2.5q0.5625 -1.25 0.5625 -6.5625l0 -46.453125q0 -4.796875 -0.25 -5.890625q-0.53125 -1.828125 -1.9375 -2.8125q-1.96875 -1.453125 -5.40625 -1.453125l-2.34375 0l0 -1.9375l59.109375 0l0 20.890625l-1.984375 0q-1.515625 -7.65625 -4.25 -10.984375q-2.734375 -3.34375 -7.734375 -4.90625q-2.90625 -0.9375 -10.9375 -0.9375l-7.28125 0z" fill-rule="nonzero"/><path fill="#000000" fill-opacity="0.0" d="m189.6693 -0.6771653l610.3307 0l0 51.937008l-610.3307 0z" fill-rule="evenodd"/><path fill="#000000" d="m213.34117 39.042835l-15.703125 0l0.21875 -0.578125q1.25 -0.03125 1.671875 -0.203125q0.65625 -0.28125 0.96875 -0.734375q0.484375 -0.71875 1.03125 -2.59375l3.734375 -12.890625q0.46875 -1.59375 0.46875 -2.34375q0 -0.59375 -0.4375 -0.921875q-0.421875 -0.328125 -1.609375 -0.328125q-0.265625 0 -0.421875 -0.015625l0.1875 -0.578125l8.640625 0l-0.125 0.578125q-1.453125 0 -2.0625 0.28125q-0.609375 0.28125 -1.015625 0.921875q-0.28125 0.421875 -0.921875 2.625l-3.671875 12.671875q-0.421875 1.4375 -0.421875 2.0q0 0.375 0.421875 0.71875q0.265625 0.234375 1.203125 0.234375l2.046875 0q2.234375 0 3.546875 -0.5625q0.96875 -0.421875 1.78125 -1.265625q0.4375 -0.46875 1.546875 -2.328125l0.40625 -0.703125l0.578125 0l-2.0625 6.015625zm13.484375 -20.046875l-2.421875 8.375l1.984375 0q2.125 0 3.078125 -0.640625q0.953125 -0.65625 1.640625 -2.40625l0.578125 0l-2.171875 7.6875l-0.625 0q0.28125 -0.96875 0.28125 -1.65625q0 -0.671875 -0.28125 -1.078125q-0.265625 -0.40625 -0.75 -0.59375q-0.46875 -0.203125 -2.0 -0.203125l-2.015625 0l-2.046875 7.015625q-0.296875 1.015625 -0.296875 1.546875q0 0.40625 0.390625 0.71875q0.265625 0.21875 1.328125 0.21875l1.875 0q3.046875 0 4.875 -1.078125q1.84375 -1.078125 3.296875 -3.75l0.578125 0l-2.0 5.890625l-16.375 0l0.203125 -0.578125q1.21875 -0.03125 1.640625 -0.21875q0.625 -0.28125 0.90625 -0.71875q0.421875 -0.640625 1.0 -2.6875l3.71875 -12.78125q0.4375 -1.546875 0.4375 -2.359375q0 -0.59375 -0.421875 -0.921875q-0.40625 -0.34375 -1.609375 -0.34375l-0.328125 0l0.1875 -0.578125l15.21875 0l-1.3125 5.109375l-0.578125 0q0.109375 -0.71875 0.109375 -1.203125q0 -0.828125 -0.40625 -1.390625q-0.53125 -0.71875 -1.546875 -1.09375q-0.75 -0.28125 -3.453125 -0.28125l-2.6875 0zm21.375 -1.140625l8.95311 0l-0.171875 0.578125q-1.3749847 0.03125 -1.9687347 0.265625q-0.578125 0.21875 -1.0 0.796875q-0.40625 0.578125 -0.859375 2.140625l-2.171875 7.5q-0.578125 2.0 -0.6875 2.625q-0.1875 1.0 -0.1875 1.859375q0 1.890625 1.40625 3.203125q1.40625 1.296875 3.765625 1.296875q1.5468597 0 2.7656097 -0.578125q1.21875 -0.59375 2.078125 -1.640625q0.875 -1.0625 1.59375 -2.859375q0.71875 -1.8125 1.265625 -3.65625l1.875 -6.46875q0.703125 -2.421875 0.703125 -3.15625q0 -0.515625 -0.484375 -0.875q-0.46875 -0.375 -1.921875 -0.453125l0.171875 -0.578125l6.734375 0l-0.171875 0.578125q-1.1875 0 -1.71875 0.234375q-0.515625 0.21875 -0.90625 0.8125q-0.390625 0.578125 -0.875 2.265625l-2.296875 7.859375q-1.109375 3.828125 -2.09375 5.65625q-0.984375 1.8125 -2.859375 3.046875q-1.859375 1.21875 -4.6249847 1.21875q-3.1875 0 -5.140625 -1.796875q-1.953125 -1.8125 -1.953125 -4.140625q0 -0.921875 0.171875 -1.96875q0.125 -0.6875 0.609375 -2.375l2.09375 -7.203125q0.4375 -1.5625 0.4375 -2.296875q0 -0.578125 -0.453125 -0.890625q-0.4375 -0.328125 -2.234375 -0.421875l0.15625 -0.578125zm28.093735 0l6.546875 16.609375l3.546875 -12.40625q0.4375 -1.53125 0.4375 -2.375q0 -0.578125 -0.40625 -0.90625q-0.40625 -0.328125 -1.515625 -0.328125q-0.1875 0 -0.390625 -0.015625l0.171875 -0.578125l6.8125 0l-0.1875 0.578125q-1.0625 -0.015625 -1.578125 0.21875q-0.734375 0.328125 -1.09375 0.84375q-0.5 0.734375 -1.015625 2.5625l-4.984375 17.46875l-0.5625 0l-7.046875 -17.875l-3.765625 13.203125q-0.421875 1.5 -0.421875 2.296875q0 0.59375 0.375 0.90625q0.390625 0.296875 1.828125 0.40625l-0.15625 0.578125l-6.65625 0l0.21875 -0.578125q1.25 -0.03125 1.671875 -0.21875q0.640625 -0.28125 0.953125 -0.734375q0.453125 -0.6875 1.015625 -2.65625l4.203125 -14.734375q-0.609375 -0.9375 -1.3125 -1.28125q-0.6875 -0.359375 -2.15625 -0.40625l0.171875 -0.578125l5.296875 0zm20.0625 20.609375l-0.171875 0.578125l-8.71875 0l0.21875 -0.578125q1.3125 -0.03125 1.734375 -0.21875q0.6875 -0.265625 1.015625 -0.734375q0.515625 -0.734375 1.0625 -2.625l3.6875 -12.78125q0.46875 -1.59375 0.46875 -2.40625q0 -0.40625 -0.203125 -0.6875q-0.203125 -0.28125 -0.625 -0.421875q-0.40625 -0.15625 -1.609375 -0.15625l0.1875 -0.578125l8.1875 0l-0.171875 0.578125q-1.0 -0.015625 -1.484375 0.21875q-0.703125 0.3125 -1.078125 0.890625q-0.359375 0.578125 -0.9375 2.5625l-3.671875 12.78125q-0.5 1.765625 -0.5 2.25q0 0.390625 0.1875 0.671875q0.203125 0.265625 0.625 0.421875q0.4375 0.140625 1.796875 0.234375zm7.625 1.0625l1.75 -17.640625q0.125 -1.34375 0.125 -1.8125q0 -0.703125 -0.53125 -1.171875q-0.515625 -0.46875 -1.640625 -0.46875l-0.5625 0l0.15625 -0.578125l8.359375 0l-0.171875 0.578125q-1.359375 0.015625 -1.875 0.28125q-0.5 0.265625 -0.796875 0.90625q-0.15625 0.34375 -0.328125 1.953125l-1.25 12.640625l8.265625 -11.28125q1.34375 -1.828125 1.6875 -2.546875q0.234375 -0.484375 0.234375 -0.84375q0 -0.421875 -0.359375 -0.734375q-0.359375 -0.3125 -1.34375 -0.375l0.1875 -0.578125l6.375 0l-0.15625 0.578125q-0.765625 0.0625 -1.21875 0.296875q-0.859375 0.40625 -1.71875 1.234375q-0.84375 0.828125 -2.6875 3.34375l-11.9375 16.21875l-0.5625 0zm25.046875 -20.53125l-2.421875 8.375l1.984375 0q2.125 0 3.078125 -0.640625q0.953125 -0.65625 1.640625 -2.40625l0.578125 0l-2.171875 7.6875l-0.625 0q0.28125 -0.96875 0.28125 -1.65625q0 -0.671875 -0.28125 -1.078125q-0.265625 -0.40625 -0.75 -0.59375q-0.46875 -0.203125 -2.0 -0.203125l-2.015625 0l-2.046875 7.015625q-0.296875 1.015625 -0.296875 1.546875q0 0.40625 0.390625 0.71875q0.265625 0.21875 1.328125 0.21875l1.875 0q3.046875 0 4.875 -1.078125q1.84375 -1.078125 3.296875 -3.75l0.578125 0l-2.0 5.890625l-16.375 0l0.203125 -0.578125q1.21875 -0.03125 1.640625 -0.21875q0.625 -0.28125 0.90625 -0.71875q0.421875 -0.640625 1.0 -2.6875l3.71875 -12.78125q0.4375 -1.546875 0.4375 -2.359375q0 -0.59375 -0.421875 -0.921875q-0.40625 -0.34375 -1.609375 -0.34375l-0.328125 0l0.1875 -0.578125l15.21875 0l-1.3125 5.109375l-0.578125 0q0.109375 -0.71875 0.109375 -1.203125q0 -0.828125 -0.40625 -1.390625q-0.53125 -0.71875 -1.546875 -1.09375q-0.75 -0.28125 -3.453125 -0.28125l-2.6875 0zm22.484375 20.046875l-3.390625 -10.296875q-1.1875 0.015625 -2.4375 -0.234375l-1.828125 6.40625q-0.359375 1.25 -0.359375 2.109375q0 0.65625 0.453125 1.03125q0.34375 0.28125 1.875 0.40625l-0.140625 0.578125l-8.203125 0l0.171875 -0.578125q1.15625 -0.046875 1.5625 -0.234375q0.640625 -0.265625 0.9375 -0.71875q0.5 -0.734375 1.046875 -2.59375l3.703125 -12.796875q0.375 -1.28125 0.375 -1.984375q0 -0.71875 -0.59375 -1.21875q-0.578125 -0.5 -1.671875 -0.484375l0.1875 -0.578125l6.90625 0q3.46875 0 5.0 1.3125q1.53125 1.3125 1.53125 3.453125q0 2.046875 -1.578125 3.75q-1.5625 1.6875 -4.296875 2.140625l2.0625 6.203125q0.75 2.28125 1.5 2.96875q0.75 0.6875 2.421875 0.78125l-0.171875 0.578125l-5.0625 0zm-5.5625 -11.421875q1.0 0.140625 1.78125 0.140625q2.6875 0 4.25 -1.484375q1.5625 -1.5 1.5625 -3.71875q0 -1.734375 -0.984375 -2.65625q-0.96875 -0.921875 -2.921875 -0.921875q-0.5 0 -1.1875 0.125l-2.5 8.515625zm12.03125 11.90625l1.75 -7.859375l0.53125 0q-0.109375 1.140625 -0.109375 1.890625q0 2.140625 1.359375 3.484375q1.375 1.34375 3.578125 1.34375q2.046875 0 3.109375 -1.25q1.0625 -1.265625 1.0625 -2.90625q0 -1.0625 -0.484375 -1.9375q-0.734375 -1.296875 -3.921875 -4.5625q-1.546875 -1.5625 -1.984375 -2.328125q-0.71875 -1.265625 -0.71875 -2.65625q0 -2.21875 1.65625 -3.796875q1.65625 -1.578125 4.25 -1.578125q0.875 0 1.65625 0.171875q0.484375 0.09375 1.765625 0.625q0.90625 0.359375 1.0 0.390625q0.21875 0.046875 0.484375 0.046875q0.453125 0 0.78125 -0.234375q0.328125 -0.234375 0.765625 -1.0l0.59375 0l-1.625 7.03125l-0.53125 0q0.0625 -0.9375 0.0625 -1.515625q0 -1.890625 -1.25 -3.09375q-1.25 -1.203125 -3.296875 -1.203125q-1.625 0 -2.640625 0.953125q-1.015625 0.953125 -1.015625 2.203125q0 1.09375 0.640625 2.09375q0.65625 0.984375 2.984375 3.234375q2.34375 2.234375 3.03125 3.5q0.6875 1.25 0.6875 2.671875q0 1.609375 -0.859375 3.125q-0.84375 1.5 -2.4375 2.328125q-1.59375 0.828125 -3.484375 0.828125q-0.9375 0 -1.75 -0.171875q-0.8125 -0.171875 -2.59375 -0.84375q-0.609375 -0.234375 -1.015625 -0.234375q-0.921875 0 -1.4375 1.25l-0.59375 0zm28.78125 -21.671875l8.34375 0q3.28125 0 4.90625 1.421875q1.625 1.40625 1.625 3.4375q0 1.609375 -1.03125 3.125q-1.03125 1.515625 -3.0625 2.46875q-2.03125 0.9375 -4.390625 0.9375q-1.46875 0 -3.734375 -0.53125l-1.6875 5.78125q-0.59375 2.0625 -0.59375 2.71875q0 0.5 0.421875 0.828125q0.421875 0.328125 2.015625 0.421875l-0.15625 0.578125l-8.421875 0l0.171875 -0.578125q1.65625 0 2.296875 -0.5625q0.65625 -0.578125 1.40625 -3.15625l3.5 -12.0625q0.625 -2.171875 0.625 -2.90625q0 -0.546875 -0.453125 -0.90625q-0.4375 -0.359375 -1.953125 -0.4375l0.171875 -0.578125zm2.921875 9.875q1.765625 0.453125 2.84375 0.453125q1.703125 0 3.09375 -0.703125q1.40625 -0.703125 2.1875 -2.109375q0.796875 -1.40625 0.796875 -2.921875q0 -1.578125 -0.96875 -2.5q-0.96875 -0.921875 -2.9375 -0.921875q-1.0625 0 -2.578125 0.265625l-2.4375 8.4375zm28.109375 -10.359375l-1.609375 17.625q-0.125 1.234375 -0.125 1.625q0 0.625 0.234375 0.953125q0.296875 0.453125 0.796875 0.671875q0.515625 0.21875 1.71875 0.21875l-0.171875 0.578125l-8.34375 0l0.171875 -0.578125l0.359375 0q1.015625 0 1.65625 -0.4375q0.453125 -0.296875 0.703125 -0.984375q0.171875 -0.484375 0.328125 -2.28125l0.25 -2.6875l-6.0625 0l-2.15625 2.921875q-0.734375 0.984375 -0.921875 1.421875q-0.1875 0.421875 -0.1875 0.796875q0 0.5 0.40625 0.859375q0.40625 0.359375 1.34375 0.390625l-0.171875 0.578125l-6.265625 0l0.171875 -0.578125q1.15625 -0.046875 2.03125 -0.765625q0.890625 -0.734375 2.640625 -3.109375l12.65625 -17.21875l0.546875 0zm-3.09375 5.203125l-6.140625 8.359375l5.328125 0l0.8125 -8.359375zm19.453125 16.46875l-3.390625 -10.296875q-1.1875 0.015625 -2.4375 -0.234375l-1.828125 6.40625q-0.359375 1.25 -0.359375 2.109375q0 0.65625 0.453125 1.03125q0.34375 0.28125 1.875 0.40625l-0.140625 0.578125l-8.203125 0l0.171875 -0.578125q1.15625 -0.046875 1.5625 -0.234375q0.640625 -0.265625 0.9375 -0.71875q0.5 -0.734375 1.046875 -2.59375l3.703125 -12.796875q0.375 -1.28125 0.375 -1.984375q0 -0.71875 -0.59375 -1.21875q-0.578125 -0.5 -1.671875 -0.484375l0.1875 -0.578125l6.90625 0q3.46875 0 5.0 1.3125q1.53125 1.3125 1.53125 3.453125q0 2.046875 -1.578125 3.75q-1.5625 1.6875 -4.296875 2.140625l2.0625 6.203125q0.75 2.28125 1.5 2.96875q0.75 0.6875 2.421875 0.78125l-0.171875 0.578125l-5.0625 0zm-5.5625 -11.421875q1.0 0.140625 1.78125 0.140625q2.6875 0 4.25 -1.484375q1.5625 -1.5 1.5625 -3.71875q0 -1.734375 -0.984375 -2.65625q-0.96875 -0.921875 -2.921875 -0.921875q-0.5 0 -1.1875 0.125l-2.5 8.515625zm16.5 -9.765625l16.09375 0l-1.734375 5.625l-0.59375 0q0.296875 -1.234375 0.296875 -2.203125q0 -1.140625 -0.703125 -1.71875q-0.53125 -0.4375 -2.734375 -0.4375l-1.671875 0l-4.1875 14.59375q-0.796875 2.75 -0.796875 3.390625q0 0.59375 0.5 0.984375q0.5 0.375 1.765625 0.375l0.71875 0l-0.1875 0.578125l-9.21875 0l0.171875 -0.578125l0.40625 0q1.21875 0 1.875 -0.390625q0.453125 -0.265625 0.8125 -0.953125q0.375 -0.703125 1.03125 -2.953125l4.390625 -15.046875l-1.265625 0q-1.828125 0 -2.953125 0.46875q-1.109375 0.46875 -1.796875 1.359375q-0.6875 0.890625 -1.125 2.53125l-0.578125 0l1.484375 -5.625zm29.59375 -0.484375l-1.609375 17.625q-0.125 1.234375 -0.125 1.625q0 0.625 0.234375 0.953125q0.296875 0.453125 0.796875 0.671875q0.515625 0.21875 1.71875 0.21875l-0.171875 0.578125l-8.34375 0l0.171875 -0.578125l0.359375 0q1.015625 0 1.65625 -0.4375q0.453125 -0.296875 0.703125 -0.984375q0.171875 -0.484375 0.328125 -2.28125l0.25 -2.6875l-6.0625 0l-2.15625 2.921875q-0.734375 0.984375 -0.921875 1.421875q-0.1875 0.421875 -0.1875 0.796875q0 0.5 0.40625 0.859375q0.40625 0.359375 1.34375 0.390625l-0.171875 0.578125l-6.265625 0l0.171875 -0.578125q1.15625 -0.046875 2.03125 -0.765625q0.890625 -0.734375 2.640625 -3.109375l12.65625 -17.21875l0.546875 0zm-3.09375 5.203125l-6.140625 8.359375l5.328125 0l0.8125 -8.359375zm29.1875 -5.203125l-1.578125 6.671875l-0.59375 0q0.140625 -1.171875 0.140625 -1.734375q0 -1.53125 -1.359375 -2.703125q-1.34375 -1.1875 -3.71875 -1.1875q-4.859375 0 -7.9375 4.5625q-2.453125 3.609375 -2.453125 8.078125q0 2.96875 1.515625 5.125q1.515625 2.15625 4.671875 2.15625q0.78125 0 1.46875 -0.140625q0.703125 -0.140625 2.109375 -0.625l1.546875 -5.453125q0.328125 -1.125 0.328125 -1.796875q0 -0.5625 -0.40625 -0.859375q-0.65625 -0.453125 -2.125 -0.453125l-0.4375 0l0.171875 -0.609375l8.8125 0l-0.15625 0.609375q-1.203125 0.015625 -1.75 0.28125q-0.546875 0.265625 -0.9375 0.90625q-0.265625 0.421875 -0.859375 2.453125l-1.5625 5.359375q-2.140625 0.921875 -3.453125 1.21875q-1.3125 0.3125 -2.765625 0.3125q-3.34375 0 -5.421875 -1.25q-2.078125 -1.265625 -3.078125 -3.328125q-0.984375 -2.078125 -0.984375 -4.125q0 -2.75 1.15625 -5.21875q1.15625 -2.484375 2.875 -4.1875q1.734375 -1.71875 3.765625 -2.703125q2.796875 -1.359375 5.875 -1.359375q2.265625 0 4.09375 0.75q0.734375 0.296875 1.078125 0.296875q0.390625 0 0.65625 -0.171875q0.28125 -0.1875 0.71875 -0.875l0.59375 0zm10.4375 1.625l-2.421875 8.375l1.984375 0q2.1250305 0 3.0781555 -0.640625q0.953125 -0.65625 1.640625 -2.40625l0.578125 0l-2.171875 7.6875l-0.625 0q0.28125 -0.96875 0.28125 -1.65625q0 -0.671875 -0.28125 -1.078125q-0.265625 -0.40625 -0.75 -0.59375q-0.46875 -0.203125 -2.0000305 -0.203125l-2.015625 0l-2.046875 7.015625q-0.296875 1.015625 -0.296875 1.546875q0 0.40625 0.390625 0.71875q0.265625 0.21875 1.328125 0.21875l1.875 0q3.0469055 0 4.8750305 -1.078125q1.84375 -1.078125 3.296875 -3.75l0.578125 0l-2.0 5.890625l-16.37503 0l0.203125 -0.578125q1.21875 -0.03125 1.640625 -0.21875q0.625 -0.28125 0.90625 -0.71875q0.421875 -0.640625 1.0 -2.6875l3.71875 -12.78125q0.4375 -1.546875 0.4375 -2.359375q0 -0.59375 -0.421875 -0.921875q-0.40625 -0.34375 -1.609375 -0.34375l-0.328125 0l0.1875 -0.578125l15.2187805 0l-1.3125 5.109375l-0.578125 0q0.109375 -0.71875 0.109375 -1.203125q0 -0.828125 -0.40625 -1.390625q-0.53125 -0.71875 -1.546875 -1.09375q-0.75 -0.28125 -3.453125 -0.28125l-2.6875305 0zm6.1562805 -7.859374l-4.59375 5.359374l-0.53125 0l1.609375 -5.359374l3.515625 0zm2.703125 31.421875q1.171875 -0.53125 1.90625 -1.34375q0.5625 -0.625 0.5625 -1.203125q0 -0.28125 -0.09375 -0.515625q-0.0625 -0.125 -0.4375 -0.5q-0.375 -0.375 -0.421875 -0.515625q-0.109375 -0.265625 -0.109375 -0.609375q0 -0.671875 0.453125 -1.15625q0.46875 -0.484375 1.09375 -0.484375q0.640625 0 1.125 0.515625q0.5 0.515625 0.5 1.296875q0 1.390625 -1.09375 2.8125q-1.09375 1.421875 -3.171875 2.203125l-0.3125 -0.5zm31.0 -3.515625l-15.703125 0l0.21875 -0.578125q1.25 -0.03125 1.671875 -0.203125q0.65625 -0.28125 0.96875 -0.734375q0.484375 -0.71875 1.03125 -2.59375l3.734375 -12.890625q0.46875 -1.59375 0.46875 -2.34375q0 -0.59375 -0.4375 -0.921875q-0.421875 -0.328125 -1.609375 -0.328125q-0.265625 0 -0.421875 -0.015625l0.1875 -0.578125l8.640625 0l-0.125 0.578125q-1.453125 0 -2.0625 0.28125q-0.609375 0.28125 -1.015625 0.921875q-0.28125 0.421875 -0.921875 2.625l-3.671875 12.671875q-0.421875 1.4375 -0.421875 2.0q0 0.375 0.421875 0.71875q0.265625 0.234375 1.203125 0.234375l2.046875 0q2.234375 0 3.546875 -0.5625q0.96875 -0.421875 1.78125 -1.265625q0.4375 -0.46875 1.546875 -2.328125l0.40625 -0.703125l0.578125 0l-2.0625 6.015625zm13.484375 -20.046875l-2.421875 8.375l1.984375 0q2.125 0 3.078125 -0.640625q0.953125 -0.65625 1.640625 -2.40625l0.578125 0l-2.171875 7.6875l-0.625 0q0.28125 -0.96875 0.28125 -1.65625q0 -0.671875 -0.28125 -1.078125q-0.265625 -0.40625 -0.75 -0.59375q-0.46875 -0.203125 -2.0 -0.203125l-2.015625 0l-2.046875 7.015625q-0.296875 1.015625 -0.296875 1.546875q0 0.40625 0.390625 0.71875q0.265625 0.21875 1.328125 0.21875l1.875 0q3.046875 0 4.875 -1.078125q1.84375 -1.078125 3.296875 -3.75l0.578125 0l-2.0 5.890625l-16.375 0l0.203125 -0.578125q1.21875 -0.03125 1.640625 -0.21875q0.625 -0.28125 0.90625 -0.71875q0.421875 -0.640625 1.0 -2.6875l3.71875 -12.78125q0.4375 -1.546875 0.4375 -2.359375q0 -0.59375 -0.421875 -0.921875q-0.40625 -0.34375 -1.609375 -0.34375l-0.328125 0l0.1875 -0.578125l15.21875 0l-1.3125 5.109375l-0.578125 0q0.109375 -0.71875 0.109375 -1.203125q0 -0.828125 -0.40625 -1.390625q-0.53125 -0.71875 -1.546875 -1.09375q-0.75 -0.28125 -3.453125 -0.28125l-2.6875 0zm26.546875 20.53125l-4.03125 3.265625q0.953125 -0.171875 1.765625 -0.171875q0.78125 0 1.4375 0.09375q0.671875 0.09375 2.84375 0.578125q2.1875 0.5 3.8125 0.5q1.734375 0 2.9375 -0.609375q1.21875 -0.59375 2.359375 -2.0l0.515625 0.25q-1.609375 2.3125 -3.796875 3.328125q-2.1875 1.03125 -4.640625 1.03125q-1.359375 0 -3.71875 -0.53125q-3.609375 -0.796875 -5.046875 -0.796875q-0.546875 0 -0.890625 0.078125q-0.34375 0.078125 -1.03125 0.375l-0.359375 -0.421875l6.40625 -5.0625q-2.96875 -0.40625 -4.5 -2.609375q-1.53125 -2.203125 -1.53125 -4.703125q0 -3.421875 2.0625 -7.078125q2.078125 -3.65625 5.296875 -5.65625q3.234375 -2.015625 6.34375 -2.015625q2.3125 0 3.9375 0.9375q1.640625 0.9375 2.53125 2.734375q0.890625 1.78125 0.890625 3.65625q0 3.59375 -2.046875 7.28125q-2.046875 3.6875 -5.09375 5.59375q-3.03125 1.890625 -6.453125 1.953125zm5.859375 -21.15625q-1.5625 0 -3.0625 0.78125q-1.484375 0.765625 -2.953125 2.53125q-1.46875 1.75 -2.640625 4.59375q-1.421875 3.5 -1.421875 6.609375q0 2.21875 1.140625 3.9375q1.140625 1.703125 3.5 1.703125q1.40625 0 2.78125 -0.703125q1.375 -0.703125 2.84375 -2.390625q1.875 -2.15625 3.140625 -5.484375q1.265625 -3.328125 1.265625 -6.1875q0 -2.109375 -1.140625 -3.75q-1.140625 -1.640625 -3.453125 -1.640625zm12.078125 -0.515625l8.953125 0l-0.171875 0.578125q-1.375 0.03125 -1.96875 0.265625q-0.578125 0.21875 -1.0 0.796875q-0.40625 0.578125 -0.859375 2.140625l-2.171875 7.5q-0.578125 2.0 -0.6875 2.625q-0.1875 1.0 -0.1875 1.859375q0 1.890625 1.40625 3.203125q1.40625 1.296875 3.765625 1.296875q1.546875 0 2.765625 -0.578125q1.21875 -0.59375 2.078125 -1.640625q0.875 -1.0625 1.59375 -2.859375q0.71875 -1.8125 1.265625 -3.65625l1.875 -6.46875q0.703125 -2.421875 0.703125 -3.15625q0 -0.515625 -0.484375 -0.875q-0.46875 -0.375 -1.921875 -0.453125l0.171875 -0.578125l6.734375 0l-0.171875 0.578125q-1.1875 0 -1.71875 0.234375q-0.515625 0.21875 -0.90625 0.8125q-0.390625 0.578125 -0.875 2.265625l-2.296875 7.859375q-1.109375 3.828125 -2.09375 5.65625q-0.984375 1.8125 -2.859375 3.046875q-1.859375 1.21875 -4.625 1.21875q-3.1875 0 -5.140625 -1.796875q-1.953125 -1.8125 -1.953125 -4.140625q0 -0.921875 0.171875 -1.96875q0.125 -0.6875 0.609375 -2.375l2.09375 -7.203125q0.4375 -1.5625 0.4375 -2.296875q0 -0.578125 -0.453125 -0.890625q-0.4375 -0.328125 -2.234375 -0.421875l0.15625 -0.578125zm35.40625 -0.484375l-1.609375 17.625q-0.125 1.234375 -0.125 1.625q0 0.625 0.234375 0.953125q0.296875 0.453125 0.796875 0.671875q0.515625 0.21875 1.71875 0.21875l-0.171875 0.578125l-8.34375 0l0.171875 -0.578125l0.359375 0q1.015625 0 1.65625 -0.4375q0.453125 -0.296875 0.703125 -0.984375q0.171875 -0.484375 0.328125 -2.28125l0.25 -2.6875l-6.0625 0l-2.15625 2.921875q-0.734375 0.984375 -0.921875 1.421875q-0.1875 0.421875 -0.1875 0.796875q0 0.5 0.40625 0.859375q0.40625 0.359375 1.34375 0.390625l-0.171875 0.578125l-6.265625 0l0.171875 -0.578125q1.15625 -0.046875 2.03125 -0.765625q0.890625 -0.734375 2.640625 -3.109375l12.65625 -17.21875l0.546875 0zm-3.09375 5.203125l-6.140625 8.359375l5.328125 0l0.8125 -8.359375zm19.453125 16.46875l-3.390625 -10.296875q-1.1875 0.015625 -2.4375 -0.234375l-1.828125 6.40625q-0.359375 1.25 -0.359375 2.109375q0 0.65625 0.453125 1.03125q0.34375 0.28125 1.875 0.40625l-0.140625 0.578125l-8.203125 0l0.171875 -0.578125q1.15625 -0.046875 1.5625 -0.234375q0.640625 -0.265625 0.9375 -0.71875q0.5 -0.734375 1.046875 -2.59375l3.703125 -12.796875q0.375 -1.28125 0.375 -1.984375q0 -0.71875 -0.59375 -1.21875q-0.578125 -0.5 -1.671875 -0.484375l0.1875 -0.578125l6.90625 0q3.46875 0 5.0 1.3125q1.53125 1.3125 1.53125 3.453125q0 2.046875 -1.578125 3.75q-1.5625 1.6875 -4.296875 2.140625l2.0625 6.203125q0.75 2.28125 1.5 2.96875q0.75 0.6875 2.421875 0.78125l-0.171875 0.578125l-5.0625 0zm-5.5625 -11.421875q1.0 0.140625 1.78125 0.140625q2.6875 0 4.25 -1.484375q1.5625 -1.5 1.5625 -3.71875q0 -1.734375 -0.984375 -2.65625q-0.96875 -0.921875 -2.921875 -0.921875q-0.5 0 -1.1875 0.125l-2.5 8.515625zm16.5 -9.765625l16.09375 0l-1.734375 5.625l-0.59375 0q0.296875 -1.234375 0.296875 -2.203125q0 -1.140625 -0.703125 -1.71875q-0.53125 -0.4375 -2.734375 -0.4375l-1.671875 0l-4.1875 14.59375q-0.796875 2.75 -0.796875 3.390625q0 0.59375 0.5 0.984375q0.5 0.375 1.765625 0.375l0.71875 0l-0.1875 0.578125l-9.21875 0l0.171875 -0.578125l0.40625 0q1.21875 0 1.875 -0.390625q0.453125 -0.265625 0.8125 -0.953125q0.375 -0.703125 1.03125 -2.953125l4.390625 -15.046875l-1.265625 0q-1.828125 0 -2.953125 0.46875q-1.109375 0.46875 -1.796875 1.359375q-0.6875 0.890625 -1.125 2.53125l-0.578125 0l1.484375 -5.625zm21.0 20.609375l-0.171875 0.578125l-8.71875 0l0.21875 -0.578125q1.3125 -0.03125 1.734375 -0.21875q0.6875 -0.265625 1.015625 -0.734375q0.515625 -0.734375 1.0625 -2.625l3.6875 -12.78125q0.46875 -1.59375 0.46875 -2.40625q0 -0.40625 -0.203125 -0.6875q-0.203125 -0.28125 -0.625 -0.421875q-0.40625 -0.15625 -1.609375 -0.15625l0.1875 -0.578125l8.1875 0l-0.171875 0.578125q-1.0 -0.015625 -1.484375 0.21875q-0.703125 0.3125 -1.078125 0.890625q-0.359375 0.578125 -0.9375 2.5625l-3.671875 12.78125q-0.5 1.765625 -0.5 2.25q0 0.390625 0.1875 0.671875q0.203125 0.265625 0.625 0.421875q0.4375 0.140625 1.796875 0.234375zm13.125 -19.46875l-2.421875 8.375l1.984375 0q2.125 0 3.078125 -0.640625q0.953125 -0.65625 1.640625 -2.40625l0.578125 0l-2.171875 7.6875l-0.625 0q0.28125 -0.96875 0.28125 -1.65625q0 -0.671875 -0.28125 -1.078125q-0.265625 -0.40625 -0.75 -0.59375q-0.46875 -0.203125 -2.0 -0.203125l-2.015625 0l-2.046875 7.015625q-0.296875 1.015625 -0.296875 1.546875q0 0.40625 0.390625 0.71875q0.265625 0.21875 1.328125 0.21875l1.875 0q3.046875 0 4.875 -1.078125q1.84375 -1.078125 3.296875 -3.75l0.578125 0l-2.0 5.890625l-16.375 0l0.203125 -0.578125q1.21875 -0.03125 1.640625 -0.21875q0.625 -0.28125 0.90625 -0.71875q0.421875 -0.640625 1.0 -2.6875l3.71875 -12.78125q0.4375 -1.546875 0.4375 -2.359375q0 -0.59375 -0.421875 -0.921875q-0.40625 -0.34375 -1.609375 -0.34375l-0.328125 0l0.1875 -0.578125l15.21875 0l-1.3125 5.109375l-0.578125 0q0.109375 -0.71875 0.109375 -1.203125q0 -0.828125 -0.40625 -1.390625q-0.53125 -0.71875 -1.546875 -1.09375q-0.75 -0.28125 -3.453125 -0.28125l-2.6875 0zm22.484375 20.046875l-3.390625 -10.296875q-1.1875 0.015625 -2.4375 -0.234375l-1.828125 6.40625q-0.359375 1.25 -0.359375 2.109375q0 0.65625 0.453125 1.03125q0.34375 0.28125 1.875 0.40625l-0.140625 0.578125l-8.203125 0l0.171875 -0.578125q1.15625 -0.046875 1.5625 -0.234375q0.640625 -0.265625 0.9375 -0.71875q0.5 -0.734375 1.046875 -2.59375l3.703125 -12.796875q0.375 -1.28125 0.375 -1.984375q0 -0.71875 -0.59375 -1.21875q-0.578125 -0.5 -1.671875 -0.484375l0.1875 -0.578125l6.90625 0q3.46875 0 5.0 1.3125q1.53125 1.3125 1.53125 3.453125q0 2.046875 -1.578125 3.75q-1.5625 1.6875 -4.296875 2.140625l2.0625 6.203125q0.75 2.28125 1.5 2.96875q0.75 0.6875 2.421875 0.78125l-0.171875 0.578125l-5.0625 0zm-5.5625 -11.421875q1.0 0.140625 1.78125 0.140625q2.6875 0 4.25 -1.484375q1.5625 -1.5 1.5625 -3.71875q0 -1.734375 -0.984375 -2.65625q-0.96875 -0.921875 -2.921875 -0.921875q-0.5 0 -1.1875 0.125l-2.5 8.515625zm24.5 -9.1875l0.1875 -0.578125l6.765625 0q4.296875 0 6.359375 0.984375q2.078125 0.984375 3.3125 3.109375q1.234375 2.109375 1.234375 4.53125q0 2.078125 -0.71875 4.046875q-0.703125 1.953125 -1.609375 3.140625q-0.890625 1.171875 -2.75 2.59375q-1.859375 1.421875 -4.03125 2.109375q-2.171875 0.671875 -5.421875 0.671875l-8.96875 0l0.203125 -0.578125q1.234375 -0.03125 1.65625 -0.21875q0.625 -0.265625 0.921875 -0.71875q0.453125 -0.65625 1.015625 -2.640625l3.75 -12.8125q0.4375 -1.515625 0.4375 -2.375q0 -0.609375 -0.40625 -0.9375q-0.40625 -0.328125 -1.59375 -0.328125l-0.34375 0zm5.546875 0.59375l-4.59375 15.859375q-0.515625 1.78125 -0.515625 2.203125q0 0.25 0.15625 0.484375q0.171875 0.234375 0.453125 0.3125q0.40625 0.140625 1.3125 0.140625q2.453125 0 4.546875 -0.5q2.109375 -0.515625 3.453125 -1.515625q1.90625 -1.453125 3.046875 -4.0q1.140625 -2.546875 1.140625 -5.796875q0 -3.671875 -1.75 -5.453125q-1.75 -1.796875 -5.109375 -1.796875q-0.828125 0 -2.140625 0.0625zm19.140625 4.671875q1.171875 -0.515625 1.90625 -1.34375q0.5625 -0.625 0.5625 -1.1875q0 -0.296875 -0.09375 -0.53125q-0.0625 -0.125 -0.4375 -0.5q-0.375 -0.375 -0.421875 -0.515625q-0.109375 -0.25 -0.109375 -0.609375q0 -0.671875 0.453125 -1.15625q0.46875 -0.484375 1.09375 -0.484375q0.640625 0 1.125 0.515625q0.5 0.515625 0.5 1.296875q0 1.390625 -1.09375 2.8125q-1.09375 1.421875 -3.171875 2.203125l-0.3125 -0.5z" fill-rule="nonzero"/><path fill="#000000" fill-opacity="0.0" d="m24.341558 174.79721l743.1181 0" fill-rule="evenodd"/><path stroke="#000000" stroke-width="3.0" stroke-linejoin="round" stroke-linecap="butt" d="m41.226387 174.79723l709.34845 0" fill-rule="evenodd"/><path fill="#000000" stroke="#000000" stroke-width="3.0" stroke-linecap="butt" d="m41.226387 174.79723l-7.1348305 -4.995865l-7.1348286 4.995865l7.1348286 4.995865z" fill-rule="evenodd"/><path fill="#000000" stroke="#000000" stroke-width="3.0" stroke-linecap="butt" d="m750.5748 174.79723l7.1348267 4.995865l7.1348267 -4.995865l-7.1348267 -4.995865z" fill-rule="evenodd"/><path fill="#000000" fill-opacity="0.0" d="m193.37796 57.74803l573.7638 -0.47244263" fill-rule="evenodd"/><path stroke="#000000" stroke-width="3.0" stroke-linejoin="round" stroke-linecap="butt" d="m210.26277 57.734127l539.99414 -0.44463348" fill-rule="evenodd"/><path fill="#000000" stroke="#000000" stroke-width="3.0" stroke-linecap="butt" d="m210.26277 57.734127l-7.1389313 -4.9899826l-7.130722 5.001732l7.1389465 4.9899864z" fill-rule="evenodd"/><path fill="#000000" stroke="#000000" stroke-width="3.0" stroke-linecap="butt" d="m750.2569 57.289494l7.138977 4.9899864l7.1306763 -5.0017357l-7.138916 -4.9899864z" fill-rule="evenodd"/><path fill="#000000" fill-opacity="0.0" d="m656.45404 67.902885l124.53546 0l0 95.65354l-124.53546 0z" fill-rule="evenodd"/><path fill="#000000" d="m680.1437 110.12903l0.515625 -13.28125q0.03125 -1.171875 0.03125 -1.21875q0 -0.65625 -0.3125 -0.953125q-0.296875 -0.3125 -1.140625 -0.359375l0.140625 -0.4375l6.6875 0l-0.125 0.4375q-0.859375 0 -1.296875 0.515625q-0.4375 0.515625 -0.515625 2.125l-0.375 8.28125l6.203125 -7.1875q1.203125 -1.390625 1.484375 -1.921875q0.28125 -0.546875 0.28125 -0.953125q0 -0.296875 -0.265625 -0.515625q-0.25 -0.234375 -0.96875 -0.34375l0.15625 -0.4375l4.390625 0l0 0.4375q-0.5625 0.140625 -0.921875 0.40625q-0.515625 0.390625 -1.59375 1.640625l-11.859375 13.765625l-0.515625 0zm17.648438 -16.609375q0.734375 0 1.21875 0.5q0.5 0.5 0.5 1.21875q0 0.71875 -0.5 1.21875q-0.5 0.5 -1.21875 0.5q-0.703125 0 -1.203125 -0.5q-0.5 -0.5 -0.5 -1.21875q0 -0.71875 0.484375 -1.21875q0.5 -0.5 1.21875 -0.5zm0.734375 5.390625l-2.40625 8.328125q-0.203125 0.71875 -0.203125 0.9375q0 0.125 0.109375 0.234375q0.109375 0.109375 0.21875 0.109375q0.203125 0 0.40625 -0.171875q0.515625 -0.4375 1.265625 -1.5625l0.390625 0.234375q-1.765625 3.078125 -3.765625 3.078125q-0.75 0 -1.203125 -0.421875q-0.453125 -0.4375 -0.453125 -1.09375q0 -0.4375 0.203125 -1.09375l1.625 -5.609375q0.234375 -0.8125 0.234375 -1.21875q0 -0.25 -0.234375 -0.453125q-0.21875 -0.203125 -0.59375 -0.203125q-0.1875 0 -0.421875 0.015625l0.140625 -0.46875l3.984375 -0.640625l0.703125 0zm8.136719 -5.390625l-3.875 13.1875q-0.34375 1.171875 -0.34375 1.46875q0 0.15625 0.09375 0.265625q0.109375 0.09375 0.21875 0.09375q0.21875 0 0.40625 -0.15625q0.5625 -0.46875 1.25 -1.546875l0.453125 0.203125q-1.109375 1.78125 -2.1875 2.546875q-0.734375 0.515625 -1.5625 0.515625q-0.78125 0 -1.234375 -0.40625q-0.453125 -0.421875 -0.453125 -1.015625q0 -0.4375 0.28125 -1.390625l3.15625 -10.8125q0.265625 -0.890625 0.265625 -1.171875q0 -0.28125 -0.25 -0.453125q-0.328125 -0.234375 -1.0 -0.203125l0.125 -0.4375l3.953125 -0.6875l0.703125 0zm6.6679688 0l-3.875 13.1875q-0.34375 1.171875 -0.34375 1.46875q0 0.15625 0.09375 0.265625q0.109375 0.09375 0.21875 0.09375q0.21875 0 0.40625 -0.15625q0.5625 -0.46875 1.25 -1.546875l0.453125 0.203125q-1.109375 1.78125 -2.1875 2.546875q-0.734375 0.515625 -1.5625 0.515625q-0.78125 0 -1.234375 -0.40625q-0.453125 -0.421875 -0.453125 -1.015625q0 -0.4375 0.28125 -1.390625l3.15625 -10.8125q0.265625 -0.890625 0.265625 -1.171875q0 -0.28125 -0.25 -0.453125q-0.328125 -0.234375 -1.0 -0.203125l0.125 -0.4375l3.953125 -0.6875l0.703125 0zm2.8242188 11.859375q-0.109375 0.75 -0.109375 1.25q0 0.875 0.515625 1.40625q0.515625 0.53125 1.359375 0.53125q0.828125 0 1.65625 -0.390625q0.828125 -0.40625 1.90625 -1.40625l0.359375 0.3125q-1.34375 1.625 -2.625 2.328125q-1.28125 0.6875 -2.828125 0.6875q-1.953125 0 -2.703125 -0.9375q-0.75 -0.9375 -0.75 -2.171875q0 -1.921875 1.109375 -3.84375q1.125 -1.921875 3.046875 -3.078125q1.9375 -1.15625 3.875 -1.15625q0.984375 0 1.484375 0.46875q0.515625 0.46875 0.515625 1.171875q0 0.859375 -0.5 1.671875q-0.671875 1.09375 -1.703125 1.78125q-1.03125 0.671875 -2.3125 1.015625q-0.859375 0.234375 -2.296875 0.359375zm0.109375 -0.609375q1.03125 -0.15625 1.59375 -0.421875q0.578125 -0.265625 1.109375 -0.84375q0.546875 -0.578125 0.9375 -1.453125q0.40625 -0.890625 0.40625 -1.671875q0 -0.328125 -0.1875 -0.515625q-0.171875 -0.1875 -0.453125 -0.1875q-0.5625 0 -1.265625 0.78125q-1.28125 1.4375 -2.140625 4.3125zm25.886719 -11.25l-3.8125 13.109375q-0.359375 1.234375 -0.359375 1.484375q0 0.125 0.09375 0.21875q0.09375 0.09375 0.203125 0.09375q0.1875 0 0.453125 -0.1875q0.4375 -0.328125 1.046875 -1.25l0.421875 0.21875q-1.640625 2.890625 -3.625 2.890625q-0.703125 0 -1.09375 -0.359375q-0.375 -0.375 -0.375 -0.953125q0 -0.546875 0.3125 -1.578125l0.34375 -1.1875q-1.46875 2.59375 -2.546875 3.4375q-0.8125 0.640625 -1.59375 0.640625q-0.875 0 -1.484375 -0.71875q-0.59375 -0.71875 -0.59375 -2.078125q0 -1.75 0.765625 -3.453125q0.78125 -1.703125 1.796875 -2.828125q1.015625 -1.140625 1.921875 -1.625q0.921875 -0.484375 1.8125 -0.484375q0.46875 0 0.8125 0.1875q0.359375 0.1875 0.828125 0.703125l0.859375 -2.921875q0.3125 -1.078125 0.3125 -1.546875q0 -0.28125 -0.21875 -0.484375q-0.203125 -0.203125 -0.546875 -0.203125q-0.171875 0 -0.40625 0.046875l0.109375 -0.46875l3.859375 -0.703125l0.703125 0zm-5.15625 7.421875q0 -0.71875 -0.28125 -1.046875q-0.28125 -0.328125 -0.65625 -0.328125q-0.375 0 -0.8125 0.390625q-0.828125 0.75 -1.734375 3.015625q-0.90625 2.265625 -0.90625 3.8125q0 0.5625 0.1875 0.84375q0.203125 0.265625 0.453125 0.265625q0.40625 0 0.8125 -0.375q1.0 -0.890625 1.96875 -3.0625q0.96875 -2.171875 0.96875 -3.515625zm7.8125 4.4375q-0.109375 0.75 -0.109375 1.25q0 0.875 0.515625 1.40625q0.515625 0.53125 1.359375 0.53125q0.828125 0 1.65625 -0.390625q0.828125 -0.40625 1.90625 -1.40625l0.359375 0.3125q-1.34375 1.625 -2.625 2.328125q-1.28125 0.6875 -2.828125 0.6875q-1.953125 0 -2.703125 -0.9375q-0.75 -0.9375 -0.75 -2.171875q0 -1.921875 1.109375 -3.84375q1.125 -1.921875 3.046875 -3.078125q1.9375 -1.15625 3.875 -1.15625q0.984375 0 1.484375 0.46875q0.515625 0.46875 0.515625 1.171875q0 0.859375 -0.5 1.671875q-0.671875 1.09375 -1.703125 1.78125q-1.03125 0.671875 -2.3125 1.015625q-0.859375 0.234375 -2.296875 0.359375zm0.109375 -0.609375q1.03125 -0.15625 1.59375 -0.421875q0.578125 -0.265625 1.109375 -0.84375q0.546875 -0.578125 0.9375 -1.453125q0.40625 -0.890625 0.40625 -1.671875q0 -0.328125 -0.1875 -0.515625q-0.171875 -0.1875 -0.453125 -0.1875q-0.5625 0 -1.265625 0.78125q-1.28125 1.4375 -2.140625 4.3125zm15.730469 -5.859375l-0.515625 3.609375l-0.4375 0q-0.09375 -1.40625 -0.859375 -2.203125q-0.765625 -0.8125 -1.65625 -0.8125q-0.53125 0 -0.890625 0.3125q-0.34375 0.3125 -0.34375 0.765625q0 0.375 0.140625 0.703125q0.15625 0.328125 0.6875 0.890625q1.859375 1.984375 2.25 2.734375q0.40625 0.75 0.40625 1.609375q0 0.921875 -0.46875 1.75q-0.46875 0.828125 -1.40625 1.328125q-0.9375 0.5 -1.9375 0.5q-0.6875 0 -1.671875 -0.265625q-0.65625 -0.1875 -0.984375 -0.1875q-0.296875 0 -0.46875 0.09375q-0.15625 0.078125 -0.359375 0.359375l-0.4375 0l0.578125 -3.90625l0.375 0q0.40625 1.421875 0.765625 2.03125q0.359375 0.59375 0.953125 0.953125q0.609375 0.359375 1.15625 0.359375q0.640625 0 1.0625 -0.40625q0.421875 -0.40625 0.421875 -0.96875q0 -0.546875 -0.28125 -1.0625q-0.265625 -0.515625 -1.265625 -1.609375q-1.375 -1.484375 -1.796875 -2.296875q-0.3125 -0.578125 -0.3125 -1.328125q0 -1.265625 0.921875 -2.109375q0.921875 -0.84375 2.578125 -0.84375q0.734375 0 1.78125 0.25q0.53125 0.125 0.84375 0.125q0.46875 0 0.75 -0.375l0.421875 0z" fill-rule="nonzero"/><path fill="#000000" d="m688.00696 122.51965l-1.171875 5.046875l-0.453125 0q-0.078125 -2.0625 -1.015625 -3.078125q-0.9375 -1.015625 -2.4375 -1.015625q-1.609375 0 -3.21875 1.390625q-1.609375 1.375 -2.71875 4.21875q-0.90625 2.3125 -0.90625 4.5625q0 2.015625 0.984375 3.078125q1.0 1.0625 2.71875 1.0625q1.40625 0 2.546875 -0.609375q1.15625 -0.609375 2.328125 -1.984375l0.5625 0q-1.453125 2.1875 -2.9375 3.0625q-1.484375 0.875 -3.625 0.875q-2.875 0 -4.625 -1.734375q-1.75 -1.75 -1.75 -4.546875q0 -2.625 1.390625 -5.0q1.390625 -2.390625 4.0 -3.859375q2.625 -1.46875 5.21875 -1.46875q0.984375 0 2.453125 0.421875q0.75 0.203125 1.046875 0.203125q0.578125 0 1.171875 -0.625l0.4375 0zm6.6015625 0l-3.046875 10.546875q1.578125 -2.328125 2.296875 -3.140625q1.0625 -1.1875 1.828125 -1.59375q0.765625 -0.421875 1.46875 -0.421875q0.609375 0 1.03125 0.453125q0.421875 0.4375 0.421875 1.1875q0 0.640625 -0.28125 1.59375l-1.484375 4.984375q-0.203125 0.65625 -0.203125 0.875q0 0.109375 0.078125 0.203125q0.09375 0.078125 0.203125 0.078125q0.140625 0 0.28125 -0.109375q0.375 -0.296875 0.796875 -0.9375q0.09375 -0.171875 0.328125 -0.5l0.46875 0.265625q-1.015625 1.65625 -1.921875 2.28125q-0.890625 0.625 -1.703125 0.625q-0.734375 0 -1.140625 -0.375q-0.40625 -0.375 -0.40625 -0.9375q0 -0.515625 0.28125 -1.46875l1.453125 -4.984375q0.140625 -0.515625 0.140625 -0.75q0 -0.140625 -0.109375 -0.234375q-0.09375 -0.09375 -0.21875 -0.09375q-0.421875 0 -1.15625 0.703125q-1.53125 1.4375 -3.046875 4.515625l-1.046875 3.484375l-2.90625 0l3.84375 -13.25q0.234375 -0.84375 0.234375 -1.203125q0 -0.296875 -0.234375 -0.453125q-0.3125 -0.21875 -0.9375 -0.1875l0.078125 -0.46875l3.90625 -0.6875l0.703125 0zm16.957031 5.546875l-2.28125 7.796875l-0.234375 0.953125q-0.03125 0.171875 -0.03125 0.25q0 0.140625 0.09375 0.25q0.109375 0.109375 0.21875 0.109375q0.234375 0 0.671875 -0.375q0.171875 -0.15625 0.84375 -1.078125l0.40625 0.203125q-0.828125 1.53125 -1.78125 2.234375q-0.9375 0.6875 -2.015625 0.6875q-0.671875 0 -1.03125 -0.34375q-0.34375 -0.34375 -0.34375 -0.875q0 -0.453125 0.375 -1.703125l0.28125 -0.953125q-1.359375 2.34375 -2.609375 3.3125q-0.734375 0.5625 -1.546875 0.5625q-1.078125 0 -1.5625 -0.875q-0.484375 -0.890625 -0.484375 -2.015625q0 -1.640625 1.0 -3.78125q1.015625 -2.140625 2.65625 -3.4375q1.34375 -1.078125 2.53125 -1.078125q0.65625 0 1.046875 0.375q0.40625 0.375 0.59375 1.390625l0.421875 -1.4375l2.78125 -0.171875zm-3.75 2.234375q0 -0.953125 -0.296875 -1.375q-0.203125 -0.296875 -0.578125 -0.296875q-0.359375 0 -0.75 0.359375q-0.78125 0.71875 -1.6875 2.9375q-0.90625 2.21875 -0.90625 3.84375q0 0.625 0.203125 0.90625q0.203125 0.265625 0.453125 0.265625q0.53125 0 1.0625 -0.609375q0.78125 -0.875 1.390625 -2.125q1.109375 -2.203125 1.109375 -3.90625zm-0.390625 -7.78125l2.65625 0l1.203125 3.984375l-1.203125 0l-1.5625 -2.390625l-3.453125 2.390625l-1.234375 0l3.59375 -3.984375zm11.515625 2.53125l-0.9375 3.1875l1.546875 0l-0.421875 1.34375l-1.5 0l-1.96875 6.796875q-0.1875 0.625 -0.1875 0.953125q0 0.15625 0.109375 0.265625q0.109375 0.109375 0.234375 0.109375q0.203125 0 0.40625 -0.15625q0.546875 -0.40625 1.265625 -1.4375l0.40625 0.265625q-0.8125 1.40625 -1.78125 2.0625q-0.96875 0.65625 -1.90625 0.65625q-0.796875 0 -1.25 -0.40625q-0.4375 -0.40625 -0.4375 -1.03125q0 -0.671875 0.3125 -1.734375l1.84375 -6.34375l-1.59375 0l0.234375 -0.875q1.5 -0.546875 2.53125 -1.28125q1.03125 -0.734375 2.484375 -2.375l0.609375 0zm3.5429688 9.328125q-0.109375 0.75 -0.109375 1.25q0 0.875 0.515625 1.40625q0.515625 0.53125 1.359375 0.53125q0.828125 0 1.65625 -0.390625q0.828125 -0.40625 1.90625 -1.40625l0.359375 0.3125q-1.34375 1.625 -2.625 2.328125q-1.28125 0.6875 -2.828125 0.6875q-1.953125 0 -2.703125 -0.9375q-0.75 -0.9375 -0.75 -2.171875q0 -1.921875 1.109375 -3.84375q1.125 -1.921875 3.046875 -3.078125q1.9375 -1.15625 3.875 -1.15625q0.984375 0 1.484375 0.46875q0.515625 0.46875 0.515625 1.171875q0 0.859375 -0.5 1.671875q-0.671875 1.09375 -1.703125 1.78125q-1.03125 0.671875 -2.3125 1.015625q-0.859375 0.234375 -2.296875 0.359375zm0.109375 -0.609375q1.03125 -0.15625 1.59375 -0.421875q0.578125 -0.265625 1.109375 -0.84375q0.546875 -0.578125 0.9375 -1.453125q0.40625 -0.890625 0.40625 -1.671875q0 -0.328125 -0.1875 -0.515625q-0.171875 -0.1875 -0.453125 -0.1875q-0.5625 0 -1.265625 0.78125q-1.28125 1.4375 -2.140625 4.3125zm18.292969 -5.703125l-2.28125 7.796875l-0.234375 0.953125q-0.03125 0.171875 -0.03125 0.25q0 0.140625 0.09375 0.25q0.109375 0.109375 0.21875 0.109375q0.234375 0 0.671875 -0.375q0.171875 -0.15625 0.84375 -1.078125l0.40625 0.203125q-0.828125 1.53125 -1.78125 2.234375q-0.9375 0.6875 -2.015625 0.6875q-0.671875 0 -1.03125 -0.34375q-0.34375 -0.34375 -0.34375 -0.875q0 -0.453125 0.375 -1.703125l0.28125 -0.953125q-1.359375 2.34375 -2.609375 3.3125q-0.734375 0.5625 -1.546875 0.5625q-1.078125 0 -1.5625 -0.875q-0.484375 -0.890625 -0.484375 -2.015625q0 -1.640625 1.0 -3.78125q1.015625 -2.140625 2.65625 -3.4375q1.34375 -1.078125 2.53125 -1.078125q0.65625 0 1.046875 0.375q0.40625 0.375 0.59375 1.390625l0.421875 -1.4375l2.78125 -0.171875zm-3.75 2.234375q0 -0.953125 -0.296875 -1.375q-0.203125 -0.296875 -0.578125 -0.296875q-0.359375 0 -0.75 0.359375q-0.78125 0.71875 -1.6875 2.9375q-0.90625 2.21875 -0.90625 3.84375q0 0.625 0.203125 0.90625q0.203125 0.265625 0.453125 0.265625q0.53125 0 1.0625 -0.609375q0.78125 -0.875 1.390625 -2.125q1.109375 -2.203125 1.109375 -3.90625zm10.625 -2.390625l-2.265625 7.96875q-0.171875 0.546875 -0.171875 0.75q0 0.109375 0.078125 0.171875q0.09375 0.09375 0.234375 0.09375q0.53125 0 1.4375 -0.96875q1.28125 -1.390625 2.703125 -4.0l1.0625 -3.59375l2.96875 -0.09375l-2.25 7.734375q-0.28125 0.984375 -0.28125 1.125q0 0.09375 0.078125 0.1875q0.09375 0.09375 0.1875 0.09375q0.171875 0 0.328125 -0.140625q0.421875 -0.328125 1.109375 -1.359375l0.390625 0.28125q-1.625 2.9375 -3.578125 2.9375q-0.734375 0 -1.15625 -0.359375q-0.40625 -0.375 -0.40625 -0.984375q0 -0.625 0.296875 -1.59375l0.578125 -1.984375q-1.53125 2.21875 -2.21875 2.984375q-1.0625 1.15625 -1.78125 1.546875q-0.71875 0.390625 -1.375 0.390625q-0.625 0 -1.078125 -0.453125q-0.4375 -0.46875 -0.4375 -1.171875q0 -0.59375 0.28125 -1.59375l1.328125 -4.6875q0.328125 -1.15625 0.328125 -1.546875q0 -0.1875 -0.09375 -0.3125q-0.09375 -0.140625 -0.3125 -0.21875q-0.21875 -0.078125 -0.796875 -0.078125l0.109375 -0.4375l4.0 -0.6875l0.703125 0zm8.066406 0.703125l4.09375 -0.703125q1.109375 1.734375 1.5625 3.84375q1.15625 -1.703125 1.734375 -2.390625q0.78125 -0.90625 1.296875 -1.171875q0.515625 -0.28125 1.078125 -0.28125q0.65625 0 1.0 0.359375q0.34375 0.34375 0.34375 0.9375q0 0.5625 -0.34375 0.921875q-0.34375 0.359375 -0.859375 0.359375q-0.375 0 -0.875 -0.140625q-0.484375 -0.140625 -0.671875 -0.140625q-0.484375 0 -0.9375 0.359375q-0.609375 0.484375 -1.5 2.046875q1.0 3.515625 1.59375 4.296875q0.359375 0.453125 0.71875 0.453125q0.3125 0 0.53125 -0.15625q0.34375 -0.25 1.046875 -1.234375l0.421875 0.25q-1.03125 1.671875 -2.015625 2.34375q-0.75 0.53125 -1.484375 0.53125q-0.75 0 -1.25 -0.328125q-0.5 -0.34375 -0.890625 -1.09375q-0.375 -0.765625 -0.90625 -2.421875q-1.375 1.75 -2.15625 2.546875q-0.765625 0.796875 -1.28125 1.046875q-0.515625 0.25 -1.109375 0.25q-0.609375 0 -0.96875 -0.34375q-0.359375 -0.359375 -0.359375 -0.921875q0 -0.59375 0.390625 -0.984375q0.390625 -0.390625 0.984375 -0.390625q0.3125 0 0.71875 0.1875q0.578125 0.28125 0.84375 0.28125q0.34375 0 0.609375 -0.140625q0.34375 -0.171875 0.890625 -0.765625q0.328125 -0.359375 1.203125 -1.546875q-1.125 -4.171875 -1.75 -4.984375q-0.40625 -0.53125 -1.015625 -0.53125q-0.3125 0 -0.765625 0.09375l0.078125 -0.4375z" fill-rule="nonzero"/></g></svg>