<svg version="1.1" viewBox="0.0 0.0 800.0 200.0" fill="none" stroke="none" stroke-linecap="square" stroke-miterlimit="10" xmlns:xlink="http://www.w3.org/1999/xlink" xmlns="http://www.w3.org/2000/svg"><clipPath id="p.0"><path d="m0 0l800.0 0l0 200.0l-800.0 0l0 -200.0z" clip-rule="nonzero"/></clipPath><g clip-path="url(#p.0)"><path fill="#000000" fill-opacity="0.0" d="m0 0l800.0 0l0 200.0l-800.0 0z" fill-rule="evenodd"/><path fill="#000000" fill-opacity="0.0" d="m46.61155 -15.364829l697.70074 0l0 224.7244l-697.70074 0z" fill-rule="evenodd"/><path fill="#000000" d="m99.37943 90.343956l0 38.578133q0 12.5 2.734375 15.53125q3.71875 4.296875 11.234375 4.296875l5.078125 0l0 3.609375l-56.734375 0l0 -3.609375l4.96875 0q8.40625 0 12.015625 -5.46875q1.953125 -3.03125 1.953125 -14.359375l0 -85.54688q0 -12.5 -2.640625 -15.53125q-3.796875 -4.296875 -11.328125 -4.296875l-4.96875 0l0 -3.609375l48.53125 0q17.765625 0 28.015617 3.671875q10.265625 3.65625 17.296875 12.34375q7.03125 8.6875 7.03125 20.609375q0 16.203125 -10.703125 26.359375q-10.6875 10.15625 -30.218742 10.15625q-4.78125 0 -10.359375 -0.671875q-5.5625 -0.6875 -11.90625 -2.0625zm0 -5.5625q5.171875 0.96875 9.171875 1.46875q4.015625 0.484375 6.84375 0.484375q10.15625 0 17.531242 -7.859375q7.375 -7.859375 7.375 -20.359375q0 -8.59375 -3.515625 -15.96875q-3.515625 -7.375 -9.968742 -11.03125q-6.4375 -3.671875 -14.640625 -3.671875q-4.984375 0 -12.796875 1.859375l0 55.078125z" fill-rule="nonzero"/><path fill="#000000" d="m210.78177 80.750206q16.875 -0.625 27.421875 9.84375q10.546875 10.46875 10.546875 26.203125q0 13.421883 -7.859375 23.640633q-10.421875 13.53125 -29.421875 13.53125q-19.0625 0 -29.484375 -12.90625q-8.21875 -10.21875 -8.21875 -24.218758q0 -15.734375 10.703125 -26.21875q10.703125 -10.5 26.3125 -9.875zm0.625 3.328125q-9.6875 0 -14.734375 9.90625q-4.109375 8.125 -4.109375 23.328125q0 18.062508 6.34375 26.718758q4.4375 6.03125 12.40625 6.03125q5.359375 0 8.953125 -2.59375q4.578125 -3.34375 7.125 -10.65625q2.5625 -7.3125 2.5625 -19.078133q0 -14.015625 -2.609375 -20.96875q-2.59375 -6.953125 -6.640625 -9.8125q-4.03125 -2.875 -9.296875 -2.875zm69.94504 36.3125l0 19.578133q0 5.71875 0.703125 7.203125q0.703125 1.484375 2.5 2.375q1.796875 0.890625 6.59375 0.890625l0 1.921875l-35.89064 0l0 -1.921875q4.9062653 0 6.6406403 -0.90625q1.75 -0.921875 2.453125 -2.375q0.703125 -1.46875 0.703125 -7.1875l0 -45.828133q0 -5.734375 -0.703125 -7.21875q-0.703125 -1.484375 -2.484375 -2.359375q-1.765625 -0.890625 -6.6093903 -0.890625l0 -1.9375l30.781265 0q15.203125 0 21.81247 5.421875q6.625 5.421875 6.625 13.546875q0 6.875 -4.28125 11.765625q-4.265625 4.890625 -11.7655945 6.671875q-5.046875 1.25 -17.078125 1.25zm0 -34.59375l0 30.53125q1.71875 0.09375 2.609375 0.09375q6.34375 0 9.78125 -3.765625q3.4375 -3.78125 3.4375 -11.703125q0 -7.859375 -3.4375 -11.5q-3.4375 -3.65625 -10.25 -3.65625l-2.140625 0zm38.852997 -4.0625l36.453125 0l0 1.9375l-1.828125 0q-4.109375 0 -5.65625 0.859375q-1.53125 0.859375 -2.1875 2.375q-0.640625 1.5 -0.640625 7.546875l0 34.578133q0 9.46875 1.421875 12.546875q1.4375 3.078125 4.71875 5.109375q3.28125 2.03125 8.28125 2.03125q5.734375 0 9.765625 -2.578125q4.046875 -2.578125 6.046875 -7.109375q2.0 -4.53125 2.0 -15.781258l0 -28.796875q0 -4.75 -0.984375 -6.78125q-0.984375 -2.03125 -2.5 -2.8125q-2.34375 -1.1875 -6.609375 -1.1875l0 -1.9375l24.421875 0l0 1.9375l-1.453125 0q-2.96875 0 -4.953125 1.203125q-1.984375 1.1875 -2.859375 3.578125q-0.6875 1.671875 -0.6875 6.0l0 26.8125q0 12.453133 -1.640625 17.968758q-1.640625 5.515625 -8.0 10.15625q-6.34375 4.640625 -17.328125 4.640625q-9.171875 0 -14.171875 -2.453125q-6.8125 -3.328125 -9.625 -8.53125q-2.8125 -5.21875 -2.8125 -14.015625l0 -34.578133q0 -6.09375 -0.6875 -7.578125q-0.671875 -1.484375 -2.34375 -2.375q-1.65625 -0.890625 -6.140625 -0.828125l0 -1.9375zm141.8675 45.828125l-2.65625 24.796883l-62.703125 0l0 -1.921875l2.34375 0q3.0625 0 4.9375 -1.09375q1.359375 -0.734375 2.09375 -2.5q0.5625 -1.25 0.5625 -6.5625l0 -46.453133q0 -5.421875 -0.578125 -6.765625q-0.5625 -1.359375 -2.3125 -2.375q-1.734375 -1.015625 -4.703125 -1.015625l-2.34375 0l0 -1.9375l37.640625 0l0 1.9375l-3.0625 0q-3.078125 0 -4.953125 1.09375q-1.359375 0.71875 -2.140625 2.5q-0.5625 1.25 -0.5625 6.5625l0 44.984383q0 5.421875 0.625 6.90625q0.625 1.484375 2.4375 2.21875q1.3125 0.46875 6.3125 0.46875l5.875 0q5.625 0 9.375 -1.984375q3.75 -1.984375 6.484375 -6.25q2.734375 -4.265625 5.1875 -12.609383l2.140625 0zm48.170105 4.6875076l-24.953125 0l-2.96875 6.875q-1.453125 3.4375 -1.453125 5.6875q0 2.96875 2.390625 4.375q1.40625 0.828125 6.9375 1.25l0 1.921875l-23.5 0l0 -1.921875q3.8125 -0.578125 6.25 -3.15625q2.453125 -2.578125 6.046875 -10.65625l25.25 -56.343758l1.0 0l25.46878 57.906258q3.640625 8.234375 5.984375 10.375q1.765625 1.609375 5.0 1.875l0 1.921875l-34.171906 0l0 -1.921875l1.40625 0q4.1250305 0 5.7812805 -1.15625q1.15625 -0.828125 1.15625 -2.390625q0 -0.9375 -0.3125 -1.921875q-0.109375 -0.46875 -1.5625 -3.90625l-3.7500305 -8.8125zm-1.78125 -3.84375l-10.515625 -24.328133l-10.828125 24.328133l21.34375 0zm73.49252 22.03125l0 1.921875l-36.921875 0l0 -1.921875l2.34375 0q3.0625 0 4.9375 -1.09375q1.359375 -0.734375 2.09375 -2.5q0.5625 -1.25 0.5625 -6.5625l0 -46.453133q0 -5.421875 -0.578125 -6.765625q-0.5625 -1.359375 -2.3125 -2.375q-1.734375 -1.015625 -4.703125 -1.015625l-2.34375 0l0 -1.9375l36.921875 0l0 1.9375l-2.34375 0q-3.078125 0 -4.953125 1.09375q-1.359375 0.71875 -2.140625 2.5q-0.5625 1.25 -0.5625 6.5625l0 46.453133q0 5.40625 0.59375 6.765625q0.59375 1.359375 2.34375 2.375q1.75 1.015625 4.71875 1.015625l2.34375 0zm30.771973 -30.265633l0 19.796883q0 5.71875 0.703125 7.203125q0.703125 1.484375 2.46875 2.375q1.78125 0.890625 6.625 0.890625l0 1.921875l-36.140625 0l0 -1.921875q4.890625 0 6.625 -0.90625q1.75 -0.921875 2.453125 -2.375q0.703125 -1.46875 0.703125 -7.1875l0 -45.828133q0 -5.734375 -0.703125 -7.21875q-0.703125 -1.484375 -2.46875 -2.359375q-1.765625 -0.890625 -6.609375 -0.890625l0 -1.9375l32.796875 0q12.8125 0 18.75 1.78125q5.9375 1.765625 9.6875 6.53125q3.75 4.765625 3.75 11.171875q0 7.8125 -5.625 12.921875q-3.59375 3.21875 -10.046875 4.84375l16.984375 23.890633q3.328125 4.640625 4.734375 5.78125q2.140625 1.625 4.953125 1.78125l0 1.921875l-22.25 0l-22.75 -32.187508l-4.640625 0zm0 -34.625l0 30.9375l2.96875 0q7.234375 0 10.828125 -1.328125q3.59375 -1.328125 5.65625 -4.796875q2.0625 -3.46875 2.0625 -9.03125q0 -8.078125 -3.78125 -11.921875q-3.78125 -3.859375 -12.15625 -3.859375l-5.578125 0zm77.75812 0.25l0 28.75l1.40625 0q6.71875 0 9.734375 -4.21875q3.015625 -4.21875 3.859375 -12.4375l1.96875 0l0 36.968758l-1.96875 0q-0.625 -6.046875 -2.640625 -9.890633q-2.0 -3.859375 -4.65625 -5.1875q-2.65625 -1.328125 -7.703125 -1.328125l0 19.890633q0 5.84375 0.484375 7.140625q0.5 1.296875 1.84375 2.140625q1.359375 0.828125 4.390625 0.828125l4.21875 0q9.890625 0 15.84375 -4.578125q5.96875 -4.59375 8.578125 -13.96875l1.921875 0l-3.171875 22.453125l-61.03125 0l0 -1.921875l2.34375 0q3.0625 0 4.9375 -1.09375q1.359375 -0.734375 2.09375 -2.5q0.5625 -1.25 0.5625 -6.5625l0 -46.453133q0 -4.796875 -0.25 -5.890625q-0.53125 -1.828125 -1.9375 -2.8125q-1.96875 -1.453125 -5.40625 -1.453125l-2.34375 0l0 -1.9375l59.109375 0l0 20.890625l-1.984375 0q-1.515625 -7.65625 -4.25 -10.984375q-2.734375 -3.34375 -7.734375 -4.90625q-2.90625 -0.9375 -10.9375 -0.9375l-7.28125 0z" fill-rule="nonzero"/><path fill="#000000" fill-opacity="0.0" d="m192.21101 -0.6771653l580.66144 0l0 51.937008l-580.66144 0z" fill-rule="evenodd"/><path fill="#000000" d="m215.88289 39.042835l-15.703125 0l0.21875 -0.578125q1.25 -0.03125 1.671875 -0.203125q0.65625 -0.28125 0.96875 -0.734375q0.484375 -0.71875 1.03125 -2.59375l3.734375 -12.890625q0.46875 -1.59375 0.46875 -2.34375q0 -0.59375 -0.4375 -0.921875q-0.421875 -0.328125 -1.609375 -0.328125q-0.265625 0 -0.421875 -0.015625l0.1875 -0.578125l8.640625 0l-0.125 0.578125q-1.453125 0 -2.0625 0.28125q-0.609375 0.28125 -1.015625 0.921875q-0.28125 0.421875 -0.921875 2.625l-3.671875 12.671875q-0.421875 1.4375 -0.421875 2.0q0 0.375 0.421875 0.71875q0.265625 0.234375 1.203125 0.234375l2.046875 0q2.234375 0 3.546875 -0.5625q0.96875 -0.421875 1.78125 -1.265625q0.4375 -0.46875 1.546875 -2.328125l0.40625 -0.703125l0.578125 0l-2.0625 6.015625zm13.484375 -20.046875l-2.421875 8.375l1.984375 0q2.125 0 3.078125 -0.640625q0.953125 -0.65625 1.640625 -2.40625l0.578125 0l-2.171875 7.6875l-0.625 0q0.28125 -0.96875 0.28125 -1.65625q0 -0.671875 -0.28125 -1.078125q-0.265625 -0.40625 -0.75 -0.59375q-0.46875 -0.203125 -2.0 -0.203125l-2.015625 0l-2.046875 7.015625q-0.296875 1.015625 -0.296875 1.546875q0 0.40625 0.390625 0.71875q0.265625 0.21875 1.328125 0.21875l1.875 0q3.046875 0 4.875 -1.078125q1.84375 -1.078125 3.296875 -3.75l0.578125 0l-2.0 5.890625l-16.375 0l0.203125 -0.578125q1.21875 -0.03125 1.640625 -0.21875q0.625 -0.28125 0.90625 -0.71875q0.421875 -0.640625 1.0 -2.6875l3.71875 -12.78125q0.4375 -1.546875 0.4375 -2.359375q0 -0.59375 -0.421875 -0.921875q-0.40625 -0.34375 -1.609375 -0.34375l-0.328125 0l0.1875 -0.578125l15.21875 0l-1.3125 5.109375l-0.578125 0q0.109375 -0.71875 0.109375 -1.203125q0 -0.828125 -0.40625 -1.390625q-0.53125 -0.71875 -1.546875 -1.09375q-0.75 -0.28125 -3.453125 -0.28125l-2.6875 0zm22.1875 -1.140625l8.343765 0q3.28125 0 4.90625 1.421875q1.625 1.40625 1.625 3.4375q0 1.609375 -1.03125 3.125q-1.03125 1.515625 -3.0625 2.46875q-2.03125 0.9375 -4.390625 0.9375q-1.46875 0 -3.7343903 -0.53125l-1.6875 5.78125q-0.59375 2.0625 -0.59375 2.71875q0 0.5 0.421875 0.828125q0.421875 0.328125 2.015625 0.421875l-0.15625 0.578125l-8.421875 0l0.171875 -0.578125q1.65625 0 2.296875 -0.5625q0.65625 -0.578125 1.40625 -3.15625l3.5 -12.0625q0.625 -2.171875 0.625 -2.90625q0 -0.546875 -0.453125 -0.90625q-0.4375 -0.359375 -1.953125 -0.4375l0.171875 -0.578125zm2.921875 9.875q1.7656403 0.453125 2.8437653 0.453125q1.703125 0 3.09375 -0.703125q1.40625 -0.703125 2.1875 -2.109375q0.796875 -1.40625 0.796875 -2.921875q0 -1.578125 -0.96875 -2.5q-0.96875 -0.921875 -2.9375 -0.921875q-1.0625 0 -2.578125 0.265625l-2.4375153 8.4375zm24.92189 11.3125l-3.390625 -10.296875q-1.1875 0.015625 -2.4375 -0.234375l-1.828125 6.40625q-0.359375 1.25 -0.359375 2.109375q0 0.65625 0.453125 1.03125q0.34375 0.28125 1.875 0.40625l-0.140625 0.578125l-8.203125 0l0.171875 -0.578125q1.15625 -0.046875 1.5625 -0.234375q0.640625 -0.265625 0.9375 -0.71875q0.5 -0.734375 1.046875 -2.59375l3.703125 -12.796875q0.375 -1.28125 0.375 -1.984375q0 -0.71875 -0.59375 -1.21875q-0.578125 -0.5 -1.671875 -0.484375l0.1875 -0.578125l6.90625 0q3.46875 0 5.0 1.3125q1.53125 1.3125 1.53125 3.453125q0 2.046875 -1.578125 3.75q-1.5625 1.6875 -4.296875 2.140625l2.0625 6.203125q0.75 2.28125 1.5 2.96875q0.75 0.6875 2.421875 0.78125l-0.171875 0.578125l-5.0625 0zm-5.5625 -11.421875q1.0 0.140625 1.78125 0.140625q2.6875 0 4.25 -1.484375q1.5625 -1.5 1.5625 -3.71875q0 -1.734375 -0.984375 -2.65625q-0.96875 -0.921875 -2.921875 -0.921875q-0.5 0 -1.1875 0.125l-2.5 8.515625zm22.171875 -8.625l-2.421875 8.375l1.984375 0q2.125 0 3.078125 -0.640625q0.953125 -0.65625 1.640625 -2.40625l0.578125 0l-2.171875 7.6875l-0.625 0q0.28125 -0.96875 0.28125 -1.65625q0 -0.671875 -0.28125 -1.078125q-0.265625 -0.40625 -0.75 -0.59375q-0.46875 -0.203125 -2.0 -0.203125l-2.015625 0l-2.046875 7.015625q-0.296875 1.015625 -0.296875 1.546875q0 0.40625 0.390625 0.71875q0.265625 0.21875 1.328125 0.21875l1.875 0q3.046875 0 4.875 -1.078125q1.84375 -1.078125 3.296875 -3.75l0.578125 0l-2.0 5.890625l-16.375 0l0.203125 -0.578125q1.21875 -0.03125 1.640625 -0.21875q0.625 -0.28125 0.90625 -0.71875q0.421875 -0.640625 1.0 -2.6875l3.71875 -12.78125q0.4375 -1.546875 0.4375 -2.359375q0 -0.59375 -0.421875 -0.921875q-0.40625 -0.34375 -1.609375 -0.34375l-0.328125 0l0.1875 -0.578125l15.21875 0l-1.3125 5.109375l-0.578125 0q0.109375 -0.71875 0.109375 -1.203125q0 -0.828125 -0.40625 -1.390625q-0.53125 -0.71875 -1.546875 -1.09375q-0.75 -0.28125 -3.453125 -0.28125l-2.6875 0zm19.328125 -1.140625l1.953125 17.0625l12.296875 -17.0625l5.171875 0l0 0.578125q-1.6875 0.109375 -1.984375 0.21875q-0.515625 0.203125 -0.953125 0.8125q-0.421875 0.609375 -0.921875 2.34375l-3.921875 13.4375q-0.34375 1.171875 -0.34375 1.84375q0 0.609375 0.421875 0.921875q0.59375 0.453125 1.875 0.453125l0.375 0l-0.140625 0.578125l-8.921875 0l0.15625 -0.578125l0.421875 0q1.1875 0 1.8125 -0.34375q0.484375 -0.25 0.859375 -0.9375q0.390625 -0.703125 1.078125 -3.09375l3.5 -12.28125l-12.359375 17.234375l-0.625 0l-1.984375 -17.234375l-3.78125 13.109375q-0.484375 1.671875 -0.484375 2.25q0 0.578125 0.421875 0.890625q0.421875 0.296875 2.046875 0.40625l-0.171875 0.578125l-6.984375 0l0.171875 -0.578125l0.421875 0q1.546875 0 2.234375 -0.78125q0.5 -0.5625 1.046875 -2.4375l4.609375 -15.796875q-0.515625 -0.53125 -0.984375 -0.71875q-0.46875 -0.1875 -1.734375 -0.296875l0.15625 -0.578125l5.265625 0zm24.40625 20.609375l-0.171875 0.578125l-8.71875 0l0.21875 -0.578125q1.3125 -0.03125 1.734375 -0.21875q0.6875 -0.265625 1.015625 -0.734375q0.515625 -0.734375 1.0625 -2.625l3.6875 -12.78125q0.46875 -1.59375 0.46875 -2.40625q0 -0.40625 -0.203125 -0.6875q-0.203125 -0.28125 -0.625 -0.421875q-0.40625 -0.15625 -1.609375 -0.15625l0.1875 -0.578125l8.1875 0l-0.171875 0.578125q-1.0 -0.015625 -1.484375 0.21875q-0.703125 0.3125 -1.078125 0.890625q-0.359375 0.578125 -0.9375 2.5625l-3.671875 12.78125q-0.5 1.765625 -0.5 2.25q0 0.390625 0.1875 0.671875q0.203125 0.265625 0.625 0.421875q0.4375 0.140625 1.796875 0.234375zm13.125 -19.46875l-2.421875 8.375l1.984375 0q2.125 0 3.078125 -0.640625q0.953125 -0.65625 1.640625 -2.40625l0.578125 0l-2.171875 7.6875l-0.625 0q0.28125 -0.96875 0.28125 -1.65625q0 -0.671875 -0.28125 -1.078125q-0.265625 -0.40625 -0.75 -0.59375q-0.46875 -0.203125 -2.0 -0.203125l-2.015625 0l-2.046875 7.015625q-0.296875 1.015625 -0.296875 1.546875q0 0.40625 0.390625 0.71875q0.265625 0.21875 1.328125 0.21875l1.875 0q3.046875 0 4.875 -1.078125q1.84375 -1.078125 3.296875 -3.75l0.578125 0l-2.0 5.890625l-16.375 0l0.203125 -0.578125q1.21875 -0.03125 1.640625 -0.21875q0.625 -0.28125 0.90625 -0.71875q0.421875 -0.640625 1.0 -2.6875l3.71875 -12.78125q0.4375 -1.546875 0.4375 -2.359375q0 -0.59375 -0.421875 -0.921875q-0.40625 -0.34375 -1.609375 -0.34375l-0.328125 0l0.1875 -0.578125l15.21875 0l-1.3125 5.109375l-0.578125 0q0.109375 -0.71875 0.109375 -1.203125q0 -0.828125 -0.40625 -1.390625q-0.53125 -0.71875 -1.546875 -1.09375q-0.75 -0.28125 -3.453125 -0.28125l-2.6875 0zm22.484375 20.046875l-3.390625 -10.296875q-1.1875 0.015625 -2.4375 -0.234375l-1.828125 6.40625q-0.359375 1.25 -0.359375 2.109375q0 0.65625 0.453125 1.03125q0.34375 0.28125 1.875 0.40625l-0.140625 0.578125l-8.203125 0l0.171875 -0.578125q1.15625 -0.046875 1.5625 -0.234375q0.640625 -0.265625 0.9375 -0.71875q0.5 -0.734375 1.046875 -2.59375l3.703125 -12.796875q0.375 -1.28125 0.375 -1.984375q0 -0.71875 -0.59375 -1.21875q-0.578125 -0.5 -1.671875 -0.484375l0.1875 -0.578125l6.90625 0q3.46875 0 5.0 1.3125q1.53125 1.3125 1.53125 3.453125q0 2.046875 -1.578125 3.75q-1.5625 1.6875 -4.296875 2.140625l2.0625 6.203125q0.75 2.28125 1.5 2.96875q0.75 0.6875 2.421875 0.78125l-0.171875 0.578125l-5.0625 0zm-5.5625 -11.421875q1.0 0.140625 1.78125 0.140625q2.6875 0 4.25 -1.484375q1.5625 -1.5 1.5625 -3.71875q0 -1.734375 -0.984375 -2.65625q-0.96875 -0.921875 -2.921875 -0.921875q-0.5 0 -1.1875 0.125l-2.5 8.515625zm33.109375 11.421875l-3.390625 -10.296875q-1.1875 0.015625 -2.4375 -0.234375l-1.828125 6.40625q-0.359375 1.25 -0.359375 2.109375q0 0.65625 0.453125 1.03125q0.34375 0.28125 1.875 0.40625l-0.140625 0.578125l-8.203125 0l0.171875 -0.578125q1.15625 -0.046875 1.5625 -0.234375q0.640625 -0.265625 0.9375 -0.71875q0.5 -0.734375 1.046875 -2.59375l3.703125 -12.796875q0.375 -1.28125 0.375 -1.984375q0 -0.71875 -0.59375 -1.21875q-0.578125 -0.5 -1.671875 -0.484375l0.1875 -0.578125l6.90625 0q3.46875 0 5.0 1.3125q1.53125 1.3125 1.53125 3.453125q0 2.046875 -1.578125 3.75q-1.5625 1.6875 -4.296875 2.140625l2.0625 6.203125q0.75 2.28125 1.5 2.96875q0.75 0.6875 2.421875 0.78125l-0.171875 0.578125l-5.0625 0zm-5.5625 -11.421875q1.0 0.140625 1.78125 0.140625q2.6875 0 4.25 -1.484375q1.5625 -1.5 1.5625 -3.71875q0 -1.734375 -0.984375 -2.65625q-0.96875 -0.921875 -2.921875 -0.921875q-0.5 0 -1.1875 0.125l-2.5 8.515625zm28.296875 -10.25l-1.609375 17.625q-0.125 1.234375 -0.125 1.625q0 0.625 0.234375 0.953125q0.296875 0.453125 0.796875 0.671875q0.515625 0.21875 1.71875 0.21875l-0.171875 0.578125l-8.34375 0l0.171875 -0.578125l0.359375 0q1.015625 0 1.65625 -0.4375q0.453125 -0.296875 0.703125 -0.984375q0.171875 -0.484375 0.328125 -2.28125l0.25 -2.6875l-6.0625 0l-2.15625 2.921875q-0.734375 0.984375 -0.921875 1.421875q-0.1875 0.421875 -0.1875 0.796875q0 0.5 0.40625 0.859375q0.40625 0.359375 1.34375 0.390625l-0.171875 0.578125l-6.265625 0l0.171875 -0.578125q1.15625 -0.046875 2.03125 -0.765625q0.890625 -0.734375 2.640625 -3.109375l12.65625 -17.21875l0.546875 0zm-3.09375 5.203125l-6.140625 8.359375l5.328125 0l0.8125 -8.359375zm11.15625 -4.71875l8.34375 0q3.28125 0 4.90625 1.421875q1.625 1.40625 1.625 3.4375q0 1.609375 -1.03125 3.125q-1.03125 1.515625 -3.0625 2.46875q-2.03125 0.9375 -4.390625 0.9375q-1.46875 0 -3.734375 -0.53125l-1.6875 5.78125q-0.59375 2.0625 -0.59375 2.71875q0 0.5 0.421875 0.828125q0.421875 0.328125 2.015625 0.421875l-0.15625 0.578125l-8.421875 0l0.171875 -0.578125q1.65625 0 2.296875 -0.5625q0.65625 -0.578125 1.40625 -3.15625l3.5 -12.0625q0.625 -2.171875 0.625 -2.90625q0 -0.546875 -0.453125 -0.90625q-0.4375 -0.359375 -1.953125 -0.4375l0.171875 -0.578125zm2.921875 9.875q1.765625 0.453125 2.84375 0.453125q1.703125 0 3.09375 -0.703125q1.40625 -0.703125 2.1875 -2.109375q0.796875 -1.40625 0.796875 -2.921875q0 -1.578125 -0.96875 -2.5q-0.96875 -0.921875 -2.9375 -0.921875q-1.0625 0 -2.578125 0.265625l-2.4375 8.4375zm16.625 -9.875l8.34375 0q3.28125 0 4.90625 1.421875q1.625 1.40625 1.625 3.4375q0 1.609375 -1.03125 3.125q-1.03125 1.515625 -3.0625 2.46875q-2.03125 0.9375 -4.390625 0.9375q-1.46875 0 -3.734375 -0.53125l-1.6875 5.78125q-0.59375 2.0625 -0.59375 2.71875q0 0.5 0.421875 0.828125q0.421875 0.328125 2.015625 0.421875l-0.15625 0.578125l-8.421875 0l0.171875 -0.578125q1.65625 0 2.296875 -0.5625q0.65625 -0.578125 1.40625 -3.15625l3.5 -12.0625q0.625 -2.171875 0.625 -2.90625q0 -0.546875 -0.453125 -0.90625q-0.4375 -0.359375 -1.953125 -0.4375l0.171875 -0.578125zm2.921875 9.875q1.765625 0.453125 2.84375 0.453125q1.703125 0 3.09375 -0.703125q1.40625 -0.703125 2.1875 -2.109375q0.796875 -1.40625 0.796875 -2.921875q0 -1.578125 -0.96875 -2.5q-0.96875 -0.921875 -2.9375 -0.921875q-1.0625 0 -2.578125 0.265625l-2.4375 8.4375zm21.984375 -8.734375l-2.421875 8.375l1.984375 0q2.125 0 3.078125 -0.640625q0.953125 -0.65625 1.640625 -2.40625l0.578125 0l-2.171875 7.6875l-0.625 0q0.28125 -0.96875 0.28125 -1.65625q0 -0.671875 -0.28125 -1.078125q-0.265625 -0.40625 -0.75 -0.59375q-0.46875 -0.203125 -2.0 -0.203125l-2.015625 0l-2.046875 7.015625q-0.296875 1.015625 -0.296875 1.546875q0 0.40625 0.390625 0.71875q0.265625 0.21875 1.328125 0.21875l1.875 0q3.046875 0 4.875 -1.078125q1.84375 -1.078125 3.296875 -3.75l0.578125 0l-2.0 5.890625l-16.375 0l0.203125 -0.578125q1.21875 -0.03125 1.640625 -0.21875q0.625 -0.28125 0.90625 -0.71875q0.421875 -0.640625 1.0 -2.6875l3.71875 -12.78125q0.4375 -1.546875 0.4375 -2.359375q0 -0.59375 -0.421875 -0.921875q-0.40625 -0.34375 -1.609375 -0.34375l-0.328125 0l0.1875 -0.578125l15.21875 0l-1.3125 5.109375l-0.578125 0q0.109375 -0.71875 0.109375 -1.203125q0 -0.828125 -0.40625 -1.390625q-0.53125 -0.71875 -1.546875 -1.09375q-0.75 -0.28125 -3.453125 -0.28125l-2.6875 0zm13.375 -1.140625l8.953125 0l-0.171875 0.578125q-1.375 0.03125 -1.96875 0.265625q-0.578125 0.21875 -1.0 0.796875q-0.40625 0.578125 -0.859375 2.140625l-2.171875 7.5q-0.578125 2.0 -0.6875 2.625q-0.1875 1.0 -0.1875 1.859375q0 1.890625 1.40625 3.203125q1.40625 1.296875 3.765625 1.296875q1.546875 0 2.765625 -0.578125q1.21875 -0.59375 2.078125 -1.640625q0.875 -1.0625 1.59375 -2.859375q0.71875 -1.8125 1.265625 -3.65625l1.875 -6.46875q0.703125 -2.421875 0.703125 -3.15625q0 -0.515625 -0.484375 -0.875q-0.46875 -0.375 -1.921875 -0.453125l0.171875 -0.578125l6.7343445 0l-0.171875 0.578125q-1.1875 0 -1.7187195 0.234375q-0.515625 0.21875 -0.90625 0.8125q-0.390625 0.578125 -0.875 2.265625l-2.296875 7.859375q-1.109375 3.828125 -2.09375 5.65625q-0.984375 1.8125 -2.859375 3.046875q-1.859375 1.21875 -4.625 1.21875q-3.1875 0 -5.140625 -1.796875q-1.953125 -1.8125 -1.953125 -4.140625q0 -0.921875 0.171875 -1.96875q0.125 -0.6875 0.609375 -2.375l2.09375 -7.203125q0.4375 -1.5625 0.4375 -2.296875q0 -0.578125 -0.453125 -0.890625q-0.4375 -0.328125 -2.234375 -0.421875l0.15625 -0.578125zm32.21872 21.1875l-3.390625 -10.296875q-1.1875 0.015625 -2.4375 -0.234375l-1.828125 6.40625q-0.359375 1.25 -0.359375 2.109375q0 0.65625 0.453125 1.03125q0.34375 0.28125 1.875 0.40625l-0.140625 0.578125l-8.2030945 0l0.171875 -0.578125q1.15625 -0.046875 1.5625 -0.234375q0.6405945 -0.265625 0.9374695 -0.71875q0.5 -0.734375 1.046875 -2.59375l3.703125 -12.796875q0.375 -1.28125 0.375 -1.984375q0 -0.71875 -0.59375 -1.21875q-0.578125 -0.5 -1.671875 -0.484375l0.1875 -0.578125l6.90625 0q3.46875 0 5.0 1.3125q1.53125 1.3125 1.53125 3.453125q0 2.046875 -1.578125 3.75q-1.5625 1.6875 -4.296875 2.140625l2.0625 6.203125q0.75 2.28125 1.5 2.96875q0.75 0.6875 2.421875 0.78125l-0.171875 0.578125l-5.0625 0zm-5.5625 -11.421875q1.0 0.140625 1.78125 0.140625q2.6875 0 4.25 -1.484375q1.5625 -1.5 1.5625 -3.71875q0 -1.734375 -0.984375 -2.65625q-0.96875 -0.921875 -2.921875 -0.921875q-0.5 0 -1.1875 0.125l-2.5 8.515625zm24.5 -9.1875l0.1875 -0.578125l6.765625 0q4.296875 0 6.359375 0.984375q2.078125 0.984375 3.3125 3.109375q1.234375 2.109375 1.234375 4.53125q0 2.078125 -0.71875 4.046875q-0.703125 1.953125 -1.609375 3.140625q-0.890625 1.171875 -2.75 2.59375q-1.859375 1.421875 -4.03125 2.109375q-2.171875 0.671875 -5.421875 0.671875l-8.96875 0l0.203125 -0.578125q1.234375 -0.03125 1.65625 -0.21875q0.625 -0.265625 0.921875 -0.71875q0.453125 -0.65625 1.015625 -2.640625l3.75 -12.8125q0.4375 -1.515625 0.4375 -2.375q0 -0.609375 -0.40625 -0.9375q-0.40625 -0.328125 -1.59375 -0.328125l-0.34375 0zm5.546875 0.59375l-4.59375 15.859375q-0.515625 1.78125 -0.515625 2.203125q0 0.25 0.15625 0.484375q0.171875 0.234375 0.453125 0.3125q0.40625 0.140625 1.3125 0.140625q2.453125 0 4.546875 -0.5q2.109375 -0.515625 3.453125 -1.515625q1.90625 -1.453125 3.046875 -4.0q1.140625 -2.546875 1.140625 -5.796875q0 -3.671875 -1.75 -5.453125q-1.75 -1.796875 -5.109375 -1.796875q-0.828125 0 -2.140625 0.0625zm17.0625 -1.171875l8.953125 0l-0.171875 0.578125q-1.375 0.03125 -1.96875 0.265625q-0.578125 0.21875 -1.0 0.796875q-0.40625 0.578125 -0.859375 2.140625l-2.171875 7.5q-0.578125 2.0 -0.6875 2.625q-0.1875 1.0 -0.1875 1.859375q0 1.890625 1.40625 3.203125q1.40625 1.296875 3.765625 1.296875q1.546875 0 2.765625 -0.578125q1.21875 -0.59375 2.078125 -1.640625q0.875 -1.0625 1.59375 -2.859375q0.71875 -1.8125 1.265625 -3.65625l1.875 -6.46875q0.703125 -2.421875 0.703125 -3.15625q0 -0.515625 -0.484375 -0.875q-0.46875 -0.375 -1.921875 -0.453125l0.171875 -0.578125l6.734375 0l-0.171875 0.578125q-1.1875 0 -1.71875 0.234375q-0.515625 0.21875 -0.90625 0.8125q-0.390625 0.578125 -0.875 2.265625l-2.296875 7.859375q-1.109375 3.828125 -2.09375 5.65625q-0.984375 1.8125 -2.859375 3.046875q-1.859375 1.21875 -4.625 1.21875q-3.1875 0 -5.140625 -1.796875q-1.953125 -1.8125 -1.953125 -4.140625q0 -0.921875 0.171875 -1.96875q0.125 -0.6875 0.609375 -2.375l2.09375 -7.203125q0.4375 -1.5625 0.4375 -2.296875q0 -0.578125 -0.453125 -0.890625q-0.4375 -0.328125 -2.234375 -0.421875l0.15625 -0.578125zm37.0625 0l1.953125 17.0625l12.296875 -17.0625l5.171875 0l0 0.578125q-1.6875 0.109375 -1.984375 0.21875q-0.515625 0.203125 -0.953125 0.8125q-0.421875 0.609375 -0.921875 2.34375l-3.921875 13.4375q-0.34375 1.171875 -0.34375 1.84375q0 0.609375 0.421875 0.921875q0.59375 0.453125 1.875 0.453125l0.375 0l-0.140625 0.578125l-8.921875 0l0.15625 -0.578125l0.421875 0q1.1875 0 1.8125 -0.34375q0.484375 -0.25 0.859375 -0.9375q0.390625 -0.703125 1.078125 -3.09375l3.5 -12.28125l-12.359375 17.234375l-0.625 0l-1.984375 -17.234375l-3.78125 13.109375q-0.484375 1.671875 -0.484375 2.25q0 0.578125 0.421875 0.890625q0.421875 0.296875 2.046875 0.40625l-0.171875 0.578125l-6.984375 0l0.171875 -0.578125l0.421875 0q1.546875 0 2.234375 -0.78125q0.5 -0.5625 1.046875 -2.4375l4.609375 -15.796875q-0.515625 -0.53125 -0.984375 -0.71875q-0.46875 -0.1875 -1.734375 -0.296875l0.15625 -0.578125l5.265625 0zm32.28125 -0.484375q2.109375 0 3.734375 0.921875q1.625 0.90625 2.546875 2.703125q0.921875 1.78125 0.921875 3.703125q0 3.40625 -1.984375 7.15625q-1.96875 3.734375 -5.15625 5.703125q-3.1875 1.96875 -6.59375 1.96875q-2.453125 0 -4.109375 -1.078125q-1.640625 -1.09375 -2.4375 -2.875q-0.78125 -1.78125 -0.78125 -3.453125q0 -2.96875 1.421875 -5.859375q1.4375 -2.90625 3.421875 -4.84375q1.984375 -1.953125 4.234375 -3.0q2.25 -1.046875 4.78125 -1.046875zm-0.53125 1.0q-1.5625 0 -3.0625 0.78125q-1.484375 0.765625 -2.953125 2.53125q-1.46875 1.75 -2.640625 4.59375q-1.4375 3.5 -1.4375 6.609375q0 2.21875 1.140625 3.9375q1.140625 1.703125 3.5 1.703125q1.421875 0 2.78125 -0.703125q1.375 -0.703125 2.859375 -2.40625q1.859375 -2.140625 3.125 -5.453125q1.265625 -3.328125 1.265625 -6.203125q0 -2.125 -1.140625 -3.75q-1.140625 -1.640625 -3.4375 -1.640625zm17.046875 -0.515625l6.546875 16.609375l3.546875 -12.40625q0.4375 -1.53125 0.4375 -2.375q0 -0.578125 -0.40625 -0.90625q-0.40625 -0.328125 -1.515625 -0.328125q-0.1875 0 -0.390625 -0.015625l0.171875 -0.578125l6.8125 0l-0.1875 0.578125q-1.0625 -0.015625 -1.578125 0.21875q-0.734375 0.328125 -1.09375 0.84375q-0.5 0.734375 -1.015625 2.5625l-4.984375 17.46875l-0.5625 0l-7.046875 -17.875l-3.765625 13.203125q-0.421875 1.5 -0.421875 2.296875q0 0.59375 0.375 0.90625q0.390625 0.296875 1.828125 0.40625l-0.15625 0.578125l-6.65625 0l0.21875 -0.578125q1.25 -0.03125 1.671875 -0.21875q0.640625 -0.28125 0.953125 -0.734375q0.453125 -0.6875 1.015625 -2.65625l4.203125 -14.734375q-0.609375 -0.9375 -1.3125 -1.28125q-0.6875 -0.359375 -2.15625 -0.40625l0.171875 -0.578125l5.296875 0zm16.859375 0.578125l0.1875 -0.578125l6.765625 0q4.296875 0 6.359375 0.984375q2.078125 0.984375 3.3125 3.109375q1.234375 2.109375 1.234375 4.53125q0 2.078125 -0.71875 4.046875q-0.703125 1.953125 -1.609375 3.140625q-0.890625 1.171875 -2.75 2.59375q-1.859375 1.421875 -4.03125 2.109375q-2.171875 0.671875 -5.421875 0.671875l-8.96875 0l0.203125 -0.578125q1.234375 -0.03125 1.65625 -0.21875q0.625 -0.265625 0.921875 -0.71875q0.453125 -0.65625 1.015625 -2.640625l3.75 -12.8125q0.4375 -1.515625 0.4375 -2.375q0 -0.609375 -0.40625 -0.9375q-0.40625 -0.328125 -1.59375 -0.328125l-0.34375 0zm5.546875 0.59375l-4.59375 15.859375q-0.515625 1.78125 -0.515625 2.203125q0 0.25 0.15625 0.484375q0.171875 0.234375 0.453125 0.3125q0.40625 0.140625 1.3125 0.140625q2.453125 0 4.546875 -0.5q2.109375 -0.515625 3.453125 -1.515625q1.90625 -1.453125 3.046875 -4.0q1.140625 -2.546875 1.140625 -5.796875q0 -3.671875 -1.75 -5.453125q-1.75 -1.796875 -5.109375 -1.796875q-0.828125 0 -2.140625 0.0625zm23.234375 -0.03125l-2.421875 8.375l1.984375 0q2.125 0 3.078125 -0.640625q0.953125 -0.65625 1.640625 -2.40625l0.578125 0l-2.171875 7.6875l-0.625 0q0.28125 -0.96875 0.28125 -1.65625q0 -0.671875 -0.28125 -1.078125q-0.265625 -0.40625 -0.75 -0.59375q-0.46875 -0.203125 -2.0 -0.203125l-2.015625 0l-2.046875 7.015625q-0.296875 1.015625 -0.296875 1.546875q0 0.40625 0.390625 0.71875q0.265625 0.21875 1.328125 0.21875l1.875 0q3.046875 0 4.875 -1.078125q1.84375 -1.078125 3.296875 -3.75l0.578125 0l-2.0 5.890625l-16.375 0l0.203125 -0.578125q1.21875 -0.03125 1.640625 -0.21875q0.625 -0.28125 0.90625 -0.71875q0.421875 -0.640625 1.0 -2.6875l3.71875 -12.78125q0.4375 -1.546875 0.4375 -2.359375q0 -0.59375 -0.421875 -0.921875q-0.40625 -0.34375 -1.609375 -0.34375l-0.328125 0l0.1875 -0.578125l15.21875 0l-1.3125 5.109375l-0.578125 0q0.109375 -0.71875 0.109375 -1.203125q0 -0.828125 -0.40625 -1.390625q-0.53125 -0.71875 -1.546875 -1.09375q-0.75 -0.28125 -3.453125 -0.28125l-2.6875 0zm8.859375 23.5625q1.171875 -0.53125 1.90625 -1.34375q0.5625 -0.625 0.5625 -1.203125q0 -0.28125 -0.09375 -0.515625q-0.0625 -0.125 -0.4375 -0.5q-0.375 -0.375 -0.421875 -0.515625q-0.109375 -0.265625 -0.109375 -0.609375q0 -0.671875 0.453125 -1.15625q0.46875 -0.484375 1.09375 -0.484375q0.640625 0 1.125 0.515625q0.5 0.515625 0.5 1.296875q0 1.390625 -1.09375 2.8125q-1.09375 1.421875 -3.171875 2.203125l-0.3125 -0.5zm26.46875 -24.703125l1.953125 17.0625l12.296875 -17.0625l5.171875 0l0 0.578125q-1.6875 0.109375 -1.984375 0.21875q-0.515625 0.203125 -0.953125 0.8125q-0.421875 0.609375 -0.921875 2.34375l-3.921875 13.4375q-0.34375 1.171875 -0.34375 1.84375q0 0.609375 0.421875 0.921875q0.59375 0.453125 1.875 0.453125l0.375 0l-0.140625 0.578125l-8.921875 0l0.15625 -0.578125l0.421875 0q1.1875 0 1.8125 -0.34375q0.484375 -0.25 0.859375 -0.9375q0.390625 -0.703125 1.078125 -3.09375l3.5 -12.28125l-12.359375 17.234375l-0.625 0l-1.984375 -17.234375l-3.78125 13.109375q-0.484375 1.671875 -0.484375 2.25q0 0.578125 0.421875 0.890625q0.421875 0.296875 2.046875 0.40625l-0.171875 0.578125l-6.984375 0l0.171875 -0.578125l0.421875 0q1.546875 0 2.234375 -0.78125q0.5 -0.5625 1.046875 -2.4375l4.609375 -15.796875q-0.515625 -0.53125 -0.984375 -0.71875q-0.46875 -0.1875 -1.734375 -0.296875l0.15625 -0.578125l5.265625 0zm19.171875 18.390625q0.671875 0 1.125 0.46875q0.46875 0.453125 0.46875 1.109375q0 0.65625 -0.46875 1.125q-0.46875 0.453125 -1.125 0.453125q-0.65625 0 -1.125 -0.453125q-0.453125 -0.46875 -0.453125 -1.125q0 -0.65625 0.453125 -1.109375q0.46875 -0.46875 1.125 -0.46875z" fill-rule="nonzero"/><path fill="#000000" fill-opacity="0.0" d="m24.341558 174.79721l743.1181 0" fill-rule="evenodd"/><path stroke="#000000" stroke-width="3.0" stroke-linejoin="round" stroke-linecap="butt" d="m41.226387 174.79723l709.34845 0" fill-rule="evenodd"/><path fill="#000000" stroke="#000000" stroke-width="3.0" stroke-linecap="butt" d="m41.226387 174.79723l-7.1348305 -4.995865l-7.1348286 4.995865l7.1348286 4.995865z" fill-rule="evenodd"/><path fill="#000000" stroke="#000000" stroke-width="3.0" stroke-linecap="butt" d="m750.5748 174.79723l7.1348267 4.995865l7.1348267 -4.995865l-7.1348267 -4.995865z" fill-rule="evenodd"/><path fill="#000000" fill-opacity="0.0" d="m191.7874 57.217846l575.33856 0.062992096" fill-rule="evenodd"/><path stroke="#000000" stroke-width="3.0" stroke-linejoin="round" stroke-linecap="butt" d="m208.67223 57.2197l541.5689 0.059288025" fill-rule="evenodd"/><path fill="#000000" stroke="#000000" stroke-width="3.0" stroke-linecap="butt" d="m208.67223 57.219696l-7.1342773 -4.996643l-7.135376 4.995083l7.1342773 4.9966393z" fill-rule="evenodd"/><path fill="#000000" stroke="#000000" stroke-width="3.0" stroke-linecap="butt" d="m750.24115 57.27899l7.1342773 4.996643l7.135376 -4.995083l-7.1342773 -4.9966393z" fill-rule="evenodd"/></g></svg>