<svg version="1.1" viewBox="0.0 0.0 800.0 100.0" fill="none" stroke="none" stroke-linecap="square" stroke-miterlimit="10" xmlns:xlink="http://www.w3.org/1999/xlink" xmlns="http://www.w3.org/2000/svg"><clipPath id="p.0"><path d="m0 0l800.0 0l0 100.0l-800.0 0l0 -100.0z" clip-rule="nonzero"/></clipPath><g clip-path="url(#p.0)"><path fill="#000000" fill-opacity="0.0" d="m0 0l800.0 0l0 100.0l-800.0 0z" fill-rule="evenodd"/><path fill="#000000" fill-opacity="0.0" d="m33.90814 21.1916l717.3543 0l0 60.66142l-717.3543 0z" fill-rule="evenodd"/><path fill="#000000" d="m96.663414 57.382935l0.515625 0.109375l-1.8125 5.75l-16.40625 0l0 -0.578125l0.796875 0q1.34375 0 1.921875 -0.875q0.328125 -0.5 0.328125 -2.3125l0 -13.671875q0 -1.984375 -0.4375 -2.484375q-0.609375 -0.6875 -1.8125 -0.6875l-0.796875 0l0 -0.578125l9.59375 0l0 0.578125q-1.6875 -0.015625 -2.375 0.3125q-0.671875 0.328125 -0.921875 0.828125q-0.25 0.5 -0.25 2.390625l0 13.3125q0 1.296875 0.25 1.78125q0.1875 0.328125 0.578125 0.484375q0.390625 0.15625 2.4375 0.15625l1.546875 0q2.4375 0 3.421875 -0.359375q0.984375 -0.359375 1.796875 -1.265625q0.8125 -0.921875 1.625 -2.890625zm10.3125 3.796875q-2.203125 1.703125 -2.765625 1.96875q-0.84375 0.390625 -1.796875 0.390625q-1.484375 0 -2.453125 -1.015625q-0.953125 -1.015625 -0.953125 -2.671875q0 -1.046875 0.46875 -1.8125q0.640625 -1.0625 2.21875 -2.0q1.59375 -0.9375 5.28125 -2.28125l0 -0.5625q0 -2.140625 -0.6875 -2.9375q-0.671875 -0.796875 -1.96875 -0.796875q-0.984375 0 -1.5625 0.53125q-0.59375 0.53125 -0.59375 1.21875l0.03125 0.90625q0 0.71875 -0.375 1.109375q-0.359375 0.390625 -0.953125 0.390625q-0.578125 0 -0.953125 -0.40625q-0.359375 -0.40625 -0.359375 -1.109375q0 -1.34375 1.375 -2.46875q1.375 -1.125 3.859375 -1.125q1.90625 0 3.125 0.640625q0.921875 0.484375 1.359375 1.515625q0.28125 0.671875 0.28125 2.75l0 4.859375q0 2.046875 0.078125 2.515625q0.078125 0.453125 0.25 0.609375q0.1875 0.15625 0.421875 0.15625q0.25 0 0.4375 -0.109375q0.328125 -0.203125 1.265625 -1.140625l0 0.875q-1.75 2.34375 -3.34375 2.34375q-0.765625 0 -1.21875 -0.53125q-0.453125 -0.53125 -0.46875 -1.8125zm0 -1.015625l0 -5.453125q-2.359375 0.9375 -3.046875 1.328125q-1.234375 0.6875 -1.765625 1.4375q-0.53125 0.75 -0.53125 1.640625q0 1.125 0.671875 1.875q0.671875 0.734375 1.546875 0.734375q1.1875 0 3.125 -1.5625zm19.65625 -6.84375l0 6.171875q0 2.0 0.4375 2.484375q0.59375 0.6875 1.7968826 0.6875l0.8125 0l0 0.578125l-9.078133 0l0 -0.578125l0.796875 0q1.34375 0 1.921875 -0.875q0.3125 -0.484375 0.3125 -2.296875l0 -13.6875q0 -2.0 -0.421875 -2.484375q-0.609375 -0.6875 -1.8125 -0.6875l-0.796875 0l0 -0.578125l7.7656326 0q2.84375 0 4.484375 0.59375q1.640625 0.578125 2.765625 1.96875q1.125 1.390625 1.125 3.296875q0 2.59375 -1.71875 4.21875q-1.703125 1.625 -4.828125 1.625q-0.765625 0 -1.65625 -0.109375q-0.8906326 -0.109375 -1.9062576 -0.328125zm0 -0.890625q0.828125 0.15625 1.4687576 0.234375q0.640625 0.078125 1.09375 0.078125q1.625 0 2.796875 -1.25q1.1875 -1.265625 1.1875 -3.265625q0 -1.375 -0.5625 -2.546875q-0.5625 -1.1875 -1.59375 -1.765625q-1.03125 -0.59375 -2.34375 -0.59375q-0.7968826 0 -2.0468826 0.296875l0 8.8125zm32.859383 10.8125l-5.65625 0l-7.171875 -9.90625q-0.796875 0.03125 -1.296875 0.03125q-0.203125 0 -0.4375 0q-0.234375 -0.015625 -0.484375 -0.03125l0 6.15625q0 2.0 0.4375 2.484375q0.59375 0.6875 1.78125 0.6875l0.828125 0l0 0.578125l-9.078125 0l0 -0.578125l0.796875 0q1.34375 0 1.921875 -0.875q0.328125 -0.484375 0.328125 -2.296875l0 -13.6875q0 -2.0 -0.4375 -2.484375q-0.609375 -0.6875 -1.8125 -0.6875l-0.796875 0l0 -0.578125l7.71875 0q3.375 0 4.96875 0.5q1.609375 0.484375 2.71875 1.8125q1.125 1.3125 1.125 3.140625q0 1.953125 -1.28125 3.390625q-1.265625 1.4375 -3.9375 2.03125l4.375 6.078125q1.5 2.09375 2.578125 2.78125q1.078125 0.6875 2.8125 0.875l0 0.578125zm-15.046875 -10.890625q0.296875 0 0.515625 0.015625q0.21875 0 0.359375 0q3.03125 0 4.5625 -1.3125q1.546875 -1.3125 1.546875 -3.34375q0 -1.984375 -1.25 -3.21875q-1.234375 -1.25 -3.28125 -1.25q-0.90625 0 -2.453125 0.296875l0 8.8125zm21.453125 -9.140625l0 8.375l4.65625 0q1.8125 0 2.421875 -0.546875q0.8125 -0.71875 0.90625 -2.53125l0.578125 0l0 7.375l-0.578125 0q-0.21875 -1.546875 -0.4375 -1.984375q-0.28125 -0.546875 -0.921875 -0.859375q-0.640625 -0.3125 -1.96875 -0.3125l-4.65625 0l0 6.984375q0 1.40625 0.125 1.71875q0.125 0.296875 0.4375 0.484375q0.3125 0.171875 1.1875 0.171875l3.59375 0q1.796875 0 2.609375 -0.25q0.8125 -0.25 1.5625 -0.984375q0.96875 -0.96875 1.984375 -2.921875l0.625 0l-1.828125 5.3125l-16.328125 0l0 -0.578125l0.75 0q0.75 0 1.421875 -0.359375q0.5 -0.25 0.671875 -0.75q0.1875 -0.5 0.1875 -2.046875l0 -13.765625q0 -2.015625 -0.40625 -2.484375q-0.5625 -0.625 -1.875 -0.625l-0.75 0l0 -0.578125l16.328125 0l0.234375 4.640625l-0.609375 0q-0.328125 -1.671875 -0.734375 -2.296875q-0.390625 -0.625 -1.171875 -0.953125q-0.625 -0.234375 -2.203125 -0.234375l-5.8125 0zm25.953125 20.03125l-8.1875 -17.828125l0 14.15625q0 1.953125 0.421875 2.4375q0.578125 0.65625 1.828125 0.65625l0.75 0l0 0.578125l-7.375 0l0 -0.578125l0.75 0q1.34375 0 1.90625 -0.8125q0.34375 -0.5 0.34375 -2.28125l0 -13.84375q0 -1.40625 -0.3125 -2.03125q-0.21875 -0.453125 -0.8125 -0.75q-0.578125 -0.3125 -1.875 -0.3125l0 -0.578125l6.0 0l7.6875 16.578125l7.5625 -16.578125l6.0 0l0 0.578125l-0.734375 0q-1.359375 0 -1.921875 0.8125q-0.34375 0.5 -0.34375 2.28125l0 13.84375q0 1.953125 0.4375 2.4375q0.578125 0.65625 1.828125 0.65625l0.734375 0l0 0.578125l-9.0 0l0 -0.578125l0.75 0q1.359375 0 1.90625 -0.8125q0.34375 -0.5 0.34375 -2.28125l0 -14.15625l-8.171875 17.828125l-0.515625 0zm25.234375 -0.578125l0 0.578125l-9.078125 0l0 -0.578125l0.75 0q1.3125 0 1.90625 -0.765625q0.375 -0.5 0.375 -2.40625l0 -13.6875q0 -1.609375 -0.203125 -2.125q-0.15625 -0.390625 -0.640625 -0.671875q-0.6875 -0.375 -1.4375 -0.375l-0.75 0l0 -0.578125l9.078125 0l0 0.578125l-0.765625 0q-1.296875 0 -1.890625 0.765625q-0.390625 0.5 -0.390625 2.40625l0 13.6875q0 1.609375 0.203125 2.125q0.15625 0.390625 0.65625 0.671875q0.671875 0.375 1.421875 0.375l0.765625 0zm7.46875 -19.453125l0 8.375l4.65625 0q1.8125 0 2.421875 -0.546875q0.8125 -0.71875 0.90625 -2.53125l0.578125 0l0 7.375l-0.578125 0q-0.21875 -1.546875 -0.4375 -1.984375q-0.28125 -0.546875 -0.921875 -0.859375q-0.640625 -0.3125 -1.96875 -0.3125l-4.65625 0l0 6.984375q0 1.40625 0.125 1.71875q0.125 0.296875 0.4375 0.484375q0.3125 0.171875 1.1875 0.171875l3.59375 0q1.796875 0 2.609375 -0.25q0.8125 -0.25 1.5625 -0.984375q0.96875 -0.96875 1.984375 -2.921875l0.625 0l-1.828125 5.3125l-16.328125 0l0 -0.578125l0.75 0q0.75 0 1.421875 -0.359375q0.5 -0.25 0.671875 -0.75q0.1875 -0.5 0.1875 -2.046875l0 -13.765625q0 -2.015625 -0.40625 -2.484375q-0.5625 -0.625 -1.875 -0.625l-0.75 0l0 -0.578125l16.328125 0l0.234375 4.640625l-0.609375 0q-0.328125 -1.671875 -0.734375 -2.296875q-0.390625 -0.625 -1.171875 -0.953125q-0.625 -0.234375 -2.203125 -0.234375l-5.8125 0zm0.15625 -7.6875l3.484375 0l1.65625 5.390625l-0.546875 0l-4.59375 -5.390625zm34.328125 27.71875l-5.65625 0l-7.171875 -9.90625q-0.796875 0.03125 -1.296875 0.03125q-0.203125 0 -0.4375 0q-0.234375 -0.015625 -0.484375 -0.03125l0 6.15625q0 2.0 0.4375 2.484375q0.59375 0.6875 1.78125 0.6875l0.828125 0l0 0.578125l-9.078125 0l0 -0.578125l0.796875 0q1.34375 0 1.921875 -0.875q0.328125 -0.484375 0.328125 -2.296875l0 -13.6875q0 -2.0 -0.4375 -2.484375q-0.609375 -0.6875 -1.8125 -0.6875l-0.796875 0l0 -0.578125l7.71875 0q3.375 0 4.96875 0.5q1.609375 0.484375 2.71875 1.8125q1.125 1.3125 1.125 3.140625q0 1.953125 -1.28125 3.390625q-1.265625 1.4375 -3.9375 2.03125l4.375 6.078125q1.5 2.09375 2.578125 2.78125q1.078125 0.6875 2.8125 0.875l0 0.578125zm-15.046875 -10.890625q0.296875 0 0.515625 0.015625q0.21875 0 0.359375 0q3.03125 0 4.5625 -1.3125q1.546875 -1.3125 1.546875 -3.34375q0 -1.984375 -1.25 -3.21875q-1.234375 -1.25 -3.28125 -1.25q-0.90625 0 -2.453125 0.296875l0 8.8125zm21.453125 -9.140625l0 8.375l4.65625 0q1.8125 0 2.421875 -0.546875q0.8125 -0.71875 0.90625 -2.53125l0.578125 0l0 7.375l-0.578125 0q-0.21875 -1.546875 -0.4375 -1.984375q-0.28125 -0.546875 -0.921875 -0.859375q-0.640625 -0.3125 -1.96875 -0.3125l-4.65625 0l0 6.984375q0 1.40625 0.125 1.71875q0.125 0.296875 0.4375 0.484375q0.3125 0.171875 1.1875 0.171875l3.59375 0q1.796875 0 2.609375 -0.25q0.8125 -0.25 1.5625 -0.984375q0.96875 -0.96875 1.984375 -2.921875l0.625 0l-1.828125 5.3125l-16.328125 0l0 -0.578125l0.75 0q0.75 0 1.421875 -0.359375q0.5 -0.25 0.671875 -0.75q0.1875 -0.5 0.1875 -2.046875l0 -13.765625q0 -2.015625 -0.40625 -2.484375q-0.5625 -0.625 -1.875 -0.625l-0.75 0l0 -0.578125l16.328125 0l0.234375 4.640625l-0.609375 0q-0.328125 -1.671875 -0.734375 -2.296875q-0.390625 -0.625 -1.171875 -0.953125q-0.625 -0.234375 -2.203125 -0.234375l-5.8125 0zm27.421875 10.109375l0 6.171875q0 2.0 0.4375 2.484375q0.59375 0.6875 1.796875 0.6875l0.8125 0l0 0.578125l-9.078125 0l0 -0.578125l0.796875 0q1.34375 0 1.921875 -0.875q0.3125 -0.484375 0.3125 -2.296875l0 -13.6875q0 -2.0 -0.421875 -2.484375q-0.609375 -0.6875 -1.8125 -0.6875l-0.796875 0l0 -0.578125l7.765625 0q2.84375 0 4.484375 0.59375q1.640625 0.578125 2.765625 1.96875q1.125 1.390625 1.125 3.296875q0 2.59375 -1.71875 4.21875q-1.703125 1.625 -4.828125 1.625q-0.765625 0 -1.65625 -0.109375q-0.890625 -0.109375 -1.90625 -0.328125zm0 -0.890625q0.828125 0.15625 1.46875 0.234375q0.640625 0.078125 1.09375 0.078125q1.625 0 2.796875 -1.25q1.1875 -1.265625 1.1875 -3.265625q0 -1.375 -0.5625 -2.546875q-0.5625 -1.1875 -1.59375 -1.765625q-1.03125 -0.59375 -2.34375 -0.59375q-0.796875 0 -2.046875 0.296875l0 8.8125zm24.78125 -3.5l0 8.671875q0 2.484375 0.109375 3.046875q0.125 0.546875 0.375 0.765625q0.265625 0.21875 0.609375 0.21875q0.484375 0 1.09375 -0.265625l0.21875 0.546875l-4.28125 1.765625l-0.703125 0l0 -3.03125q-1.84375 2.0 -2.8125 2.515625q-0.96875 0.515625 -2.046875 0.515625q-1.203125 0 -2.09375 -0.6875q-0.875 -0.703125 -1.21875 -1.796875q-0.34375 -1.09375 -0.34375 -3.09375l0 -6.390625q0 -1.015625 -0.21875 -1.40625q-0.21875 -0.390625 -0.65625 -0.59375q-0.421875 -0.21875 -1.546875 -0.203125l0 -0.578125l5.015625 0l0 9.578125q0 2.0 0.6875 2.625q0.703125 0.625 1.6875 0.625q0.671875 0 1.515625 -0.421875q0.859375 -0.421875 2.03125 -1.609375l0 -8.109375q0 -1.21875 -0.453125 -1.640625q-0.4375 -0.4375 -1.84375 -0.46875l0 -0.578125l4.875 0zm7.375 2.46875q2.078125 -2.890625 4.484375 -2.890625q2.203125 0 3.84375 1.890625q1.640625 1.875 1.640625 5.140625q0 3.8125 -2.53125 6.140625q-2.171875 2.0 -4.84375 2.0q-1.25 0 -2.546875 -0.453125q-1.28125 -0.453125 -2.625 -1.359375l0 -14.828125q0 -2.4375 -0.125 -3.0q-0.109375 -0.5625 -0.359375 -0.765625q-0.25 -0.203125 -0.625 -0.203125q-0.4375 0 -1.09375 0.25l-0.21875 -0.546875l4.296875 -1.75l0.703125 0l0 10.375zm0 1.0l0 8.5625q0.796875 0.78125 1.640625 1.1875q0.859375 0.390625 1.75 0.390625q1.421875 0 2.640625 -1.5625q1.234375 -1.5625 1.234375 -4.546875q0 -2.75 -1.234375 -4.21875q-1.21875 -1.484375 -2.78125 -1.484375q-0.828125 0 -1.65625 0.421875q-0.625 0.3125 -1.59375 1.25zm17.0 -11.375l0 18.984375q0 1.34375 0.1875 1.78125q0.203125 0.4375 0.609375 0.671875q0.40625 0.21875 1.515625 0.21875l0 0.5625l-7.015625 0l0 -0.5625q0.984375 0 1.34375 -0.203125q0.359375 -0.203125 0.5625 -0.671875q0.203125 -0.46875 0.203125 -1.796875l0 -13.0q0 -2.421875 -0.109375 -2.96875q-0.109375 -0.5625 -0.359375 -0.765625q-0.234375 -0.203125 -0.609375 -0.203125q-0.40625 0 -1.03125 0.25l-0.265625 -0.546875l4.265625 -1.75l0.703125 0zm7.609375 0q0.65625 0 1.109375 0.46875q0.46875 0.453125 0.46875 1.109375q0 0.65625 -0.46875 1.125q-0.453125 0.46875 -1.109375 0.46875q-0.65625 0 -1.125 -0.46875q-0.46875 -0.46875 -0.46875 -1.125q0 -0.65625 0.453125 -1.109375q0.46875 -0.46875 1.140625 -0.46875zm1.296875 7.484375l0 11.5q0 1.34375 0.1875 1.796875q0.203125 0.4375 0.578125 0.65625q0.390625 0.21875 1.40625 0.21875l0 0.5625l-6.953125 0l0 -0.5625q1.046875 0 1.40625 -0.203125q0.359375 -0.203125 0.5625 -0.671875q0.21875 -0.46875 0.21875 -1.796875l0 -5.515625q0 -2.328125 -0.140625 -3.015625q-0.109375 -0.5 -0.34375 -0.6875q-0.234375 -0.203125 -0.640625 -0.203125q-0.4375 0 -1.0625 0.234375l-0.21875 -0.5625l4.3125 -1.75l0.6875 0zm16.109375 9.296875q-0.578125 2.828125 -2.265625 4.359375q-1.6875 1.515625 -3.734375 1.515625q-2.4375 0 -4.25 -2.046875q-1.8125 -2.046875 -1.8125 -5.53125q0 -3.375 2.0 -5.484375q2.015625 -2.109375 4.828125 -2.109375q2.109375 0 3.46875 1.125q1.359375 1.109375 1.359375 2.3125q0 0.59375 -0.390625 0.96875q-0.375 0.359375 -1.0625 0.359375q-0.921875 0 -1.390625 -0.59375q-0.265625 -0.328125 -0.359375 -1.25q-0.078125 -0.921875 -0.625 -1.40625q-0.546875 -0.46875 -1.515625 -0.46875q-1.5625 0 -2.515625 1.15625q-1.265625 1.53125 -1.265625 4.046875q0 2.5625 1.25 4.53125q1.265625 1.953125 3.40625 1.953125q1.53125 0 2.75 -1.046875q0.859375 -0.71875 1.671875 -2.609375l0.453125 0.21875zm10.15625 3.375q-2.203125 1.703125 -2.765625 1.96875q-0.84375 0.390625 -1.796875 0.390625q-1.484375 0 -2.453125 -1.015625q-0.953125 -1.015625 -0.953125 -2.671875q0 -1.046875 0.46875 -1.8125q0.640625 -1.0625 2.21875 -2.0q1.59375 -0.9375 5.28125 -2.28125l0 -0.5625q0 -2.140625 -0.6875 -2.9375q-0.671875 -0.796875 -1.96875 -0.796875q-0.984375 0 -1.5625 0.53125q-0.59375 0.53125 -0.59375 1.21875l0.03125 0.90625q0 0.71875 -0.375 1.109375q-0.359375 0.390625 -0.953125 0.390625q-0.578125 0 -0.953125 -0.40625q-0.359375 -0.40625 -0.359375 -1.109375q0 -1.34375 1.375 -2.46875q1.375 -1.125 3.859375 -1.125q1.90625 0 3.125 0.640625q0.921875 0.484375 1.359375 1.515625q0.28125 0.671875 0.28125 2.75l0 4.859375q0 2.046875 0.078125 2.515625q0.078125 0.453125 0.25 0.609375q0.1875 0.15625 0.421875 0.15625q0.25 0 0.4375 -0.109375q0.328125 -0.203125 1.265625 -1.140625l0 0.875q-1.75 2.34375 -3.34375 2.34375q-0.765625 0 -1.21875 -0.53125q-0.453125 -0.53125 -0.46875 -1.8125zm0 -1.015625l0 -5.453125q-2.359375 0.9375 -3.046875 1.328125q-1.234375 0.6875 -1.765625 1.4375q-0.53125 0.75 -0.53125 1.640625q0 1.125 0.671875 1.875q0.671875 0.734375 1.546875 0.734375q1.1875 0 3.125 -1.5625zm10.25 -15.9375l0 4.703125l3.34375 0l0 1.09375l-3.34375 0l0 9.28125q0 1.390625 0.390625 1.875q0.40625 0.484375 1.03125 0.484375q0.515625 0 1.0 -0.3125q0.484375 -0.328125 0.75 -0.953125l0.609375 0q-0.546875 1.53125 -1.546875 2.3125q-1.0 0.765625 -2.0625 0.765625q-0.71875 0 -1.40625 -0.390625q-0.6875 -0.40625 -1.015625 -1.140625q-0.328125 -0.75 -0.328125 -2.296875l0 -9.625l-2.265625 0l0 -0.515625q0.859375 -0.34375 1.75 -1.15625q0.90625 -0.828125 1.609375 -1.953125q0.359375 -0.59375 1.0 -2.171875l0.484375 0zm8.375 -3.203125q0.65625 0 1.109375 0.46875q0.46875 0.453125 0.46875 1.109375q0 0.65625 -0.46875 1.125q-0.453125 0.46875 -1.109375 0.46875q-0.65625 0 -1.125 -0.46875q-0.46875 -0.46875 -0.46875 -1.125q0 -0.65625 0.453125 -1.109375q0.46875 -0.46875 1.140625 -0.46875zm1.296875 7.484375l0 11.5q0 1.34375 0.1875 1.796875q0.203125 0.4375 0.578125 0.65625q0.390625 0.21875 1.40625 0.21875l0 0.5625l-6.953125 0l0 -0.5625q1.046875 0 1.40625 -0.203125q0.359375 -0.203125 0.5625 -0.671875q0.21875 -0.46875 0.21875 -1.796875l0 -5.515625q0 -2.328125 -0.140625 -3.015625q-0.109375 -0.5 -0.34375 -0.6875q-0.234375 -0.203125 -0.640625 -0.203125q-0.4375 0 -1.0625 0.234375l-0.21875 -0.5625l4.3125 -1.75l0.6875 0zm10.953125 0q3.25 0 5.21875 2.46875q1.671875 2.109375 1.671875 4.84375q0 1.921875 -0.921875 3.890625q-0.921875 1.96875 -2.546875 2.96875q-1.609375 1.0 -3.59375 1.0q-3.234375 0 -5.140625 -2.578125q-1.609375 -2.171875 -1.609375 -4.875q0 -1.96875 0.96875 -3.90625q0.984375 -1.953125 2.578125 -2.875q1.59375 -0.9375 3.375 -0.9375zm-0.484375 1.015625q-0.828125 0 -1.671875 0.5q-0.828125 0.484375 -1.34375 1.71875q-0.515625 1.234375 -0.515625 3.171875q0 3.125 1.234375 5.390625q1.25 2.265625 3.28125 2.265625q1.515625 0 2.5 -1.25q0.984375 -1.25 0.984375 -4.296875q0 -3.8125 -1.640625 -6.0q-1.109375 -1.5 -2.828125 -1.5zm13.65625 2.015625q2.515625 -3.03125 4.796875 -3.03125q1.171875 0 2.015625 0.59375q0.84375 0.578125 1.34375 1.921875q0.34375 0.9375 0.34375 2.875l0 6.109375q0 1.359375 0.21875 1.84375q0.171875 0.390625 0.546875 0.609375q0.390625 0.21875 1.421875 0.21875l0 0.5625l-7.078125 0l0 -0.5625l0.296875 0q1.0 0 1.390625 -0.296875q0.40625 -0.3125 0.5625 -0.90625q0.0625 -0.234375 0.0625 -1.46875l0 -5.859375q0 -1.953125 -0.515625 -2.828125q-0.5 -0.890625 -1.703125 -0.890625q-1.859375 0 -3.703125 2.03125l0 7.546875q0 1.453125 0.171875 1.796875q0.21875 0.453125 0.59375 0.671875q0.390625 0.203125 1.5625 0.203125l0 0.5625l-7.078125 0l0 -0.5625l0.3125 0q1.09375 0 1.46875 -0.546875q0.390625 -0.5625 0.390625 -2.125l0 -5.3125q0 -2.578125 -0.125 -3.140625q-0.109375 -0.5625 -0.359375 -0.765625q-0.234375 -0.203125 -0.640625 -0.203125q-0.4375 0 -1.046875 0.234375l-0.234375 -0.5625l4.3125 -1.75l0.671875 0l0 3.03125zm30.640625 -10.515625l0 29.125l-1.296875 0l0 -29.125l1.296875 0z" fill-rule="nonzero"/><path fill="#000000" d="m483.8353 41.61731l-5.03125 17.515625q-0.4375 1.546875 -0.4375 2.234375q0 0.578125 0.390625 0.890625q0.40625 0.296875 1.875 0.40625l-0.15625 0.578125l-8.046875 0l0.21875 -0.578125q1.28125 -0.03125 1.6875 -0.203125q0.65625 -0.28125 0.984375 -0.75q0.515625 -0.71875 1.046875 -2.578125l3.625 -12.578125q0.328125 -1.140625 0.359375 -1.3125q0.046875 -0.3125 0.046875 -0.609375q0 -0.546875 -0.296875 -0.859375q-0.296875 -0.3125 -0.8125 -0.3125q-0.40625 0 -1.265625 0.1875l-0.203125 -0.5625l5.265625 -1.46875l0.75 0zm10.890625 0.4375l7.078125 0l-0.71875 2.578125l-6.359375 0l-1.171875 2.609375q2.53125 0.40625 3.9375 1.578125q2.171875 1.828125 2.171875 5.109375q0 2.171875 -0.8125 3.9375q-0.796875 1.75 -1.96875 2.9375q-1.15625 1.1875 -2.484375 1.875q-1.8125 0.9375 -3.65625 0.9375q-1.578125 0 -2.5 -0.6875q-0.625 -0.46875 -0.625 -1.1875q0 -0.5625 0.40625 -0.953125q0.40625 -0.40625 1.0 -0.40625q0.828125 0 1.84375 0.828125q0.625 0.515625 1.03125 0.6875q0.328125 0.140625 0.78125 0.140625q1.765625 0 3.25 -1.75q1.484375 -1.765625 1.484375 -4.578125q0 -1.953125 -0.796875 -3.328125q-0.78125 -1.375 -2.0 -1.9375q-1.21875 -0.5625 -3.25 -0.78125l3.359375 -7.609375zm33.06247 -1.03125l-5.375 18.4375q-0.4375 1.5 -0.4375 1.96875q0 0.15625 0.125 0.296875q0.140625 0.140625 0.28125 0.140625q0.203125 0 0.484375 -0.203125q0.53125 -0.375 1.78125 -1.875l0.53125 0.328125q-1.125 1.5625 -2.28125 2.53125q-1.140625 0.96875 -2.140625 0.96875q-0.53125 0 -0.875 -0.375q-0.34375 -0.375 -0.34375 -1.0625q0 -0.890625 0.46875 -2.390625l0.609375 -1.9375q-2.265625 3.5 -4.125 4.84375q-1.28125 0.921875 -2.453125 0.921875q-1.1875 0 -2.0780945 -1.046875q-0.875 -1.0625 -0.875 -2.875q0 -2.328125 1.4843445 -4.96875q1.484375 -2.640625 3.921875 -4.296875q1.921875 -1.328125 3.53125 -1.328125q0.84375 0 1.453125 0.34375q0.609375 0.34375 1.203125 1.140625l1.53125 -5.4375q0.171875 -0.578125 0.28125 -0.921875q0.1875 -0.625 0.1875 -1.03125q0 -0.328125 -0.234375 -0.546875q-0.328125 -0.265625 -0.84375 -0.265625q-0.359375 0 -1.1875 0.109375l0 -0.578125l5.375 -0.890625zm-5.796875 11.09375q0 -1.0 -0.578125 -1.609375q-0.578125 -0.609375 -1.46875 -0.609375q-1.96875 0 -4.109375 3.25q-2.125 3.25 -2.125 6.21875q0 1.171875 0.515625 1.796875q0.515625 0.609375 1.234375 0.609375q1.625 0 4.078125 -3.515625q2.453125 -3.515625 2.453125 -6.140625zm8.296875 5.234375q-0.109375 0.78125 -0.109375 1.296875q0 1.390625 0.984375 2.375q0.984375 0.96875 2.390625 0.96875q1.125 0 2.15625 -0.453125q1.046875 -0.46875 3.09375 -2.046875l0.328125 0.453125q-3.703125 3.671875 -7.0625 3.671875q-2.28125 0 -3.4375 -1.4375q-1.15625 -1.4375 -1.15625 -3.171875q0 -2.328125 1.4375 -4.765625q1.4375 -2.4375 3.609375 -3.78125q2.171875 -1.359375 4.46875 -1.359375q1.65625 0 2.453125 0.671875q0.796875 0.671875 0.796875 1.59375q0 1.296875 -1.03125 2.484375q-1.359375 1.546875 -4.0 2.5q-1.75 0.640625 -4.921875 1.0zm0.109375 -0.765625q2.3125 -0.265625 3.765625 -0.90625q1.921875 -0.859375 2.875 -2.046875q0.96875 -1.203125 0.96875 -2.28125q0 -0.65625 -0.421875 -1.0625q-0.40625 -0.40625 -1.171875 -0.40625q-1.59375 0 -3.390625 1.703125q-1.78125 1.6875 -2.625 5.0zm9.59375 -15.25l-4.59375 5.359375l-0.53125 0l1.609375 -5.359375l3.515625 0zm13.046875 18.5q-1.625 1.953125 -3.28125 2.875q-1.65625 0.90625 -3.5 0.90625q-2.21875 0 -3.46875 -1.25q-1.234375 -1.25 -1.234375 -3.359375q0 -2.390625 1.328125 -4.703125q1.34375 -2.3125 3.59375 -3.75q2.265625 -1.453125 4.4375 -1.453125q1.703125 0 2.546875 0.71875q0.84375 0.703125 0.84375 1.734375q0 0.96875 -0.59375 1.65625q-0.4375 0.53125 -1.078125 0.53125q-0.484375 0 -0.8125 -0.3125q-0.3125 -0.3125 -0.3125 -0.78125q0 -0.296875 0.109375 -0.546875q0.125 -0.25 0.484375 -0.59375q0.375 -0.359375 0.453125 -0.515625q0.078125 -0.15625 0.078125 -0.328125q0 -0.328125 -0.296875 -0.546875q-0.453125 -0.3125 -1.28125 -0.3125q-1.53125 0 -3.03125 1.078125q-1.5 1.078125 -2.5625 3.0625q-1.28125 2.40625 -1.28125 4.8125q0 1.59375 0.90625 2.53125q0.90625 0.921875 2.46875 0.921875q1.203125 0 2.375 -0.59375q1.1875 -0.609375 2.65625 -2.1875l0.453125 0.40625zm5.65625 -2.484375q-0.109375 0.78125 -0.109375 1.296875q0 1.390625 0.984375 2.375q0.984375 0.96875 2.390625 0.96875q1.125 0 2.15625 -0.453125q1.046875 -0.46875 3.09375 -2.046875l0.328125 0.453125q-3.703125 3.671875 -7.0625 3.671875q-2.28125 0 -3.4375 -1.4375q-1.15625 -1.4375 -1.15625 -3.171875q0 -2.328125 1.4375 -4.765625q1.4375 -2.4375 3.609375 -3.78125q2.171875 -1.359375 4.46875 -1.359375q1.65625 0 2.453125 0.671875q0.796875 0.671875 0.796875 1.59375q0 1.296875 -1.03125 2.484375q-1.359375 1.546875 -4.0 2.5q-1.75 0.640625 -4.921875 1.0zm0.109375 -0.765625q2.3125 -0.265625 3.765625 -0.90625q1.921875 -0.859375 2.875 -2.046875q0.96875 -1.203125 0.96875 -2.28125q0 -0.65625 -0.421875 -1.0625q-0.40625 -0.40625 -1.171875 -0.40625q-1.59375 0 -3.390625 1.703125q-1.78125 1.6875 -2.625 5.0zm17.21875 -7.484375l-2.03125 7.046875q1.359375 -2.484375 2.3125 -3.734375q1.484375 -1.9375 2.890625 -2.8125q0.828125 -0.5 1.734375 -0.5q0.78125 0 1.296875 0.5q0.515625 0.5 0.515625 1.28125q0 0.765625 -0.359375 2.0l-1.109375 3.96875q2.546875 -4.765625 4.828125 -6.6875q1.265625 -1.0625 2.5 -1.0625q0.71875 0 1.171875 0.5q0.46875 0.484375 0.46875 1.515625q0 0.90625 -0.28125 1.921875l-1.71875 6.078125q-0.5625 1.984375 -0.5625 2.203125q0 0.21875 0.140625 0.375q0.09375 0.109375 0.25 0.109375q0.15625 0 0.546875 -0.296875q0.890625 -0.6875 1.671875 -1.8125l0.515625 0.328125q-0.390625 0.625 -1.390625 1.71875q-0.984375 1.09375 -1.6875 1.484375q-0.703125 0.390625 -1.296875 0.390625q-0.546875 0 -0.921875 -0.375q-0.359375 -0.375 -0.359375 -0.921875q0 -0.75 0.640625 -3.015625l1.421875 -5.015625q0.484375 -1.734375 0.515625 -1.921875q0.046875 -0.296875 0.046875 -0.578125q0 -0.390625 -0.171875 -0.609375q-0.1875 -0.21875 -0.421875 -0.21875q-0.65625 0 -1.390625 0.671875q-2.15625 1.984375 -4.03125 5.5625q-1.234375 2.359375 -2.3125 6.046875l-2.359375 0l2.671875 -9.453125q0.4375 -1.53125 0.4375 -2.046875q0 -0.421875 -0.171875 -0.625q-0.171875 -0.203125 -0.421875 -0.203125q-0.515625 0 -1.09375 0.375q-0.9375 0.609375 -2.421875 2.609375q-1.46875 2.0 -2.28125 3.828125q-0.390625 0.859375 -1.859375 5.515625l-2.3125 0l2.890625 -10.125l0.375 -1.3125q0.109375 -0.296875 0.109375 -0.4375q0 -0.34375 -0.3125 -0.609375q-0.3125 -0.28125 -0.796875 -0.28125q-0.203125 0 -1.125 0.1875l-0.140625 -0.578125l5.390625 -0.984375zm25.40625 -8.078125l-3.078125 10.796875q1.5 -1.5625 2.609375 -2.140625q1.125 -0.578125 2.34375 -0.578125q1.71875 0 2.8125 1.140625q1.09375 1.140625 1.09375 3.09375q0 2.515625 -1.4375 5.015625q-1.4375 2.484375 -3.609375 3.875q-2.171875 1.390625 -4.28125 1.390625q-2.359375 0 -4.84375 -1.765625l4.75 -16.359375q0.546875 -1.890625 0.546875 -2.21875q0 -0.40625 -0.25 -0.609375q-0.359375 -0.28125 -1.0625 -0.28125q-0.328125 0 -1.0 0.109375l0 -0.59375l5.40625 -0.875zm-6.046875 21.0q1.5625 0.859375 2.75 0.859375q1.375 0 2.84375 -1.0q1.484375 -1.015625 2.5625 -3.40625q1.09375 -2.390625 1.09375 -4.828125q0 -1.4375 -0.71875 -2.25q-0.703125 -0.8125 -1.671875 -0.8125q-1.453125 0 -2.84375 1.171875q-1.390625 1.15625 -1.984375 3.234375l-2.03125 7.03125zm14.484375 -12.046875l5.390625 -0.875l-2.25 7.59375q2.734375 -4.671875 4.96875 -6.53125q1.265625 -1.0625 2.0625 -1.0625q0.515625 0 0.8125 0.3125q0.296875 0.296875 0.296875 0.875q0 1.03125 -0.53125 1.96875q-0.375 0.703125 -1.078125 0.703125q-0.359375 0 -0.625 -0.234375q-0.25 -0.234375 -0.3125 -0.71875q-0.03125 -0.296875 -0.140625 -0.390625q-0.125 -0.125 -0.296875 -0.125q-0.265625 0 -0.5 0.125q-0.40625 0.21875 -1.234375 1.21875q-1.296875 1.53125 -2.8125 3.96875q-0.65625 1.03125 -1.125 2.328125q-0.65625 1.78125 -0.75 2.140625l-0.5 1.96875l-2.390625 0l2.890625 -9.703125q0.5 -1.6875 0.5 -2.40625q0 -0.28125 -0.234375 -0.46875q-0.3125 -0.25 -0.828125 -0.25q-0.328125 0 -1.203125 0.140625l-0.109375 -0.578125zm14.59375 7.375q-0.109375 0.78125 -0.109375 1.296875q0 1.390625 0.984375 2.375q0.984375 0.96875 2.390625 0.96875q1.125 0 2.15625 -0.453125q1.046875 -0.46875 3.09375 -2.046875l0.328125 0.453125q-3.703125 3.671875 -7.0625 3.671875q-2.28125 0 -3.4375 -1.4375q-1.15625 -1.4375 -1.15625 -3.171875q0 -2.328125 1.4375 -4.765625q1.4375 -2.4375 3.609375 -3.78125q2.171875 -1.359375 4.46875 -1.359375q1.65625 0 2.453125 0.671875q0.796875 0.671875 0.796875 1.59375q0 1.296875 -1.03125 2.484375q-1.359375 1.546875 -4.0 2.5q-1.75 0.640625 -4.921875 1.0zm0.109375 -0.765625q2.3125 -0.265625 3.765625 -0.90625q1.921875 -0.859375 2.875 -2.046875q0.96875 -1.203125 0.96875 -2.28125q0 -0.65625 -0.421875 -1.0625q-0.40625 -0.40625 -1.171875 -0.40625q-1.59375 0 -3.390625 1.703125q-1.78125 1.6875 -2.625 5.0zm29.328125 6.65625l-10.546875 0l0 -0.578125q8.0625 -7.0625 10.65625 -11.078125q1.203125 -1.859375 1.203125 -3.90625q0 -1.625 -1.0 -2.640625q-1.0 -1.03125 -2.59375 -1.03125q-2.203125 0 -3.625 2.109375l-0.546875 -0.25q0.796875 -2.015625 2.328125 -3.125q1.53125 -1.125 3.3125 -1.125q2.015625 0 3.390625 1.390625q1.375 1.375 1.375 3.34375q0 1.375 -0.484375 2.546875q-0.75 1.828125 -2.765625 4.09375q-3.0625 3.46875 -8.171875 7.984375l5.3125 0q1.28125 0 2.109375 -0.53125q0.828125 -0.53125 1.1875 -1.421875l0.625 0l-1.765625 4.21875zm16.015625 -21.625q2.0 0 3.359375 1.671875q1.375 1.671875 1.375 5.28125q0 3.09375 -1.015625 6.3125q-1.015625 3.21875 -2.859375 5.578125q-1.46875 1.859375 -3.078125 2.6875q-0.9375 0.46875 -2.171875 0.46875q-2.03125 0 -3.40625 -1.671875q-1.359375 -1.671875 -1.359375 -5.296875q0 -3.578125 1.375 -7.1875q1.609375 -4.21875 4.109375 -6.40625q1.640625 -1.4375 3.671875 -1.4375zm0.015625 0.8125q-0.90625 0 -1.84375 0.71875q-0.921875 0.703125 -1.921875 2.953125q-0.984375 2.25 -1.890625 5.796875q-1.171875 4.640625 -1.171875 7.90625q0 1.625 0.703125 2.4375q0.703125 0.796875 1.703125 0.796875q0.953125 0 1.625 -0.625q1.796875 -1.6875 3.078125 -5.765625q2.078125 -6.671875 2.078125 -10.84375q0 -1.734375 -0.703125 -2.546875q-0.703125 -0.828125 -1.65625 -0.828125zm18.28125 -0.8125l-5.03125 17.515625q-0.4375 1.546875 -0.4375 2.234375q0 0.578125 0.390625 0.890625q0.40625 0.296875 1.875 0.40625l-0.15625 0.578125l-8.046875 0l0.21875 -0.578125q1.28125 -0.03125 1.6875 -0.203125q0.65625 -0.28125 0.984375 -0.75q0.515625 -0.71875 1.046875 -2.578125l3.625 -12.578125q0.328125 -1.140625 0.359375 -1.3125q0.046875 -0.3125 0.046875 -0.609375q0 -0.546875 -0.296875 -0.859375q-0.296875 -0.3125 -0.8125 -0.3125q-0.40625 0 -1.265625 0.1875l-0.203125 -0.5625l5.265625 -1.46875l0.75 0zm13.4375 9.765625q1.5 1.625 2.1875 3.046875q0.703125 1.421875 0.703125 2.84375q0 2.546875 -1.9375 4.453125q-1.9375 1.890625 -4.78125 1.890625q-2.546875 0 -4.15625 -1.546875q-1.59375 -1.546875 -1.59375 -3.609375q0 -1.765625 1.296875 -3.46875q1.3125 -1.703125 4.9375 -3.28125q-1.390625 -1.703125 -1.890625 -2.8125q-0.484375 -1.109375 -0.484375 -2.203125q0 -2.078125 1.546875 -3.578125q1.5625 -1.5 3.921875 -1.5q2.25 0 3.671875 1.296875q1.421875 1.296875 1.421875 3.03125q0 1.71875 -1.15625 3.125q-1.140625 1.40625 -3.6875 2.3125zm-0.609375 -0.65625q1.6875 -0.578125 2.609375 -1.890625q0.9375 -1.3125 0.9375 -3.015625q0 -1.59375 -0.90625 -2.5q-0.890625 -0.921875 -2.34375 -0.921875q-1.390625 0 -2.25 0.875q-0.859375 0.875 -0.859375 2.265625q0 1.046875 0.453125 1.9375q0.65625 1.3125 2.359375 3.25zm-2.15625 1.625q-2.328125 0.96875 -3.53125 2.8125q-1.1875 1.828125 -1.1875 3.9375q0 1.703125 1.046875 2.75q1.0625 1.03125 2.78125 1.03125q1.78125 0 3.0 -1.25q1.21875 -1.25 1.21875 -2.984375q0 -1.3125 -0.71875 -2.75q-0.703125 -1.453125 -2.609375 -3.546875z" fill-rule="nonzero"/><path fill="#000000" fill-opacity="0.0" d="m24.341558 87.398605l743.1181 0" fill-rule="evenodd"/><path stroke="#000000" stroke-width="3.0" stroke-linejoin="round" stroke-linecap="butt" d="m41.226387 87.39861l709.34845 0" fill-rule="evenodd"/><path fill="#000000" stroke="#000000" stroke-width="3.0" stroke-linecap="butt" d="m41.226387 87.39861l-7.1348305 -4.995865l-7.1348286 4.995865l7.1348286 4.9958572z" fill-rule="evenodd"/><path fill="#000000" stroke="#000000" stroke-width="3.0" stroke-linecap="butt" d="m750.5748 87.39861l7.1348267 4.9958572l7.1348267 -4.9958572l-7.1348267 -4.995865z" fill-rule="evenodd"/><path fill="#000000" fill-opacity="0.0" d="m24.341558 15.398608l743.1181 0" fill-rule="evenodd"/><path stroke="#000000" stroke-width="3.0" stroke-linejoin="round" stroke-linecap="butt" d="m41.226387 15.398608l709.34845 0" fill-rule="evenodd"/><path fill="#000000" stroke="#000000" stroke-width="3.0" stroke-linecap="butt" d="m41.226387 15.398608l-7.1348305 -4.995862l-7.1348286 4.995862l7.1348286 4.995862z" fill-rule="evenodd"/><path fill="#000000" stroke="#000000" stroke-width="3.0" stroke-linecap="butt" d="m750.5748 15.398608l7.1348267 4.995862l7.1348267 -4.995862l-7.1348267 -4.995862z" fill-rule="evenodd"/></g></svg>