<svg version="1.1" viewBox="0.0 0.0 800.0 100.0" fill="none" stroke="none" stroke-linecap="square" stroke-miterlimit="10" xmlns:xlink="http://www.w3.org/1999/xlink" xmlns="http://www.w3.org/2000/svg"><clipPath id="p.0"><path d="m0 0l800.0 0l0 100.0l-800.0 0l0 -100.0z" clip-rule="nonzero"/></clipPath><g clip-path="url(#p.0)"><path fill="#000000" fill-opacity="0.0" d="m0 0l800.0 0l0 100.0l-800.0 0z" fill-rule="evenodd"/><path fill="#000000" fill-opacity="0.0" d="m0 6.2834644l800.0 0l0 87.433075l-800.0 0z" fill-rule="evenodd"/><path fill="#000000" d="m72.97949 26.100626l-11.953125 41.59375q-1.046875 3.671875 -1.046875 5.3125q0 1.375 0.953125 2.09375q0.953125 0.71875 4.4375 0.984375l-0.375 1.375l-19.109375 0l0.515625 -1.375q3.046875 -0.078125 4.015625 -0.484375q1.546875 -0.671875 2.328125 -1.78125q1.234375 -1.703125 2.484375 -6.125l8.609375 -29.874996q0.78125 -2.703125 0.859375 -3.109375q0.109375 -0.75 0.109375 -1.453125q0 -1.2968769 -0.703125 -2.031252q-0.703125 -0.75 -1.921875 -0.75q-0.96875 0 -3.015625 0.453125l-0.484375 -1.34375l12.515625 -3.484375l1.78125 0zm15.328125 37.375q-0.265625 1.8437462 -0.265625 3.0781212q0 3.296875 2.328125 5.625q2.34375 2.3125 5.6875 2.3125q2.671875 0 5.140625 -1.09375q2.46875 -1.09375 7.328125 -4.84375l0.78125 1.078125q-8.796875 8.71875 -16.78125 8.71875q-5.40625 0 -8.15625 -3.40625q-2.75 -3.421875 -2.75 -7.546875q0 -5.531246 3.40625 -11.312496q3.421875 -5.796875 8.578125 -9.0q5.15625 -3.203125 10.609375 -3.203125q3.9375 0 5.828125 1.59375q1.890625 1.59375 1.890625 3.78125q0 3.078125 -2.4375 5.90625q-3.234375 3.671875 -9.5 5.9375q-4.15625 1.515625 -11.6875 2.375zm0.25 -1.828125q5.5 -0.625 8.953125 -2.15625q4.5625 -2.03125 6.84375 -4.875q2.28125 -2.84375 2.28125 -5.390625q0 -1.5625 -0.984375 -2.53125q-0.984375 -0.96875 -2.796875 -0.96875q-3.796875 0 -8.046875 4.03125q-4.25 4.03125 -6.25 11.890625zm16.25 -36.21875l4.046875 12.765627l-1.1875 0l-11.0625 -12.765627l8.203125 0zm12.138672 20.531252l12.8125 -2.078125l-5.34375 18.03125q6.484375 -11.09375 11.796875 -15.515625q3.0 -2.515625 4.890625 -2.515625q1.234375 0 1.9375 0.71875q0.703125 0.71875 0.703125 2.09375q0 2.453125 -1.265625 4.671875q-0.890625 1.671875 -2.5625 1.671875q-0.84375 0 -1.46875 -0.546875q-0.609375 -0.5625 -0.75 -1.71875q-0.078125 -0.703125 -0.34375 -0.921875q-0.296875 -0.296875 -0.703125 -0.296875q-0.625 0 -1.1875 0.296875q-0.953125 0.515625 -2.921875 2.890625q-3.078125 3.640625 -6.6875 9.421875q-1.5625 2.4531212 -2.671875 5.531246q-1.5625 4.234375 -1.78125 5.09375l-1.1875 4.671875l-5.671875 0l6.859375 -23.046871q1.1875 -4.0 1.1875 -5.71875q0 -0.65625 -0.546875 -1.109375q-0.75 -0.59375 -1.96875 -0.59375q-0.78125 0 -2.859375 0.328125l-0.265625 -1.359375zm34.66992 17.515625q-0.265625 1.8437462 -0.265625 3.0781212q0 3.296875 2.328125 5.625q2.34375 2.3125 5.6875 2.3125q2.671875 0 5.140625 -1.09375q2.46875 -1.09375 7.328125 -4.84375l0.78125 1.078125q-8.796875 8.71875 -16.78125 8.71875q-5.40625 0 -8.15625 -3.40625q-2.75 -3.421875 -2.75 -7.546875q0 -5.531246 3.40625 -11.312496q3.421875 -5.796875 8.578125 -9.0q5.15625 -3.203125 10.609375 -3.203125q3.9375 0 5.828125 1.59375q1.890625 1.59375 1.890625 3.78125q0 3.078125 -2.4375 5.90625q-3.234375 3.671875 -9.5 5.9375q-4.15625 1.515625 -11.6875 2.375zm0.25 -1.828125q5.5 -0.625 8.953125 -2.15625q4.5625 -2.03125 6.84375 -4.875q2.28125 -2.84375 2.28125 -5.390625q0 -1.5625 -0.984375 -2.53125q-0.984375 -0.96875 -2.796875 -0.96875q-3.796875 0 -8.046875 4.03125q-4.25 4.03125 -6.25 11.890625z" fill-rule="nonzero"/><path fill="#000000" d="m206.00488 42.428753q1.71875 0 2.921875 1.203125q1.203125 1.203125 1.203125 2.921875q0 1.703125 -1.203125 2.90625q-1.203125 1.203125 -2.921875 1.203125q-1.703125 0 -2.90625 -1.203125q-1.203125 -1.203125 -1.203125 -2.90625q0 -1.71875 1.203125 -2.921875q1.203125 -1.203125 2.90625 -1.203125zm-0.0625 27.796871q1.734375 0 2.9375 1.234375q1.21875 1.21875 1.21875 2.921875q0 1.703125 -1.234375 2.921875q-1.21875 1.203125 -2.921875 1.203125q-1.71875 0 -2.921875 -1.203125q-1.203125 -1.21875 -1.203125 -2.921875q0 -1.703125 1.203125 -2.921875q1.203125 -1.234375 2.921875 -1.234375zm37.09961 -43.09375l26.984375 0l0 1.421875l-16.78125 49.953125l-4.15625 0l15.03125 -45.312496l-13.84375 0q-4.1875 0 -5.96875 1.0q-3.109375 1.703125 -5.015625 5.265625l-1.0625 -0.40625l4.8125 -11.921877zm75.75 46.5q-2.484375 2.609375 -4.859375 3.75q-2.375 1.125 -5.125 1.125q-5.5625 0 -9.71875 -4.65625q-4.15625 -4.671875 -4.15625 -11.984371q0 -7.296875 4.59375 -13.359375q4.609375 -6.078125 11.84375 -6.078125q4.484375 0 7.421875 2.859375l0 -6.28125q0 -5.8125 -0.28125 -7.140627q-0.28125 -1.34375 -0.875 -1.828125q-0.59375 -0.484375 -1.484375 -0.484375q-0.96875 0 -2.5625 0.59375l-0.484375 -1.296875l10.140625 -4.15625l1.671875 0l0 39.296875q0 5.968746 0.265625 7.296871q0.28125 1.3125 0.890625 1.828125q0.625 0.515625 1.4375 0.515625q1.0 0 2.671875 -0.625l0.40625 1.296875l-10.09375 4.203125l-1.703125 0l0 -4.875zm0 -2.59375l0 -17.515621q-0.234375 -2.515625 -1.34375 -4.59375q-1.109375 -2.078125 -2.953125 -3.140625q-1.828125 -1.0625 -3.578125 -1.0625q-3.265625 0 -5.828125 2.9375q-3.375 3.859375 -3.375 11.28125q0 7.499996 3.265625 11.484371q3.265625 3.984375 7.28125 3.984375q3.375 0 6.53125 -3.375zm19.703125 -14.765621q-0.046875 7.5625 3.671875 11.874996q3.703125 4.296875 8.71875 4.296875q3.34375 0 5.8125 -1.828125q2.46875 -1.84375 4.140625 -6.296875l1.140625 0.75q-0.78125 5.078125 -4.53125 9.265625q-3.734375 4.171875 -9.375 4.171875q-6.125 0 -10.484375 -4.765625q-4.359375 -4.78125 -4.359375 -12.828121q0 -8.71875 4.46875 -13.59375q4.46875 -4.890625 11.21875 -4.890625q5.71875 0 9.390625 3.765625q3.671875 3.765625 3.671875 10.078125l-23.484375 0zm0 -2.15625l15.734375 0q-0.1875 -3.265625 -0.78125 -4.59375q-0.921875 -2.078125 -2.765625 -3.265625q-1.84375 -1.1875 -3.84375 -1.1875q-3.078125 0 -5.515625 2.390625q-2.421875 2.390625 -2.828125 6.65625zm17.875 -28.234377l-10.953125 12.796877l-1.25 0l3.890625 -12.796877l8.3125 0zm39.01367 38.65625q-1.375 6.71875 -5.390625 10.34375q-4.0 3.625 -8.859375 3.625q-5.796875 0 -10.109375 -4.859375q-4.296875 -4.875 -4.296875 -13.140621q0 -8.015625 4.765625 -13.03125q4.78125 -5.015625 11.453125 -5.015625q5.015625 0 8.234375 2.65625q3.234375 2.65625 3.234375 5.515625q0 1.40625 -0.90625 2.28125q-0.90625 0.875 -2.546875 0.875q-2.1875 0 -3.296875 -1.421875q-0.640625 -0.765625 -0.84375 -2.953125q-0.203125 -2.203125 -1.5 -3.34375q-1.296875 -1.125 -3.59375 -1.125q-3.71875 0 -5.984375 2.75q-3.0 3.640625 -3.0 9.609375q0 6.09375 2.984375 10.749996q2.984375 4.65625 8.078125 4.65625q3.640625 0 6.53125 -2.484375q2.03125 -1.703125 3.96875 -6.203125l1.078125 0.515625zm10.576172 -8.265621q-0.046875 7.5625 3.671875 11.874996q3.703125 4.296875 8.71875 4.296875q3.34375 0 5.8125 -1.828125q2.46875 -1.84375 4.140625 -6.296875l1.140625 0.75q-0.78125 5.078125 -4.53125 9.265625q-3.734375 4.171875 -9.375 4.171875q-6.125 0 -10.484375 -4.765625q-4.359375 -4.78125 -4.359375 -12.828121q0 -8.71875 4.46875 -13.59375q4.46875 -4.890625 11.21875 -4.890625q5.71875 0 9.390625 3.765625q3.671875 3.765625 3.671875 10.078125l-23.484375 0zm0 -2.15625l15.734375 0q-0.1875 -3.265625 -0.78125 -4.59375q-0.921875 -2.078125 -2.765625 -3.265625q-1.84375 -1.1875 -3.84375 -1.1875q-3.078125 0 -5.515625 2.390625q-2.421875 2.390625 -2.828125 6.65625zm38.10742 -4.421875q3.71875 -3.703125 4.375 -4.265625q1.671875 -1.40625 3.59375 -2.1875q1.9375 -0.78125 3.828125 -0.78125q3.203125 0 5.5 1.859375q2.296875 1.859375 3.078125 5.375q3.828125 -4.453125 6.453125 -5.84375q2.640625 -1.390625 5.421875 -1.390625q2.703125 0 4.796875 1.390625q2.109375 1.390625 3.328125 4.546875q0.8125 2.15625 0.8125 6.765625l0 14.609371q0 3.203125 0.484375 4.390625q0.375 0.8125 1.375 1.390625q1.0 0.5625 3.265625 0.5625l0 1.34375l-16.765625 0l0 -1.34375l0.703125 0q2.1875 0 3.40625 -0.84375q0.859375 -0.59375 1.234375 -1.890625q0.140625 -0.640625 0.140625 -3.609375l0 -14.609371q0 -4.15625 -1.0 -5.875q-1.453125 -2.375 -4.640625 -2.375q-1.96875 0 -3.953125 0.984375q-1.984375 0.984375 -4.796875 3.65625l-0.078125 0.40625l0.078125 1.59375l0 16.218746q0 3.5 0.375 4.359375q0.390625 0.84375 1.46875 1.421875q1.078125 0.5625 3.671875 0.5625l0 1.34375l-17.171875 0l0 -1.34375q2.8125 0 3.875 -0.65625q1.0625 -0.671875 1.46875 -2.015625q0.1875 -0.625 0.1875 -3.671875l0 -14.609371q0 -4.15625 -1.234375 -5.984375q-1.625 -2.375 -4.5625 -2.375q-2.0 0 -3.96875 1.078125q-3.078125 1.640625 -4.75 3.671875l0 18.218746q0 3.34375 0.453125 4.34375q0.46875 1.0 1.375 1.5q0.921875 0.5 3.703125 0.5l0 1.34375l-16.8125 0l0 -1.34375q2.34375 0 3.265625 -0.5q0.921875 -0.5 1.40625 -1.59375q0.484375 -1.09375 0.484375 -4.25l0 -12.984371q0 -5.609375 -0.328125 -7.234375q-0.265625 -1.21875 -0.828125 -1.6875q-0.546875 -0.46875 -1.515625 -0.46875q-1.03125 0 -2.484375 0.5625l-0.5625 -1.34375l10.25 -4.15625l1.59375 0l0 7.234375zm58.333984 -0.359375q4.9375 -6.875 10.65625 -6.875q5.234375 0 9.125 4.484375q3.890625 4.46875 3.890625 12.21875q0 9.062496 -6.0 14.578121q-5.15625 4.765625 -11.515625 4.765625q-2.96875 0 -6.03125 -1.078125q-3.046875 -1.078125 -6.25 -3.234375l0 -35.218746q0 -5.78125 -0.28125 -7.109377q-0.265625 -1.34375 -0.859375 -1.828125q-0.59375 -0.484375 -1.484375 -0.484375q-1.046875 0 -2.609375 0.59375l-0.515625 -1.296875l10.203125 -4.15625l1.671875 0l0 24.640627zm0 2.375l0 20.328121q1.890625 1.859375 3.90625 2.8125q2.03125 0.9375 4.15625 0.9375q3.375 0 6.28125 -3.703125q2.921875 -3.71875 2.921875 -10.812496q0 -6.53125 -2.921875 -10.03125q-2.90625 -3.5 -6.625 -3.5q-1.96875 0 -3.9375 1.0q-1.484375 0.734375 -3.78125 2.96875zm38.640625 -9.25l0 7.65625q4.265625 -7.65625 8.75 -7.65625q2.046875 0 3.375 1.25q1.34375 1.234375 1.34375 2.875q0 1.453125 -0.96875 2.453125q-0.96875 1.0 -2.296875 1.0q-1.296875 0 -2.921875 -1.28125q-1.609375 -1.28125 -2.390625 -1.28125q-0.671875 0 -1.453125 0.734375q-1.65625 1.53125 -3.4375 5.015625l0 16.296871q0 2.8125 0.703125 4.265625q0.484375 1.0 1.703125 1.671875q1.21875 0.65625 3.53125 0.65625l0 1.34375l-17.40625 0l0 -1.34375q2.59375 0 3.859375 -0.8125q0.921875 -0.59375 1.296875 -1.890625q0.1875 -0.625 0.1875 -3.59375l0 -13.171871q0 -5.9375 -0.25 -7.0625q-0.234375 -1.140625 -0.890625 -1.65625q-0.640625 -0.53125 -1.609375 -0.53125q-1.15625 0 -2.59375 0.5625l-0.375 -1.34375l10.28125 -4.15625l1.5625 0zm21.074219 13.8125q-0.046875 7.5625 3.671875 11.874996q3.703125 4.296875 8.71875 4.296875q3.34375 0 5.8125 -1.828125q2.46875 -1.84375 4.140625 -6.296875l1.140625 0.75q-0.78125 5.078125 -4.53125 9.265625q-3.734375 4.171875 -9.375 4.171875q-6.125 0 -10.484375 -4.765625q-4.359375 -4.78125 -4.359375 -12.828121q0 -8.71875 4.46875 -13.59375q4.46875 -4.890625 11.21875 -4.890625q5.71875 0 9.390625 3.765625q3.671875 3.765625 3.671875 10.078125l-23.484375 0zm0 -2.15625l15.734375 0q-0.1875 -3.265625 -0.78125 -4.59375q-0.921875 -2.078125 -2.765625 -3.265625q-1.84375 -1.1875 -3.84375 -1.1875q-3.078125 0 -5.515625 2.390625q-2.421875 2.390625 -2.828125 6.65625zm79.48242 13.656246l-3.515625 9.6875l-29.6875 0l0 -1.375q13.09375 -11.953125 18.4375 -19.515621q5.34375 -7.578125 5.34375 -13.84375q0 -4.78125 -2.9375 -7.859375q-2.921875 -3.093752 -7.015625 -3.093752q-3.703125 0 -6.65625 2.171877q-2.953125 2.171875 -4.359375 6.375l-1.375 0q0.9375 -6.875 4.765625 -10.546877q3.84375 -3.671875 9.59375 -3.671875q6.125 0 10.21875 3.9375q4.109375 3.921877 4.109375 9.265627q0 3.828125 -1.78125 7.65625q-2.75 6.0 -8.90625 12.71875q-9.234375 10.093746 -11.546875 12.171871l13.140625 0q4.015625 0 5.625 -0.296875q1.609375 -0.296875 2.90625 -1.203125q1.3125 -0.90625 2.265625 -2.578125l1.375 0zm5.90625 -15.171871q0 -8.609375 2.59375 -14.828125q2.59375 -6.218752 6.90625 -9.265627q3.34375 -2.40625 6.90625 -2.40625q5.78125 0 10.390625 5.906252q5.75 7.296875 5.75 19.8125q0 8.75 -2.53125 14.874996q-2.515625 6.125 -6.4375 8.890625q-3.90625 2.765625 -7.546875 2.765625q-7.203125 0 -11.984375 -8.5q-4.046875 -7.156246 -4.046875 -17.249996zm7.265625 0.921875q0 10.390625 2.5625 16.953121q2.125 5.53125 6.3125 5.53125q2.0 0 4.15625 -1.796875q2.15625 -1.796875 3.265625 -6.03125q1.703125 -6.374996 1.703125 -17.999996q0 -8.609375 -1.78125 -14.359375q-1.328125 -4.265627 -3.453125 -6.046877q-1.515625 -1.21875 -3.671875 -1.21875q-2.515625 0 -4.484375 2.265625q-2.671875 3.078127 -3.640625 9.687502q-0.96875 6.59375 -0.96875 13.015625zm36.890625 -21.453125l12.25 -5.968752l1.21875 0l0 42.484375q0 4.234375 0.34375 5.28125q0.359375 1.03125 1.46875 1.59375q1.125 0.546875 4.53125 0.625l0 1.375l-18.921875 0l0 -1.375q3.5625 -0.078125 4.59375 -0.609375q1.046875 -0.546875 1.453125 -1.453125q0.40625 -0.90625 0.40625 -5.4375l0 -27.156246q0 -5.5 -0.359375 -7.046875q-0.265625 -1.1875 -0.953125 -1.75q-0.6875 -0.5625 -1.65625 -0.5625q-1.375 0 -3.8125 1.15625l-0.5625 -1.15625zm43.671875 20.046875q-5.96875 -4.90625 -7.703125 -7.875q-1.71875 -2.96875 -1.71875 -6.15625q0 -4.890625 3.78125 -8.437502q3.796875 -3.546875 10.0625 -3.546875q6.09375 0 9.796875 3.3125q3.71875 3.296877 3.71875 7.515627q0 2.828125 -2.015625 5.765625q-2.0 2.921875 -8.34375 6.890625q6.53125 5.046875 8.640625 7.953125q2.828125 3.78125 2.828125 7.968746q0 5.3125 -4.046875 9.078125q-4.046875 3.765625 -10.609375 3.765625q-7.171875 0 -11.171875 -4.484375q-3.1875 -3.609375 -3.1875 -7.875q0 -3.3437462 2.234375 -6.624996q2.25 -3.28125 7.734375 -7.25zm5.828125 -3.96875q4.453125 -4.015625 5.640625 -6.328125q1.1875 -2.328125 1.1875 -5.25q0 -3.90625 -2.1875 -6.109377q-2.1875 -2.203125 -5.96875 -2.203125q-3.78125 0 -6.15625 2.1875q-2.375 2.187502 -2.375 5.125002q0 1.921875 0.96875 3.859375q0.984375 1.921875 2.8125 3.671875l6.078125 5.046875zm-4.078125 5.375q-3.078125 2.59375 -4.5625 5.65625q-1.484375 3.0625 -1.484375 6.624996q0 4.796875 2.609375 7.671875q2.625 2.875 6.671875 2.875q4.0 0 6.40625 -2.265625q2.421875 -2.265625 2.421875 -5.5q0 -2.671875 -1.40625 -4.781246q-2.640625 -3.9375 -10.65625 -10.28125z" fill-rule="nonzero"/><path fill="#000000" d="m41.245117 82.4l135.04102 0l0 6.8399963l-135.04102 0l0 -6.8399963z" fill-rule="nonzero"/></g></svg>