<svg version="1.1" viewBox="0.0 0.0 1000.0 150.0" fill="none" stroke="none" stroke-linecap="square" stroke-miterlimit="10" xmlns:xlink="http://www.w3.org/1999/xlink" xmlns="http://www.w3.org/2000/svg"><clipPath id="p.0"><path d="m0 0l1000.0 0l0 150.0l-1000.0 0l0 -150.0z" clip-rule="nonzero"/></clipPath><g clip-path="url(#p.0)"><path fill="#000000" fill-opacity="0.0" d="m0 0l1000.0 0l0 150.0l-1000.0 0z" fill-rule="evenodd"/><path fill="#000000" fill-opacity="0.0" d="m125.00787 -2.5675282l749.98425 0l0 53.700787l-749.98425 0z" fill-rule="evenodd"/><path fill="#000000" d="m155.20007 16.71099l0.1875 -0.484375l6.296875 0q1.59375 0 2.828125 0.5q1.25 0.5 1.859375 1.390625q0.625 0.875 0.625 1.859375q0 1.53125 -1.109375 2.765625q-1.09375 1.21875 -3.578125 1.8125q1.609375 0.59375 2.359375 1.59375q0.75 0.984375 0.75 2.15625q0 1.328125 -0.671875 2.53125q-0.671875 1.1875 -1.734375 1.859375q-1.0625 0.65625 -2.5625 0.96875q-1.0625 0.21875 -3.328125 0.21875l-6.46875 0l0.171875 -0.484375q1.015625 -0.015625 1.375 -0.1875q0.515625 -0.21875 0.734375 -0.59375q0.3125 -0.484375 0.84375 -2.265625l3.15625 -10.6875q0.40625 -1.34375 0.40625 -1.890625q0 -0.484375 -0.359375 -0.765625q-0.359375 -0.28125 -1.359375 -0.28125q-0.21875 0 -0.421875 -0.015625zm2.65625 7.328125q0.84375 0.03125 1.21875 0.03125q2.703125 0 4.015625 -1.171875q1.328125 -1.1875 1.328125 -2.953125q0 -1.34375 -0.8125 -2.09375q-0.796875 -0.75 -2.5625 -0.75q-0.46875 0 -1.203125 0.15625l-1.984375 6.78125zm-2.578125 8.703125q1.40625 0.171875 2.203125 0.171875q2.03125 0 3.59375 -1.21875q1.578125 -1.21875 1.578125 -3.3125q0 -1.609375 -0.96875 -2.5q-0.96875 -0.90625 -3.140625 -0.90625q-0.40625 0 -1.0 0.046875l-2.265625 7.71875zm25.509262 0.65625l-0.140625 0.484375l-7.265625 0l0.171875 -0.484375q1.09375 -0.015625 1.453125 -0.171875q0.5625 -0.234375 0.84375 -0.625q0.421875 -0.609375 0.890625 -2.1875l3.0625 -10.640625q0.390625 -1.328125 0.390625 -2.0q0 -0.34375 -0.171875 -0.578125q-0.15625 -0.234375 -0.515625 -0.359375q-0.34375 -0.125 -1.34375 -0.125l0.15625 -0.484375l6.828125 0l-0.140625 0.484375q-0.84375 -0.015625 -1.25 0.1875q-0.578125 0.265625 -0.890625 0.75q-0.296875 0.46875 -0.78125 2.125l-3.0625 10.640625q-0.40625 1.484375 -0.40625 1.875q0 0.328125 0.15625 0.5625q0.15625 0.21875 0.515625 0.34375q0.359375 0.125 1.5 0.203125zm17.587677 -16.21875l-2.015625 6.984375l1.65625 0q1.765625 0 2.5625 -0.53125q0.796875 -0.546875 1.375 -2.015625l0.46875 0l-1.796875 6.40625l-0.53125 0q0.234375 -0.8125 0.234375 -1.375q0 -0.5625 -0.234375 -0.890625q-0.21875 -0.34375 -0.625 -0.5q-0.390625 -0.171875 -1.65625 -0.171875l-1.6875 0l-1.703125 5.84375q-0.25 0.84375 -0.25 1.28125q0 0.34375 0.328125 0.609375q0.21875 0.171875 1.109375 0.171875l1.5625 0q2.53125 0 4.0625 -0.890625q1.53125 -0.90625 2.734375 -3.125l0.484375 0l-1.65625 4.90625l-13.640625 0l0.171875 -0.484375q1.0 -0.015625 1.359375 -0.171875q0.515625 -0.234375 0.75 -0.609375q0.359375 -0.53125 0.84375 -2.234375l3.09375 -10.640625q0.359375 -1.296875 0.359375 -1.96875q0 -0.5 -0.34375 -0.78125q-0.34375 -0.28125 -1.34375 -0.28125l-0.28125 0l0.15625 -0.484375l12.6875 0l-1.09375 4.265625l-0.484375 0q0.09375 -0.59375 0.09375 -1.0q0 -0.6875 -0.34375 -1.15625q-0.4375 -0.609375 -1.28125 -0.921875q-0.625 -0.234375 -2.875 -0.234375l-2.25 0zm21.962387 -0.953125l5.453125 13.84375l2.953125 -10.328125q0.359375 -1.28125 0.359375 -1.984375q0 -0.484375 -0.34375 -0.75q-0.328125 -0.28125 -1.25 -0.28125q-0.15625 0 -0.328125 -0.015625l0.140625 -0.484375l5.671875 0l-0.15625 0.484375q-0.875 -0.015625 -1.3125 0.1875q-0.609375 0.265625 -0.90625 0.703125q-0.421875 0.609375 -0.84375 2.140625l-4.15625 14.546875l-0.46875 0l-5.859375 -14.890625l-3.140625 11.0q-0.359375 1.25 -0.359375 1.90625q0 0.5 0.3125 0.75q0.328125 0.25 1.53125 0.34375l-0.140625 0.484375l-5.53125 0l0.171875 -0.484375q1.046875 -0.015625 1.390625 -0.171875q0.53125 -0.234375 0.796875 -0.625q0.375 -0.5625 0.84375 -2.203125l3.5 -12.28125q-0.5 -0.78125 -1.078125 -1.0625q-0.578125 -0.296875 -1.8125 -0.34375l0.15625 -0.484375l4.40625 0zm20.849823 18.0625l1.453125 -14.703125q0.109375 -1.109375 0.109375 -1.5q0 -0.59375 -0.4375 -0.984375q-0.4375 -0.390625 -1.375 -0.390625l-0.46875 0l0.140625 -0.484375l6.953125 0l-0.140625 0.484375q-1.125 0.015625 -1.5625 0.234375q-0.421875 0.21875 -0.65625 0.765625q-0.140625 0.28125 -0.28125 1.625l-1.046875 10.53125l6.890625 -9.40625q1.125 -1.515625 1.40625 -2.125q0.203125 -0.390625 0.203125 -0.703125q0 -0.34375 -0.3125 -0.59375q-0.296875 -0.265625 -1.109375 -0.328125l0.15625 -0.484375l5.3125 0l-0.140625 0.484375q-0.625 0.0625 -1.015625 0.25q-0.703125 0.34375 -1.421875 1.03125q-0.703125 0.6875 -2.25 2.78125l-9.9375 13.515625l-0.46875 0zm27.524902 -17.109375l-2.015625 6.984375l1.65625 0q1.765625 0 2.5625 -0.53125q0.796875 -0.546875 1.375 -2.015625l0.46875 0l-1.796875 6.40625l-0.53125 0q0.234375 -0.8125 0.234375 -1.375q0 -0.5625 -0.234375 -0.890625q-0.21875 -0.34375 -0.625 -0.5q-0.390625 -0.171875 -1.65625 -0.171875l-1.6875 0l-1.703125 5.84375q-0.25 0.84375 -0.25 1.28125q0 0.34375 0.328125 0.609375q0.21875 0.171875 1.109375 0.171875l1.5625 0q2.53125 0 4.0625 -0.890625q1.53125 -0.90625 2.734375 -3.125l0.484375 0l-1.65625 4.90625l-13.640625 0l0.171875 -0.484375q1.0 -0.015625 1.359375 -0.171875q0.515625 -0.234375 0.75 -0.609375q0.359375 -0.53125 0.84375 -2.234375l3.09375 -10.640625q0.359375 -1.296875 0.359375 -1.96875q0 -0.5 -0.34375 -0.78125q-0.34375 -0.28125 -1.34375 -0.28125l-0.28125 0l0.15625 -0.484375l12.6875 0l-1.09375 4.265625l-0.484375 0q0.09375 -0.59375 0.09375 -1.0q0 -0.6875 -0.34375 -1.15625q-0.4375 -0.609375 -1.28125 -0.921875q-0.625 -0.234375 -2.875 -0.234375l-2.25 0zm21.962372 -0.953125l5.453125 13.84375l2.953125 -10.328125q0.359375 -1.28125 0.359375 -1.984375q0 -0.484375 -0.34375 -0.75q-0.328125 -0.28125 -1.25 -0.28125q-0.15625 0 -0.328125 -0.015625l0.140625 -0.484375l5.671875 0l-0.15625 0.484375q-0.875 -0.015625 -1.3125 0.1875q-0.609375 0.265625 -0.90625 0.703125q-0.421875 0.609375 -0.84375 2.140625l-4.15625 14.546875l-0.46875 0l-5.859375 -14.890625l-3.140625 11.0q-0.359375 1.25 -0.359375 1.90625q0 0.5 0.3125 0.75q0.328125 0.25 1.53125 0.34375l-0.140625 0.484375l-5.53125 0l0.171875 -0.484375q1.046875 -0.015625 1.390625 -0.171875q0.53125 -0.234375 0.796875 -0.625q0.375 -0.5625 0.84375 -2.203125l3.5 -12.28125q-0.5 -0.78125 -1.078125 -1.0625q-0.578125 -0.296875 -1.8125 -0.34375l0.15625 -0.484375l4.40625 0zm20.287323 0l7.46875 0l-0.15625 0.484375q-1.140625 0.03125 -1.625 0.21875q-0.484375 0.1875 -0.84375 0.671875q-0.34375 0.484375 -0.71875 1.78125l-1.796875 6.25q-0.484375 1.65625 -0.578125 2.1875q-0.15625 0.828125 -0.15625 1.546875q0 1.578125 1.171875 2.671875q1.171875 1.078125 3.140625 1.078125q1.28125 0 2.296875 -0.484375q1.015625 -0.5 1.734375 -1.375q0.71875 -0.875 1.3125 -2.375q0.609375 -1.515625 1.0625 -3.046875l1.5625 -5.390625q0.59375 -2.015625 0.59375 -2.625q0 -0.421875 -0.40625 -0.734375q-0.390625 -0.3125 -1.609375 -0.375l0.15625 -0.484375l5.609375 0l-0.15625 0.484375q-0.984375 0 -1.421875 0.1875q-0.4375 0.1875 -0.765625 0.6875q-0.3125 0.484375 -0.71875 1.890625l-1.921875 6.546875q-0.921875 3.1875 -1.75 4.703125q-0.8125 1.515625 -2.375 2.546875q-1.546875 1.015625 -3.84375 1.015625q-2.65625 0 -4.28125 -1.5q-1.625 -1.515625 -1.625 -3.453125q0 -0.765625 0.140625 -1.640625q0.09375 -0.5625 0.5 -1.96875l1.75 -6.0q0.359375 -1.3125 0.359375 -1.921875q0 -0.484375 -0.375 -0.75q-0.359375 -0.265625 -1.859375 -0.34375l0.125 -0.484375zm31.054993 0.953125l-2.015625 6.984375l1.65625 0q1.765625 0 2.5625 -0.53125q0.796875 -0.546875 1.375 -2.015625l0.46875 0l-1.796875 6.40625l-0.53125 0q0.234375 -0.8125 0.234375 -1.375q0 -0.5625 -0.234375 -0.890625q-0.21875 -0.34375 -0.625 -0.5q-0.390625 -0.171875 -1.65625 -0.171875l-1.6875 0l-1.703125 5.84375q-0.25 0.84375 -0.25 1.28125q0 0.34375 0.328125 0.609375q0.21875 0.171875 1.109375 0.171875l1.5625 0q2.53125 0 4.0625 -0.890625q1.53125 -0.90625 2.734375 -3.125l0.484375 0l-1.65625 4.90625l-13.640625 0l0.171875 -0.484375q1.0 -0.015625 1.359375 -0.171875q0.515625 -0.234375 0.75 -0.609375q0.359375 -0.53125 0.84375 -2.234375l3.09375 -10.640625q0.359375 -1.296875 0.359375 -1.96875q0 -0.5 -0.34375 -0.78125q-0.34375 -0.28125 -1.34375 -0.28125l-0.28125 0l0.15625 -0.484375l12.6875 0l-1.09375 4.265625l-0.484375 0q0.09375 -0.59375 0.09375 -1.0q0 -0.6875 -0.34375 -1.15625q-0.4375 -0.609375 -1.28125 -0.921875q-0.625 -0.234375 -2.875 -0.234375l-2.25 0zm41.384247 -1.343751l-1.34375 14.671876q-0.109375 1.03125 -0.109375 1.359375q0 0.515625 0.203125 0.796875q0.25 0.375 0.671875 0.5625q0.421875 0.171875 1.421875 0.171875l-0.140625 0.484375l-6.953125 0l0.140625 -0.484375l0.296875 0q0.84375 0 1.390625 -0.359375q0.375 -0.25 0.578125 -0.828125q0.140625 -0.390625 0.28125 -1.890625l0.203125 -2.25l-5.046875 0l-1.796875 2.4375q-0.609375 0.828125 -0.765625 1.1875q-0.15625 0.359375 -0.15625 0.671875q0 0.40625 0.328125 0.71875q0.34375 0.296875 1.125 0.3125l-0.140625 0.484375l-5.21875 0l0.140625 -0.484375q0.96875 -0.03125 1.703125 -0.640625q0.734375 -0.609375 2.1875 -2.578125l10.546875 -14.343751l0.453125 0zm-2.578125 4.328126l-5.109375 6.96875l4.4375 0l0.671875 -6.96875z" fill-rule="nonzero"/><path fill="#cc0000" d="m622.8011 34.289116l1.515625 -14.703125q0.09375 -0.859375 0.09375 -1.3125q0 -0.75 -0.4375 -1.140625q-0.421875 -0.390625 -1.546875 -0.421875l0.15625 -0.484375l6.609375 0l-0.140625 0.484375q-1.328125 -0.015625 -1.828125 0.484375q-0.484375 0.484375 -0.671875 2.390625l-0.96875 9.515625l6.703125 -10.34375q0.015625 -0.265625 0.015625 -0.4375q0 -0.734375 -0.4375 -1.125q-0.421875 -0.390625 -1.84375 -0.484375l0.109375 -0.484375l7.140625 0l-0.140625 0.484375q-1.234375 0.015625 -1.671875 0.21875q-0.3125 0.140625 -0.53125 0.46875q-0.203125 0.3125 -0.34375 1.078125q-0.03125 0.21875 -0.3125 3.015625q-0.28125 2.796875 -0.84375 7.609375l5.59375 -8.484375q0.90625 -1.390625 1.140625 -1.953125q0.234375 -0.5625 0.234375 -0.953125q0 -0.359375 -0.3125 -0.640625q-0.3125 -0.28125 -1.0625 -0.359375l0.09375 -0.484375l5.234375 0l-0.125 0.484375q-0.6875 0.0625 -1.234375 0.34375q-0.53125 0.28125 -1.25 1.09375q-0.421875 0.46875 -1.71875 2.46875l-8.859375 13.671875l-0.484375 0l1.421875 -13.671875l-8.859375 13.671875l-0.4375 0zm33.88452 -17.109375l-2.015625 6.984375l1.65625 0q1.765625 0 2.5625 -0.53125q0.796875 -0.546875 1.375 -2.015625l0.46875 0l-1.796875 6.40625l-0.53125 0q0.234375 -0.8125 0.234375 -1.375q0 -0.5625 -0.234375 -0.890625q-0.21875 -0.34375 -0.625 -0.5q-0.390625 -0.171875 -1.65625 -0.171875l-1.6875 0l-1.703125 5.84375q-0.25 0.84375 -0.25 1.28125q0 0.34375 0.328125 0.609375q0.21875 0.171875 1.109375 0.171875l1.5625 0q2.53125 0 4.0625 -0.890625q1.53125 -0.90625 2.734375 -3.125l0.484375 0l-1.65625 4.90625l-13.640625 0l0.171875 -0.484375q1.0 -0.015625 1.359375 -0.171875q0.515625 -0.234375 0.75 -0.609375q0.359375 -0.53125 0.84375 -2.234375l3.09375 -10.640625q0.359375 -1.296875 0.359375 -1.96875q0 -0.5 -0.34375 -0.78125q-0.34375 -0.28125 -1.34375 -0.28125l-0.28125 0l0.15625 -0.484375l12.6875 0l-1.09375 4.265625l-0.484375 0q0.09375 -0.59375 0.09375 -1.0q0 -0.6875 -0.34375 -1.15625q-0.4375 -0.609375 -1.28125 -0.921875q-0.625 -0.234375 -2.875 -0.234375l-2.25 0zm26.540527 16.703125l-13.078125 0l0.1875 -0.484375q1.03125 -0.015625 1.390625 -0.171875q0.546875 -0.234375 0.796875 -0.609375q0.40625 -0.59375 0.859375 -2.15625l3.125 -10.734375q0.390625 -1.328125 0.390625 -1.953125q0 -0.5 -0.359375 -0.765625q-0.359375 -0.28125 -1.359375 -0.28125q-0.21875 0 -0.34375 -0.015625l0.15625 -0.484375l7.203125 0l-0.109375 0.484375q-1.21875 0 -1.734375 0.234375q-0.5 0.234375 -0.828125 0.765625q-0.234375 0.359375 -0.765625 2.1875l-3.0625 10.5625q-0.359375 1.203125 -0.359375 1.671875q0 0.3125 0.359375 0.59375q0.21875 0.1875 1.0 0.1875l1.703125 0q1.859375 0 2.953125 -0.46875q0.8125 -0.34375 1.484375 -1.046875q0.375 -0.390625 1.296875 -1.9375l0.328125 -0.59375l0.484375 0l-1.71875 5.015625zm28.020264 -18.046875l-1.3125 5.703126l-0.46875 0l-0.046875 -1.421875q-0.0625 -0.78125 -0.296875 -1.390625q-0.234375 -0.625 -0.703125 -1.0625q-0.46875 -0.453125 -1.1875 -0.703125q-0.71875 -0.265625 -1.59375 -0.265625q-2.328125 0 -4.0625 1.28125q-2.234375 1.625 -3.5 4.59375q-1.03125 2.453125 -1.03125 4.953125q0 2.578125 1.484375 4.109375q1.5 1.515625 3.90625 1.515625q1.796875 0 3.203125 -0.796875q1.421875 -0.8125 2.640625 -2.484375l0.609375 0q-1.4375 2.265625 -3.1875 3.34375q-1.734375 1.078125 -4.171875 1.078125q-2.15625 0 -3.828125 -0.90625q-1.65625 -0.90625 -2.53125 -2.546875q-0.875 -1.640625 -0.875 -3.53125q0 -2.890625 1.546875 -5.609375q1.546875 -2.734375 4.25 -4.296875q2.703125 -1.562501 5.453125 -1.562501q1.28125 0 2.890625 0.60937595q0.703125 0.25 1.015625 0.25q0.3125 0 0.546875 -0.125q0.234375 -0.125 0.78125 -0.73437595l0.46875 0zm18.834229 0q1.75 0 3.09375 0.76562595q1.359375 0.75 2.125 2.25q0.78125 1.484375 0.78125 3.078125q0 2.84375 -1.65625 5.96875q-1.640625 3.109375 -4.296875 4.75q-2.65625 1.640625 -5.5 1.640625q-2.03125 0 -3.40625 -0.90625q-1.375 -0.90625 -2.03125 -2.390625q-0.65625 -1.484375 -0.65625 -2.875q0 -2.46875 1.1875 -4.875q1.1875 -2.421875 2.84375 -4.046875q1.65625 -1.625 3.53125 -2.484375q1.875 -0.87500095 3.984375 -0.87500095zm-0.453125 0.82812595q-1.296875 0 -2.546875 0.640625q-1.234375 0.640625 -2.46875 2.109375q-1.21875 1.46875 -2.1875 3.828125q-1.203125 2.921875 -1.203125 5.515625q0 1.84375 0.953125 3.28125q0.953125 1.421875 2.90625 1.421875q1.1875 0 2.328125 -0.578125q1.140625 -0.59375 2.375 -2.015625q1.546875 -1.78125 2.59375 -4.546875q1.0625 -2.765625 1.0625 -5.171875q0 -1.765625 -0.953125 -3.125q-0.9375 -1.359375 -2.859375 -1.359375zm21.679932 -0.4375l1.625 14.21875l10.234375 -14.21875l4.3125 0l0 0.484375q-1.40625 0.09375 -1.65625 0.1875q-0.421875 0.171875 -0.78125 0.6875q-0.359375 0.5 -0.78125 1.9375l-3.265625 11.203125q-0.28125 0.96875 -0.28125 1.53125q0 0.5 0.34375 0.765625q0.5 0.375 1.5625 0.375l0.3125 0l-0.109375 0.484375l-7.4375 0l0.140625 -0.484375l0.34375 0q0.984375 0 1.515625 -0.28125q0.390625 -0.203125 0.703125 -0.78125q0.328125 -0.59375 0.90625 -2.578125l2.921875 -10.234375l-10.296875 14.359375l-0.53125 0l-1.640625 -14.359375l-3.15625 10.921875q-0.40625 1.390625 -0.40625 1.875q0 0.484375 0.34375 0.734375q0.359375 0.25 1.71875 0.34375l-0.140625 0.484375l-5.828125 0l0.140625 -0.484375l0.359375 0q1.28125 0 1.859375 -0.640625q0.421875 -0.46875 0.875 -2.03125l3.84375 -13.171875q-0.4375 -0.4375 -0.828125 -0.59375q-0.390625 -0.15625 -1.4375 -0.25l0.125 -0.484375l4.390625 0zm29.040833 0.953125l-2.015625 6.984375l1.65625 0q1.765625 0 2.5625 -0.53125q0.796875 -0.546875 1.375 -2.015625l0.46875 0l-1.796875 6.40625l-0.53125 0q0.234375 -0.8125 0.234375 -1.375q0 -0.5625 -0.234375 -0.890625q-0.21875 -0.34375 -0.625 -0.5q-0.390625 -0.171875 -1.65625 -0.171875l-1.6875 0l-1.703125 5.84375q-0.25 0.84375 -0.25 1.28125q0 0.34375 0.328125 0.609375q0.21875 0.171875 1.109375 0.171875l1.5625 0q2.53125 0 4.0625 -0.890625q1.53125 -0.90625 2.734375 -3.125l0.484375 0l-1.65625 4.90625l-13.640625 0l0.171875 -0.484375q1.0 -0.015625 1.359375 -0.171875q0.515625 -0.234375 0.75 -0.609375q0.359375 -0.53125 0.84375 -2.234375l3.09375 -10.640625q0.359375 -1.296875 0.359375 -1.96875q0 -0.5 -0.34375 -0.78125q-0.34375 -0.28125 -1.34375 -0.28125l-0.28125 0l0.15625 -0.484375l12.6875 0l-1.09375 4.265625l-0.484375 0q0.09375 -0.59375 0.09375 -1.0q0 -0.6875 -0.34375 -1.15625q-0.4375 -0.609375 -1.28125 -0.921875q-0.625 -0.234375 -2.875 -0.234375l-2.25 0zm31.556091 -0.953125l13.40625 0l-1.453125 4.6875l-0.484375 0q0.25 -1.015625 0.25 -1.828125q0 -0.953125 -0.59375 -1.4375q-0.4375 -0.359375 -2.28125 -0.359375l-1.390625 0l-3.484375 12.15625q-0.671875 2.296875 -0.671875 2.828125q0 0.484375 0.421875 0.8125q0.421875 0.3125 1.46875 0.3125l0.609375 0l-0.15625 0.484375l-7.6875 0l0.140625 -0.484375l0.34375 0q1.015625 0 1.5625 -0.328125q0.375 -0.21875 0.671875 -0.796875q0.3125 -0.578125 0.859375 -2.453125l3.65625 -12.53125l-1.046875 0q-1.53125 0 -2.46875 0.390625q-0.921875 0.390625 -1.5 1.140625q-0.5625 0.734375 -0.921875 2.09375l-0.484375 0l1.234375 -4.6875zm30.723389 -0.39062595q1.75 0 3.09375 0.76562595q1.359375 0.75 2.125 2.25q0.78125 1.484375 0.78125 3.078125q0 2.84375 -1.65625 5.96875q-1.640625 3.109375 -4.296875 4.75q-2.65625 1.640625 -5.5 1.640625q-2.03125 0 -3.40625 -0.90625q-1.375 -0.90625 -2.03125 -2.390625q-0.65625 -1.484375 -0.65625 -2.875q0 -2.46875 1.1875 -4.875q1.1875 -2.421875 2.84375 -4.046875q1.65625 -1.625 3.53125 -2.484375q1.875 -0.87500095 3.984375 -0.87500095zm-0.453125 0.82812595q-1.296875 0 -2.546875 0.640625q-1.234375 0.640625 -2.46875 2.109375q-1.21875 1.46875 -2.1875 3.828125q-1.203125 2.921875 -1.203125 5.515625q0 1.84375 0.953125 3.28125q0.953125 1.421875 2.90625 1.421875q1.1875 0 2.328125 -0.578125q1.140625 -0.59375 2.375 -2.015625q1.546875 -1.78125 2.59375 -4.546875q1.0625 -2.765625 1.0625 -5.171875q0 -1.765625 -0.953125 -3.125q-0.9375 -1.359375 -2.859375 -1.359375z" fill-rule="nonzero"/><path fill="#000000" fill-opacity="0.0" d="m-44.220474 19.079391l1088.4409 0l0 109.25984l-1088.4409 0z" fill-rule="evenodd"/><path fill="#000000" d="m104.082016 32.90181l0 29.3125l-2.3125 0q-1.125 -8.4375 -4.03125 -13.4375q-2.90625 -5.0 -8.28125 -7.9375q-5.375 -2.9375 -11.125 -2.9375q-6.5 0 -10.75 3.96875q-4.25 3.96875 -4.25 9.03125q0 3.875 2.6875 7.0625q3.875 4.6875 18.4375 12.5q11.875 6.375 16.21875 9.78125q4.34375 3.40625 6.6875 8.03125q2.34375 4.625 2.34375 9.6875q0 9.625 -7.46875 16.59375q-7.46875 6.96875 -19.21875 6.96875q-3.6875 0 -6.9375 -0.5625q-1.9375 -0.3125 -8.03125 -2.28125q-6.09375 -1.96875 -7.71875 -1.96875q-1.5625 0 -2.46875 0.9375q-0.90625 0.9375 -1.34375 3.875l-2.3125 0l0 -29.0625l2.3125 0q1.625 9.125 4.375 13.65625q2.75 4.53125 8.40625 7.53125q5.65625 3.0 12.40625 3.0q7.8125 0 12.34375 -4.125q4.53125 -4.125 4.53125 -9.75q0 -3.125 -1.71875 -6.3125q-1.71875 -3.1875 -5.34375 -5.9375q-2.4375 -1.875 -13.3125 -7.96875q-10.875 -6.09375 -15.46875 -9.71875q-4.59375 -3.625 -6.96875 -8.0q-2.375 -4.375 -2.375 -9.625q0 -9.125 7.0 -15.71875q7.0 -6.59375 17.8125 -6.59375q6.75 0 14.3125 3.3125q3.5 1.5625 4.9375 1.5625q1.625 0 2.65625 -0.96875q1.03125 -0.96875 1.65625 -3.90625l2.3125 0z" fill-rule="nonzero"/><path fill="#000000" d="m147.48827 65.87056q12.65625 -0.46875 20.5625 7.390625q7.90625 7.84375 7.90625 19.640625q0 10.078125 -5.890625 17.734375q-7.8125 10.171875 -22.078125 10.171875q-14.296875 0 -22.109375 -9.703125q-6.171875 -7.65625 -6.171875 -18.15625q0 -11.796875 8.03125 -19.671875q8.03125 -7.875 19.75 -7.40625zm0.46875 2.5q-7.265625 0 -11.0625 7.421875q-3.078125 6.09375 -3.078125 17.5q0 13.5625 4.765625 20.046875q3.3125 4.53125 9.296875 4.53125q4.015625 0 6.71875 -1.953125q3.4375 -2.5 5.34375 -7.984375q1.921875 -5.5 1.921875 -14.328125q0 -10.5 -1.953125 -15.71875q-1.953125 -5.21875 -4.984375 -7.359375q-3.03125 -2.15625 -6.96875 -2.15625zm81.36719 32.625l-2.0 18.59375l-47.03125 0l0 -1.453125l1.765625 0q2.296875 0 3.703125 -0.8125q1.015625 -0.546875 1.5625 -1.875q0.4375 -0.9375 0.4375 -4.921875l0 -34.84375q0 -4.0625 -0.4375 -5.078125q-0.421875 -1.015625 -1.734375 -1.78125q-1.3125 -0.765625 -3.53125 -0.765625l-1.765625 0l0 -1.4375l28.25 0l0 1.4375l-2.3125 0q-2.296875 0 -3.703125 0.828125q-1.015625 0.546875 -1.609375 1.875q-0.421875 0.9375 -0.421875 4.921875l0 33.75q0 4.0625 0.46875 5.171875q0.46875 1.109375 1.828125 1.65625q0.984375 0.359375 4.734375 0.359375l4.40625 0q4.21875 0 7.03125 -1.484375q2.8125 -1.484375 4.859375 -4.6875q2.0625 -3.203125 3.890625 -9.453125l1.609375 0zm3.90625 18.59375l0 -1.453125l1.75 0q2.3125 0 3.53125 -0.71875q1.234375 -0.71875 1.828125 -1.96875q0.34375 -0.828125 0.34375 -4.921875l0 -34.84375q0 -4.0625 -0.4375 -5.078125q-0.421875 -1.015625 -1.734375 -1.78125q-1.296875 -0.765625 -3.53125 -0.765625l-1.75 0l0 -1.4375l23.70314 0q9.5 0 15.28125 2.578125q7.0625 3.15625 10.71875 9.5625q3.65625 6.40625 3.65625 14.5q0 5.578125 -1.796875 10.296875q-1.796875 4.703125 -4.65625 7.765625q-2.84375 3.0625 -6.578125 4.921875q-3.734375 1.859375 -9.125 2.875q-2.375 0.46875 -7.5 0.46875l-23.70314 0zm20.1875 -49.96875l0 41.328125q0 3.28125 0.3125 4.03125q0.3125 0.734375 1.0625 1.125q1.046875 0.59375 3.0468903 0.59375q6.515625 0 9.953125 -4.453125q4.6875 -6.015625 4.6875 -18.671875q0 -10.203125 -3.203125 -16.296875q-2.53125 -4.765625 -6.515625 -6.484375q-2.8125 -1.203125 -9.343765 -1.171875zm67.4297 -3.75q12.65625 -0.46875 20.5625 7.390625q7.90625 7.84375 7.90625 19.640625q0 10.078125 -5.890625 17.734375q-7.8125 10.171875 -22.078125 10.171875q-14.296875 0 -22.109375 -9.703125q-6.171875 -7.65625 -6.171875 -18.15625q0 -11.796875 8.03125 -19.671875q8.03125 -7.875 19.75 -7.40625zm0.46875 2.5q-7.265625 0 -11.0625 7.421875q-3.078125 6.09375 -3.078125 17.5q0 13.5625 4.765625 20.046875q3.3125 4.53125 9.296875 4.53125q4.015625 0 6.71875 -1.953125q3.4375 -2.5 5.34375 -7.984375q1.921875 -5.5 1.921875 -14.328125q0 -10.5 -1.953125 -15.71875q-1.953125 -5.21875 -4.984375 -7.359375q-3.03125 -2.15625 -6.96875 -2.15625zm87.80469 -1.75l0 1.4375q-2.890625 0.46875 -5.15625 3.09375q-1.640625 1.953125 -4.875 9.171875l-18.25 40.484375l-1.28125 0l-18.171875 -42.125q-3.28125 -7.609375 -4.390625 -8.9375q-1.109375 -1.328125 -4.203125 -1.6875l0 -1.4375l25.390625 0l0 1.4375l-0.859375 0q-3.4375 0 -4.6875 0.859375q-0.890625 0.59375 -0.890625 1.71875q0 0.703125 0.3125 1.671875q0.3125 0.953125 2.109375 5.125l11.28125 26.375l10.46875 -23.484375q1.875 -4.25 2.296875 -5.6875q0.4375 -1.453125 0.4375 -2.46875q0 -1.171875 -0.625 -2.0625q-0.625 -0.90625 -1.828125 -1.375q-1.6875 -0.671875 -4.453125 -0.671875l0 -1.4375l17.375 0z" fill-rule="nonzero"/><path fill="#000000" d="m456.1914 79.90181l0 24.6875q0 8.0 1.75 9.9375q2.375 2.75 7.1875 2.75l3.25 0l0 2.3125l-36.3125 0l0 -2.3125l3.1875 0q5.375 0 7.6875 -3.5q1.25 -1.9375 1.25 -9.1875l0 -54.75q0 -8.0 -1.6875 -9.9375q-2.4375 -2.75 -7.25 -2.75l-3.1875 0l0 -2.3125l31.0625 0q11.375 0 17.9375 2.34375q6.5625 2.34375 11.0625 7.90625q4.5 5.5625 4.5 13.1875q0 10.375 -6.84375 16.875q-6.84375 6.5 -19.34375 6.5q-3.0625 0 -6.625 -0.4375q-3.5625 -0.4375 -7.625 -1.3125zm0 -3.5625q3.3125 0.625 5.875 0.9375q2.5625 0.3125 4.375 0.3125q6.5 0 11.21875 -5.03125q4.71875 -5.03125 4.71875 -13.03125q0 -5.5 -2.25 -10.21875q-2.25 -4.71875 -6.375 -7.0625q-4.125 -2.34375 -9.375 -2.34375q-3.1875 0 -8.1875 1.1875l0 35.25z" fill-rule="nonzero"/><path fill="#000000" d="m503.0039 66.62056l27.34375 0l0 1.4375l-1.359375 0q-3.09375 0 -4.25 0.65625q-1.140625 0.640625 -1.640625 1.78125q-0.484375 1.125 -0.484375 5.65625l0 25.9375q0 7.109375 1.078125 9.421875q1.078125 2.296875 3.53125 3.828125q2.46875 1.515625 6.21875 1.515625q4.296875 0 7.3125 -1.9375q3.03125 -1.9375 4.53125 -5.328125q1.515625 -3.40625 1.515625 -11.84375l0 -21.59375q0 -3.5625 -0.75 -5.078125q-0.734375 -1.53125 -1.875 -2.109375q-1.75 -0.90625 -4.953125 -0.90625l0 -1.4375l18.3125 0l0 1.4375l-1.09375 0q-2.21875 0 -3.703125 0.90625q-1.484375 0.890625 -2.15625 2.6875q-0.5 1.25 -0.5 4.5l0 20.109375q0 9.34375 -1.234375 13.484375q-1.234375 4.140625 -6.0 7.625q-4.765625 3.46875 -13.0 3.46875q-6.875 0 -10.625 -1.84375q-5.125 -2.5 -7.234375 -6.40625q-2.109375 -3.90625 -2.109375 -10.5l0 -25.9375q0 -4.578125 -0.515625 -5.6875q-0.5 -1.109375 -1.75 -1.765625q-1.25 -0.671875 -4.609375 -0.640625l0 -1.4375zm91.49219 24.875q7.53125 1.765625 10.578125 4.265625q4.375 3.546875 4.375 9.21875q0 5.96875 -4.796875 9.875q-5.90625 4.734375 -17.15625 4.734375l-26.90625 0l0 -1.453125q3.671875 0 4.96875 -0.671875q1.3125 -0.6875 1.84375 -1.78125q0.53125 -1.09375 0.53125 -5.390625l0 -34.375q0 -4.296875 -0.53125 -5.40625q-0.53125 -1.125 -1.859375 -1.78125q-1.328125 -0.671875 -4.953125 -0.671875l0 -1.4375l25.390625 0q9.09375 0 12.875 1.625q3.796875 1.609375 5.984375 4.84375q2.1875 3.21875 2.1875 6.84375q0 3.828125 -2.78125 6.828125q-2.765625 2.984375 -9.75 4.734375zm-14.21875 -1.046875q5.546875 0 8.171875 -1.25q2.640625 -1.25 4.046875 -3.515625q1.40625 -2.265625 1.40625 -5.78125q0 -3.515625 -1.390625 -5.765625q-1.375 -2.25 -3.953125 -3.421875q-2.578125 -1.171875 -8.28125 -1.125l0 20.859375zm0 3.046875l0 16.984375l-0.046875 1.953125q0 2.109375 1.078125 3.1875q1.078125 1.078125 3.1875 1.078125q3.125 0 5.75 -1.390625q2.640625 -1.390625 4.046875 -4.015625q1.40625 -2.640625 1.40625 -5.890625q0 -3.703125 -1.71875 -6.65625q-1.71875 -2.953125 -4.734375 -4.125q-3.0 -1.171875 -8.96875 -1.125zm82.5 7.5l-2.0 18.59375l-47.03125 0l0 -1.453125l1.765625 0q2.296875 0 3.703125 -0.8125q1.015625 -0.546875 1.5625 -1.875q0.4375 -0.9375 0.4375 -4.921875l0 -34.84375q0 -4.0625 -0.4375 -5.078125q-0.421875 -1.015625 -1.734375 -1.78125q-1.3125 -0.765625 -3.53125 -0.765625l-1.765625 0l0 -1.4375l28.25 0l0 1.4375l-2.3125 0q-2.296875 0 -3.703125 0.828125q-1.015625 0.546875 -1.609375 1.875q-0.421875 0.9375 -0.421875 4.921875l0 33.75q0 4.0625 0.46875 5.171875q0.46875 1.109375 1.828125 1.65625q0.984375 0.359375 4.734375 0.359375l4.40625 0q4.21875 0 7.03125 -1.484375q2.8125 -1.484375 4.859375 -4.6875q2.0625 -3.203125 3.890625 -9.453125l1.609375 0zm32.140625 17.140625l0 1.453125l-27.6875 0l0 -1.453125l1.75 0q2.3125 0 3.71875 -0.8125q1.015625 -0.546875 1.5625 -1.875q0.421875 -0.9375 0.421875 -4.921875l0 -34.84375q0 -4.0625 -0.4375 -5.078125q-0.421875 -1.015625 -1.734375 -1.78125q-1.296875 -0.765625 -3.53125 -0.765625l-1.75 0l0 -1.4375l27.6875 0l0 1.4375l-1.75 0q-2.3125 0 -3.71875 0.828125q-1.015625 0.546875 -1.59375 1.875q-0.4375 0.9375 -0.4375 4.921875l0 34.84375q0 4.0625 0.453125 5.078125q0.453125 1.015625 1.75 1.78125q1.3125 0.75 3.546875 0.75l1.75 0zm39.414062 -52.734375l0.4375 17.65625l-1.609375 0q-1.125 -6.640625 -5.5625 -10.671875q-4.4375 -4.046875 -9.59375 -4.046875q-3.984375 0 -6.3125 2.125q-2.3125 2.125 -2.3125 4.90625q0 1.75 0.8125 3.125q1.140625 1.828125 3.640625 3.625q1.828125 1.296875 8.46875 4.578125q9.296875 4.5625 12.546875 8.625q3.203125 4.0625 3.203125 9.296875q0 6.640625 -5.1875 11.4375q-5.171875 4.78125 -13.140625 4.78125q-2.5 0 -4.734375 -0.515625q-2.21875 -0.5 -5.578125 -1.90625q-1.875 -0.78125 -3.078125 -0.78125q-1.015625 0 -2.15625 0.78125q-1.125 0.78125 -1.828125 2.390625l-1.453125 0l0 -20.015625l1.453125 0q1.71875 8.4375 6.609375 12.875q4.90625 4.4375 10.578125 4.4375q4.375 0 6.96875 -2.375q2.59375 -2.390625 2.59375 -5.5625q0 -1.875 -1.0 -3.625q-0.984375 -1.765625 -3.015625 -3.34375q-2.03125 -1.578125 -7.1875 -4.125q-7.234375 -3.546875 -10.40625 -6.046875q-3.15625 -2.5 -4.859375 -5.578125q-1.6875 -3.09375 -1.6875 -6.8125q0 -6.328125 4.640625 -10.78125q4.65625 -4.453125 11.71875 -4.453125q2.578125 0 5.0 0.625q1.84375 0.46875 4.46875 1.75q2.640625 1.265625 3.703125 1.265625q1.015625 0 1.59375 -0.625q0.59375 -0.625 1.09375 -3.015625l1.171875 0zm28.789062 28.71875l0 16.40625q0 4.0625 0.453125 5.078125q0.453125 1.015625 1.75 1.78125q1.3125 0.75 3.546875 0.75l1.75 0l0 1.453125l-27.6875 0l0 -1.453125l1.75 0q2.3125 0 3.71875 -0.8125q1.015625 -0.546875 1.5625 -1.875q0.421875 -0.9375 0.421875 -4.921875l0 -34.84375q0 -4.0625 -0.4375 -5.078125q-0.421875 -1.015625 -1.734375 -1.78125q-1.296875 -0.765625 -3.53125 -0.765625l-1.75 0l0 -1.4375l27.6875 0l0 1.4375l-1.75 0q-2.3125 0 -3.71875 0.828125q-1.015625 0.546875 -1.59375 1.875q-0.4375 0.9375 -0.4375 4.921875l0 15.0l18.71875 0l0 -15.0q0 -4.0625 -0.4375 -5.078125q-0.421875 -1.015625 -1.75 -1.78125q-1.328125 -0.765625 -3.5625 -0.765625l-1.71875 0l0 -1.4375l27.65625 0l0 1.4375l-1.71875 0q-2.34375 0 -3.703125 0.828125q-1.015625 0.546875 -1.609375 1.875q-0.421875 0.9375 -0.421875 4.921875l0 34.84375q0 4.0625 0.421875 5.078125q0.4375 1.015625 1.765625 1.78125q1.328125 0.75 3.546875 0.75l1.71875 0l0 1.453125l-27.65625 0l0 -1.453125l1.71875 0q2.34375 0 3.71875 -0.8125q1.015625 -0.546875 1.59375 -1.875q0.4375 -0.9375 0.4375 -4.921875l0 -16.40625l-18.71875 0zm69.64844 24.015625l0 1.453125l-27.6875 0l0 -1.453125l1.75 0q2.3125 0 3.71875 -0.8125q1.015625 -0.546875 1.5625 -1.875q0.421875 -0.9375 0.421875 -4.921875l0 -34.84375q0 -4.0625 -0.4375 -5.078125q-0.421875 -1.015625 -1.734375 -1.78125q-1.296875 -0.765625 -3.53125 -0.765625l-1.75 0l0 -1.4375l27.6875 0l0 1.4375l-1.75 0q-2.3125 0 -3.71875 0.828125q-1.015625 0.546875 -1.59375 1.875q-0.4375 0.9375 -0.4375 4.921875l0 34.84375q0 4.0625 0.453125 5.078125q0.453125 1.015625 1.75 1.78125q1.3125 0.75 3.546875 0.75l1.75 0zm21.757812 -51.515625l26.140625 32.84375l0 -22.765625q0 -4.765625 -1.375 -6.453125q-1.875 -2.265625 -6.28125 -2.1875l0 -1.4375l17.5 0l0 1.4375q-3.359375 0.4375 -4.515625 1.125q-1.15625 0.671875 -1.796875 2.21875q-0.640625 1.546875 -0.640625 5.296875l0 44.109375l-1.328125 0l-35.828125 -44.109375l0 33.671875q0 4.5625 2.09375 6.171875q2.09375 1.59375 4.78125 1.59375l1.25 0l0 1.453125l-18.78125 0l0 -1.453125q4.375 -0.03125 6.09375 -1.78125q1.71875 -1.765625 1.71875 -5.984375l0 -37.390625l-1.140625 -1.40625q-1.671875 -2.109375 -2.96875 -2.765625q-1.28125 -0.671875 -3.703125 -0.75l0 -1.4375l18.78125 0zm93.05469 -1.21875l0 18.671875l-1.453125 0q-2.609375 -7.65625 -7.84375 -11.640625q-5.234375 -3.984375 -11.453125 -3.984375q-5.9375 0 -9.890625 3.34375q-3.9375 3.34375 -5.578125 9.328125q-1.640625 5.96875 -1.640625 12.25q0 7.625 1.796875 13.375q1.796875 5.734375 5.796875 8.4375q4.015625 2.6875 9.515625 2.6875q1.921875 0 3.921875 -0.40625q2.015625 -0.421875 4.125 -1.203125l0 -11.015625q0 -3.125 -0.4375 -4.03125q-0.421875 -0.921875 -1.765625 -1.65625q-1.34375 -0.75 -3.265625 -0.75l-1.359375 0l0 -1.453125l25.734375 0l0 1.453125q-2.921875 0.1875 -4.078125 0.796875q-1.15625 0.609375 -1.78125 2.015625q-0.34375 0.734375 -0.34375 3.625l0 11.015625q-5.078125 2.265625 -10.578125 3.421875q-5.484375 1.15625 -11.375 1.15625q-7.546875 0 -12.53125 -2.046875q-4.96875 -2.0625 -8.78125 -5.390625q-3.8125 -3.34375 -5.953125 -7.53125q-2.734375 -5.390625 -2.734375 -12.0625q0 -11.953125 8.390625 -20.1875q8.40625 -8.25 21.140625 -8.25q3.9375 0 7.109375 0.625q1.71875 0.3125 5.5625 1.78125q3.84375 1.453125 4.546875 1.453125q1.09375 0 2.03125 -0.796875q0.9375 -0.796875 1.71875 -3.03125l1.453125 0z" fill-rule="nonzero"/><path fill="#000000" fill-opacity="0.0" d="m120.53018 49.47572l286.07874 0" fill-rule="evenodd"/><path stroke="#000000" stroke-width="3.0" stroke-linejoin="round" stroke-linecap="butt" d="m137.41501 49.475716l252.30908 0" fill-rule="evenodd"/><path fill="#000000" stroke="#000000" stroke-width="3.0" stroke-linecap="butt" d="m137.41501 49.475716l-7.1348267 -4.995861l-7.1348267 4.995861l7.1348267 4.995861z" fill-rule="evenodd"/><path fill="#000000" stroke="#000000" stroke-width="3.0" stroke-linecap="butt" d="m389.7241 49.475716l7.1348267 4.995861l7.1348267 -4.995861l-7.1348267 -4.995861z" fill-rule="evenodd"/><path fill="#000000" fill-opacity="0.0" d="m519.97375 49.47572l430.01575 0" fill-rule="evenodd"/><path stroke="#000000" stroke-width="3.0" stroke-linejoin="round" stroke-linecap="butt" d="m536.8586 49.475716l396.2461 0" fill-rule="evenodd"/><path fill="#000000" stroke="#000000" stroke-width="3.0" stroke-linecap="butt" d="m536.8586 49.475716l-7.1348267 -4.995861l-7.1348267 4.995861l7.1348267 4.995861z" fill-rule="evenodd"/><path fill="#000000" stroke="#000000" stroke-width="3.0" stroke-linecap="butt" d="m933.1047 49.475716l7.1348267 4.995861l7.1348267 -4.995861l-7.1348267 -4.995861z" fill-rule="evenodd"/><path fill="#000000" fill-opacity="0.0" d="m50.992126 136.56758l907.9685 0" fill-rule="evenodd"/><path stroke="#000000" stroke-width="3.0" stroke-linejoin="round" stroke-linecap="butt" d="m67.87695 136.56758l874.19885 0" fill-rule="evenodd"/><path fill="#000000" stroke="#000000" stroke-width="3.0" stroke-linecap="butt" d="m67.87695 136.56758l-7.1348267 -4.995865l-7.1348305 4.995865l7.1348305 4.995865z" fill-rule="evenodd"/><path fill="#000000" stroke="#000000" stroke-width="3.0" stroke-linecap="butt" d="m942.0758 136.56758l7.1348267 4.995865l7.1348267 -4.995865l-7.1348267 -4.995865z" fill-rule="evenodd"/></g></svg>