<svg version="1.1" viewBox="0.0 0.0 800.0 200.0" fill="none" stroke="none" stroke-linecap="square" stroke-miterlimit="10" xmlns:xlink="http://www.w3.org/1999/xlink" xmlns="http://www.w3.org/2000/svg"><clipPath id="p.0"><path d="m0 0l800.0 0l0 200.0l-800.0 0l0 -200.0z" clip-rule="nonzero"/></clipPath><g clip-path="url(#p.0)"><path fill="#000000" fill-opacity="0.0" d="m0 0l800.0 0l0 200.0l-800.0 0z" fill-rule="evenodd"/><path fill="#000000" fill-opacity="0.0" d="m0.19947506 -39.989594l791.4016 0l0 249.88977l-791.4016 0z" fill-rule="evenodd"/><path fill="#000000" d="m154.70003 152.90018l-35.34375 0l-44.828125 -61.921875q-4.984375 0.203125 -8.109375 0.203125q-1.265625 0 -2.7343788 -0.046875q-1.46875 -0.046875 -3.03125 -0.15625l0 38.484375q0 12.5 2.734375 15.53125q3.7187538 4.296875 11.140629 4.296875l5.171875 0l0 3.609375l-56.73438 0l0 -3.609375l4.984375 0q8.390625 0 12.0 -5.46875q2.0625 -3.03125 2.0625 -14.359375l0 -85.546875q0 -12.5 -2.734375 -15.53125q-3.8125 -4.296875 -11.328125 -4.296875l-4.984375 0l0 -3.609375l48.23438 0q21.09375 0 31.109375 3.078125q10.015625 3.078125 16.984375 11.328125q6.984375 8.25 6.984375 19.671875q0 12.203125 -7.953125 21.1875q-7.953125 8.984375 -24.65625 12.703125l27.34375 37.984375q9.375 13.09375 16.109375 17.390625q6.734375 4.296875 17.578125 5.46875l0 3.609375zm-94.046875 -68.0625q1.859375 0 3.21875 0.046875q1.3750038 0.046875 2.2500038 0.046875q18.953125 0 28.5625 -8.203125q9.625 -8.203125 9.625 -20.90625q0 -12.390625 -7.765625 -20.15625q-7.765625 -7.765625 -20.546875 -7.765625q-5.671875 0 -15.343754 1.859375l0 55.078125z" fill-rule="nonzero"/><path fill="#000000" d="m182.00471 86.33768l0 28.75l1.40625 0q6.71875 0 9.734375 -4.21875q3.015625 -4.21875 3.859375 -12.4375l1.96875 0l0 36.96875l-1.96875 0q-0.625 -6.046875 -2.640625 -9.890625q-2.0 -3.859375 -4.65625 -5.1875q-2.65625 -1.328125 -7.703125 -1.328125l0 19.890625q0 5.84375 0.484375 7.140625q0.5 1.296875 1.84375 2.140625q1.359375 0.828125 4.390625 0.828125l4.21875 0q9.890625 0 15.84375 -4.578125q5.96875 -4.59375 8.578125 -13.96875l1.921875 0l-3.171875 22.453125l-61.03125 0l0 -1.921875l2.34375 0q3.0625 0 4.9375 -1.09375q1.359375 -0.734375 2.09375 -2.5q0.5625 -1.25 0.5625 -6.5625l0 -46.453125q0 -4.796875 -0.25 -5.890625q-0.53125 -1.828125 -1.9375 -2.8125q-1.96875 -1.453125 -5.40625 -1.453125l-2.34375 0l0 -1.9375l59.109375 0l0 20.890625l-1.984375 0q-1.515625 -7.65625 -4.25 -10.984375q-2.734375 -3.34375 -7.734375 -4.90625q-2.90625 -0.9375 -10.9375 -0.9375l-7.28125 0zm118.01387 -4.0625l0 1.9375q-3.859375 0.625 -6.875 4.109375q-2.1875 2.609375 -6.515625 12.234375l-24.328125 53.953125l-1.71875 0l-24.20311 -56.140625q-4.375 -10.15625 -5.859375 -11.921875q-1.484375 -1.765625 -5.609375 -2.234375l0 -1.9375l33.85936 0l0 1.9375l-1.15625 0q-4.5781097 0 -6.2499847 1.140625q-1.1875 0.78125 -1.1875 2.296875q0 0.9375 0.40625 2.21875q0.421875 1.265625 2.8125 6.84375l15.062485 35.140625l13.953125 -31.296875q2.5 -5.671875 3.0625 -7.59375q0.578125 -1.9375 0.578125 -3.28125q0 -1.5625 -0.828125 -2.765625q-0.828125 -1.203125 -2.453125 -1.828125q-2.234375 -0.875 -5.9375 -0.875l0 -1.9375l23.1875 0zm3.5862122 0l36.453125 0l0 1.9375l-1.828125 0q-4.109375 0 -5.65625 0.859375q-1.53125 0.859375 -2.1875 2.375q-0.640625 1.5 -0.640625 7.546875l0 34.578125q0 9.46875 1.421875 12.546875q1.4375 3.078125 4.71875 5.109375q3.28125 2.03125 8.28125 2.03125q5.734375 0 9.765625 -2.578125q4.046875 -2.578125 6.046875 -7.109375q2.0 -4.53125 2.0 -15.78125l0 -28.796875q0 -4.75 -0.984375 -6.78125q-0.984375 -2.03125 -2.5 -2.8125q-2.34375 -1.1875 -6.609375 -1.1875l0 -1.9375l24.421875 0l0 1.9375l-1.453125 0q-2.96875 0 -4.953125 1.203125q-1.984375 1.1875 -2.859375 3.578125q-0.6875 1.671875 -0.6875 6.0l0 26.8125q0 12.453125 -1.640625 17.96875q-1.640625 5.515625 -8.0 10.15625q-6.34375 4.640625 -17.328125 4.640625q-9.171875 0 -14.171875 -2.453125q-6.8125 -3.328125 -9.625 -8.53125q-2.8125 -5.21875 -2.8125 -14.015625l0 -34.578125q0 -6.09375 -0.6875 -7.578125q-0.671875 -1.484375 -2.34375 -2.375q-1.65625 -0.890625 -6.140625 -0.828125l0 -1.9375zm103.58624 4.0625l0 28.75l1.40625 0q6.71875 0 9.734375 -4.21875q3.015625 -4.21875 3.859375 -12.4375l1.96875 0l0 36.96875l-1.96875 0q-0.625 -6.046875 -2.640625 -9.890625q-2.0 -3.859375 -4.65625 -5.1875q-2.65625 -1.328125 -7.703125 -1.328125l0 19.890625q0 5.84375 0.484375 7.140625q0.5 1.296875 1.84375 2.140625q1.359375 0.828125 4.390625 0.828125l4.21875 0q9.890625 0 15.84375 -4.578125q5.96875 -4.59375 8.578125 -13.96875l1.921875 0l-3.171875 22.453125l-61.03125 0l0 -1.921875l2.34375 0q3.0625 0 4.9375 -1.09375q1.359375 -0.734375 2.09375 -2.5q0.5625 -1.25 0.5625 -6.5625l0 -46.453125q0 -4.796875 -0.25 -5.890625q-0.53125 -1.828125 -1.9375 -2.8125q-1.96875 -1.453125 -5.40625 -1.453125l-2.34375 0l0 -1.9375l59.109375 0l0 20.890625l-1.984375 0q-1.515625 -7.65625 -4.25 -10.984375q-2.734375 -3.34375 -7.734375 -4.90625q-2.90625 -0.9375 -10.9375 -0.9375l-7.28125 0zm144.67798 -4.0625l0 1.9375q-3.859375 0.625 -6.875 4.109375q-2.1875 2.609375 -6.515625 12.234375l-24.328125 53.953125l-1.71875 0l-24.203156 -56.140625q-4.375 -10.15625 -5.859375 -11.921875q-1.484375 -1.765625 -5.609375 -2.234375l0 -1.9375l33.859375 0l0 1.9375l-1.15625 0q-4.578125 0 -6.25 1.140625q-1.1875 0.78125 -1.1875 2.296875q0 0.9375 0.40625 2.21875q0.421875 1.265625 2.8125 6.84375l15.0625305 35.140625l13.953125 -31.296875q2.5 -5.671875 3.0625 -7.59375q0.578125 -1.9375 0.578125 -3.28125q0 -1.5625 -0.828125 -2.765625q-0.828125 -1.203125 -2.453125 -1.828125q-2.234375 -0.875 -5.9375 -0.875l0 -1.9375l23.1875 0zm42.27368 -0.984375q16.875 -0.625 27.421875 9.84375q10.546875 10.46875 10.546875 26.203125q0 13.421875 -7.859375 23.640625q-10.421875 13.53125 -29.421875 13.53125q-19.0625 0 -29.484375 -12.90625q-8.21875 -10.21875 -8.21875 -24.21875q0 -15.734375 10.703125 -26.21875q10.703125 -10.5 26.3125 -9.875zm0.625 3.328125q-9.6875 0 -14.734375 9.90625q-4.109375 8.125 -4.109375 23.328125q0 18.0625 6.34375 26.71875q4.4375 6.03125 12.40625 6.03125q5.359375 0 8.953125 -2.59375q4.578125 -3.34375 7.125 -10.65625q2.5625 -7.3125 2.5625 -19.078125q0 -14.015625 -2.609375 -20.96875q-2.59375 -6.953125 -6.640625 -9.8125q-4.03125 -2.875 -9.296875 -2.875zm43.648132 -2.34375l36.453125 0l0 1.9375l-1.828125 0q-4.109375 0 -5.65625 0.859375q-1.53125 0.859375 -2.1875 2.375q-0.640625 1.5 -0.640625 7.546875l0 34.578125q0 9.46875 1.421875 12.546875q1.4375 3.078125 4.71875 5.109375q3.28125 2.03125 8.28125 2.03125q5.734375 0 9.765625 -2.578125q4.046875 -2.578125 6.046875 -7.109375q2.0 -4.53125 2.0 -15.78125l0 -28.796875q0 -4.75 -0.984375 -6.78125q-0.984375 -2.03125 -2.5 -2.8125q-2.34375 -1.1875 -6.609375 -1.1875l0 -1.9375l24.421875 0l0 1.9375l-1.453125 0q-2.96875 0 -4.953125 1.203125q-1.984375 1.1875 -2.859375 3.578125q-0.6875 1.671875 -0.6875 6.0l0 26.8125q0 12.453125 -1.640625 17.96875q-1.640625 5.515625 -8.0 10.15625q-6.34375 4.640625 -17.328125 4.640625q-9.171875 0 -14.171875 -2.453125q-6.8125 -3.328125 -9.625 -8.53125q-2.8125 -5.21875 -2.8125 -14.015625l0 -34.578125q0 -6.09375 -0.6875 -7.578125q-0.671875 -1.484375 -2.34375 -2.375q-1.65625 -0.890625 -6.140625 -0.828125l0 -1.9375zm124.61749 -1.609375l0.578125 23.546875l-2.140625 0q-1.5 -8.859375 -7.421875 -14.25q-5.90625 -5.390625 -12.78125 -5.390625q-5.3125 0 -8.40625 2.84375q-3.09375 2.828125 -3.09375 6.53125q0 2.34375 1.09375 4.171875q1.5 2.4375 4.84375 4.84375q2.4375 1.71875 11.296875 6.09375q12.390625 6.09375 16.71875 11.5q4.265625 5.421875 4.265625 12.390625q0 8.859375 -6.90625 15.25q-6.890625 6.375 -17.515625 6.375q-3.34375 0 -6.3125 -0.6875q-2.953125 -0.671875 -7.4375 -2.546875q-2.5 -1.046875 -4.109375 -1.046875q-1.359375 0 -2.875 1.046875q-1.5 1.046875 -2.4375 3.171875l-1.9375 0l0 -26.65625l1.9375 0q2.28125 11.25 8.8125 17.15625q6.546875 5.90625 14.09375 5.90625q5.828125 0 9.296875 -3.171875q3.46875 -3.171875 3.46875 -7.390625q0 -2.5 -1.328125 -4.84375q-1.328125 -2.34375 -4.046875 -4.453125q-2.703125 -2.109375 -9.578125 -5.5q-9.625 -4.734375 -13.84375 -8.0625q-4.21875 -3.34375 -6.484375 -7.453125q-2.265625 -4.109375 -2.265625 -9.0625q0 -8.4375 6.1875 -14.375q6.203125 -5.9375 15.625 -5.9375q3.4375 0 6.671875 0.828125q2.4375 0.625 5.953125 2.328125q3.515625 1.6875 4.921875 1.6875q1.359375 0 2.140625 -0.828125q0.78125 -0.84375 1.453125 -4.015625l1.5625 0z" fill-rule="nonzero"/><path fill="#000000" fill-opacity="0.0" d="m151.13078 -0.6762515l618.6456 0l0 51.937008l-618.6456 0z" fill-rule="evenodd"/><path fill="#000000" d="m187.57863 39.04375l-15.703125 0l0.21875 -0.578125q1.25 -0.03125 1.671875 -0.203125q0.65625 -0.28125 0.96875 -0.734375q0.484375 -0.71875 1.03125 -2.59375l3.734375 -12.890627q0.46875 -1.59375 0.46875 -2.34375q0 -0.59375 -0.4375 -0.921875q-0.421875 -0.328125 -1.609375 -0.328125q-0.265625 0 -0.421875 -0.015625l0.1875 -0.578125l8.640625 0l-0.125 0.578125q-1.453125 0 -2.0625 0.28125q-0.609375 0.28125 -1.015625 0.921875q-0.28125 0.421875 -0.921875 2.625l-3.671875 12.671877q-0.421875 1.4375 -0.421875 2.0q0 0.375 0.421875 0.71875q0.265625 0.234375 1.203125 0.234375l2.046875 0q2.234375 0 3.546875 -0.5625q0.96875 -0.421875 1.78125 -1.265625q0.4375 -0.46875 1.546875 -2.328125l0.40625 -0.703125l0.578125 0l-2.0625 6.015625zm13.484375 -20.046877l-2.421875 8.375l1.984375 0q2.125 0 3.078125 -0.640625q0.953125 -0.65625 1.640625 -2.40625l0.578125 0l-2.171875 7.687502l-0.625 0q0.28125 -0.9687519 0.28125 -1.6562519q0 -0.671875 -0.28125 -1.078125q-0.265625 -0.40625 -0.75 -0.59375q-0.46875 -0.203125 -2.0 -0.203125l-2.015625 0l-2.046875 7.015627q-0.296875 1.015625 -0.296875 1.546875q0 0.40625 0.390625 0.71875q0.265625 0.21875 1.328125 0.21875l1.875 0q3.046875 0 4.875 -1.078125q1.84375 -1.078125 3.296875 -3.75l0.578125 0l-2.0 5.890625l-16.375 0l0.203125 -0.578125q1.21875 -0.03125 1.640625 -0.21875q0.625 -0.28125 0.90625 -0.71875q0.421875 -0.640625 1.0 -2.6875l3.71875 -12.781252q0.4375 -1.546875 0.4375 -2.359375q0 -0.59375 -0.421875 -0.921875q-0.40625 -0.34375 -1.609375 -0.34375l-0.328125 0l0.1875 -0.578125l15.21875 0l-1.3125 5.109375l-0.578125 0q0.109375 -0.71875 0.109375 -1.203125q0 -0.828125 -0.40625 -1.390625q-0.53125 -0.71875 -1.546875 -1.09375q-0.75 -0.28125 -3.453125 -0.28125l-2.6875 0zm26.359375 -1.140625l6.546875 16.609377l3.546875 -12.406252q0.4375 -1.53125 0.4375 -2.375q0 -0.578125 -0.40625 -0.90625q-0.40625 -0.328125 -1.515625 -0.328125q-0.1875 0 -0.390625 -0.015625l0.171875 -0.578125l6.8125 0l-0.1875 0.578125q-1.0625 -0.015625 -1.578125 0.21875q-0.734375 0.328125 -1.09375 0.84375q-0.5 0.734375 -1.015625 2.5625l-4.984375 17.468752l-0.5625 0l-7.046875 -17.875002l-3.765625 13.203127q-0.421875 1.5 -0.421875 2.296875q0 0.59375 0.375 0.90625q0.390625 0.296875 1.828125 0.40625l-0.15625 0.578125l-6.65625 0l0.21875 -0.578125q1.25 -0.03125 1.671875 -0.21875q0.640625 -0.28125 0.953125 -0.734375q0.453125 -0.6875 1.015625 -2.65625l4.203125 -14.734377q-0.609375 -0.9375 -1.3125 -1.28125q-0.6875 -0.359375 -2.15625 -0.40625l0.171875 -0.578125l5.296875 0zm27.9375 -0.484375q2.1093597 0 3.7343597 0.921875q1.625 0.90625 2.546875 2.703125q0.921875 1.78125 0.921875 3.703125q0 3.40625 -1.984375 7.15625q-1.96875 3.734377 -5.1562347 5.703127q-3.1875 1.96875 -6.59375 1.96875q-2.453125 0 -4.109375 -1.078125q-1.640625 -1.09375 -2.4375 -2.875q-0.78125 -1.78125 -0.78125 -3.453125q0 -2.968752 1.421875 -5.859377q1.4375 -2.90625 3.421875 -4.84375q1.984375 -1.953125 4.234375 -3.0q2.25 -1.046875 4.78125 -1.046875zm-0.53125 1.0q-1.5625 0 -3.0625 0.78125q-1.484375 0.765625 -2.953125 2.53125q-1.46875 1.75 -2.640625 4.59375q-1.4375 3.5 -1.4375 6.609377q0 2.21875 1.140625 3.9375q1.140625 1.703125 3.5 1.703125q1.421875 0 2.78125 -0.703125q1.375 -0.703125 2.859375 -2.40625q1.8593597 -2.140625 3.1249847 -5.453127q1.265625 -3.328125 1.265625 -6.203125q0 -2.125 -1.140625 -3.75q-1.140625 -1.640625 -3.4374847 -1.640625zm12.062485 -0.515625l8.953125 0l-0.171875 0.578125q-1.375 0.03125 -1.96875 0.265625q-0.578125 0.21875 -1.0 0.796875q-0.40625 0.578125 -0.859375 2.140625l-2.171875 7.5q-0.578125 2.0 -0.6875 2.625q-0.1875 1.0000019 -0.1875 1.8593769q0 1.890625 1.40625 3.203125q1.40625 1.296875 3.765625 1.296875q1.546875 0 2.765625 -0.578125q1.21875 -0.59375 2.078125 -1.640625q0.875 -1.0625 1.59375 -2.859375q0.71875 -1.8125019 1.265625 -3.656252l1.875 -6.46875q0.703125 -2.421875 0.703125 -3.15625q0 -0.515625 -0.484375 -0.875q-0.46875 -0.375 -1.921875 -0.453125l0.171875 -0.578125l6.734375 0l-0.171875 0.578125q-1.1875 0 -1.71875 0.234375q-0.515625 0.21875 -0.90625 0.8125q-0.390625 0.578125 -0.875 2.265625l-2.296875 7.859375q-1.109375 3.828127 -2.09375 5.656252q-0.984375 1.8125 -2.859375 3.046875q-1.859375 1.21875 -4.625 1.21875q-3.1875 0 -5.140625 -1.796875q-1.953125 -1.8125 -1.953125 -4.140625q0 -0.921875 0.171875 -1.9687519q0.125 -0.6875 0.609375 -2.375l2.09375 -7.203125q0.4375 -1.5625 0.4375 -2.296875q0 -0.578125 -0.453125 -0.890625q-0.4375 -0.328125 -2.234375 -0.421875l0.15625 -0.578125zm23.78125 21.671877l1.75 -17.640627q0.125 -1.34375 0.125 -1.8125q0 -0.703125 -0.53125 -1.171875q-0.515625 -0.46875 -1.640625 -0.46875l-0.5625 0l0.15625 -0.578125l8.359375 0l-0.171875 0.578125q-1.359375 0.015625 -1.875 0.28125q-0.5 0.265625 -0.796875 0.90625q-0.15625 0.34375 -0.328125 1.953125l-1.25 12.640627l8.265625 -11.281252q1.34375 -1.828125 1.6875 -2.546875q0.234375 -0.484375 0.234375 -0.84375q0 -0.421875 -0.359375 -0.734375q-0.359375 -0.3125 -1.34375 -0.375l0.1875 -0.578125l6.375 0l-0.15625 0.578125q-0.765625 0.0625 -1.21875 0.296875q-0.859375 0.40625 -1.71875 1.234375q-0.84375 0.828125 -2.6875 3.34375l-11.9375 16.218752l-0.5625 0zm25.046875 -20.531252l-2.421875 8.375l1.984375 0q2.125 0 3.078125 -0.640625q0.953125 -0.65625 1.640625 -2.40625l0.578125 0l-2.171875 7.687502l-0.625 0q0.28125 -0.9687519 0.28125 -1.6562519q0 -0.671875 -0.28125 -1.078125q-0.265625 -0.40625 -0.75 -0.59375q-0.46875 -0.203125 -2.0 -0.203125l-2.015625 0l-2.046875 7.015627q-0.296875 1.015625 -0.296875 1.546875q0 0.40625 0.390625 0.71875q0.265625 0.21875 1.328125 0.21875l1.875 0q3.046875 0 4.875 -1.078125q1.84375 -1.078125 3.296875 -3.75l0.578125 0l-2.0 5.890625l-16.375 0l0.203125 -0.578125q1.21875 -0.03125 1.640625 -0.21875q0.625 -0.28125 0.90625 -0.71875q0.421875 -0.640625 1.0 -2.6875l3.71875 -12.781252q0.4375 -1.546875 0.4375 -2.359375q0 -0.59375 -0.421875 -0.921875q-0.40625 -0.34375 -1.609375 -0.34375l-0.328125 0l0.1875 -0.578125l15.21875 0l-1.3125 5.109375l-0.578125 0q0.109375 -0.71875 0.109375 -1.203125q0 -0.828125 -0.40625 -1.390625q-0.53125 -0.71875 -1.546875 -1.09375q-0.75 -0.28125 -3.453125 -0.28125l-2.6875 0zm25.671875 -1.625l-1.609375 17.625002q-0.125 1.234375 -0.125 1.625q0 0.625 0.234375 0.953125q0.296875 0.453125 0.796875 0.671875q0.515625 0.21875 1.71875 0.21875l-0.171875 0.578125l-8.34375 0l0.171875 -0.578125l0.359375 0q1.015625 0 1.65625 -0.4375q0.453125 -0.296875 0.703125 -0.984375q0.171875 -0.484375 0.328125 -2.28125l0.25 -2.6875l-6.0625 0l-2.15625 2.921875q-0.734375 0.984375 -0.921875 1.421875q-0.1875 0.421875 -0.1875 0.796875q0 0.5 0.40625 0.859375q0.40625 0.359375 1.34375 0.390625l-0.171875 0.578125l-6.265625 0l0.171875 -0.578125q1.15625 -0.046875 2.03125 -0.765625q0.890625 -0.734375 2.640625 -3.109375l12.65625 -17.218752l0.546875 0zm-3.09375 5.203125l-6.140625 8.359375l5.328125 0l0.8125 -8.359375zm10.34375 -4.71875l8.953125 0l-0.171875 0.578125q-1.375 0.03125 -1.96875 0.265625q-0.578125 0.21875 -1.0 0.796875q-0.40625 0.578125 -0.859375 2.140625l-2.171875 7.5q-0.578125 2.0 -0.6875 2.625q-0.1875 1.0000019 -0.1875 1.8593769q0 1.890625 1.40625 3.203125q1.40625 1.296875 3.765625 1.296875q1.546875 0 2.765625 -0.578125q1.21875 -0.59375 2.078125 -1.640625q0.875 -1.0625 1.59375 -2.859375q0.71875 -1.8125019 1.265625 -3.656252l1.875 -6.46875q0.703125 -2.421875 0.703125 -3.15625q0 -0.515625 -0.484375 -0.875q-0.46875 -0.375 -1.921875 -0.453125l0.171875 -0.578125l6.734375 0l-0.171875 0.578125q-1.1875 0 -1.71875 0.234375q-0.515625 0.21875 -0.90625 0.8125q-0.390625 0.578125 -0.875 2.265625l-2.296875 7.859375q-1.109375 3.828127 -2.09375 5.656252q-0.984375 1.8125 -2.859375 3.046875q-1.859375 1.21875 -4.625 1.21875q-3.1875 0 -5.140625 -1.796875q-1.953125 -1.8125 -1.953125 -4.140625q0 -0.921875 0.171875 -1.9687519q0.125 -0.6875 0.609375 -2.375l2.09375 -7.203125q0.4375 -1.5625 0.4375 -2.296875q0 -0.578125 -0.453125 -0.890625q-0.4375 -0.328125 -2.234375 -0.421875l0.15625 -0.578125zm36.078125 0l8.34375 0l-0.171875 0.578125q-1.609375 0.015625 -2.265625 0.59375q-0.65625 0.5625 -1.375 3.046875l-2.6875 9.328125q-0.765625 2.640627 -1.546875 4.031252q-1.046875 1.875 -2.828125 2.984375q-1.765625 1.109375 -3.96875 1.109375q-1.8125 0 -2.78125 -0.828125q-0.96875 -0.84375 -0.96875 -2.03125q0 -0.9375 0.59375 -1.5625q0.578125 -0.625 1.390625 -0.625q0.703125 0 1.140625 0.421875q0.453125 0.421875 0.453125 1.03125q0 0.5 -0.40625 0.96875q-0.515625 0.59375 -0.515625 0.8125q0 0.328125 0.296875 0.59375q0.296875 0.265625 0.796875 0.265625q0.71875 0 1.484375 -0.34375q0.78125 -0.34375 1.453125 -1.046875q0.6875 -0.703125 1.1875 -1.6875q0.515625 -0.984375 1.046875 -2.6875l0.765625 -2.703127l2.328125 -8.03125q0.515625 -1.765625 0.515625 -2.203125q0 -0.59375 -0.46875 -0.96875q-0.46875 -0.375 -1.984375 -0.46875l0.171875 -0.578125zm20.8125 -0.484375q2.109375 0 3.734375 0.921875q1.625 0.90625 2.546875 2.703125q0.921875 1.78125 0.921875 3.703125q0 3.40625 -1.984375 7.15625q-1.96875 3.734377 -5.15625 5.703127q-3.1875 1.96875 -6.59375 1.96875q-2.453125 0 -4.109375 -1.078125q-1.640625 -1.09375 -2.4375 -2.875q-0.78125 -1.78125 -0.78125 -3.453125q0 -2.968752 1.421875 -5.859377q1.4375 -2.90625 3.421875 -4.84375q1.984375 -1.953125 4.234375 -3.0q2.25 -1.046875 4.78125 -1.046875zm-0.53125 1.0q-1.5625 0 -3.0625 0.78125q-1.484375 0.765625 -2.953125 2.53125q-1.46875 1.75 -2.640625 4.59375q-1.4375 3.5 -1.4375 6.609377q0 2.21875 1.140625 3.9375q1.140625 1.703125 3.5 1.703125q1.421875 0 2.78125 -0.703125q1.375 -0.703125 2.859375 -2.40625q1.859375 -2.140625 3.125 -5.453127q1.265625 -3.328125 1.265625 -6.203125q0 -2.125 -1.140625 -3.75q-1.140625 -1.640625 -3.4375 -1.640625zm12.0625 -0.515625l8.953125 0l-0.171875 0.578125q-1.375 0.03125 -1.96875 0.265625q-0.578125 0.21875 -1.0 0.796875q-0.40625 0.578125 -0.859375 2.140625l-2.171875 7.5q-0.578125 2.0 -0.6875 2.625q-0.1875 1.0000019 -0.1875 1.8593769q0 1.890625 1.40625 3.203125q1.40625 1.296875 3.765625 1.296875q1.546875 0 2.765625 -0.578125q1.21875 -0.59375 2.078125 -1.640625q0.875 -1.0625 1.59375 -2.859375q0.71875 -1.8125019 1.265625 -3.656252l1.875 -6.46875q0.703125 -2.421875 0.703125 -3.15625q0 -0.515625 -0.484375 -0.875q-0.46875 -0.375 -1.921875 -0.453125l0.171875 -0.578125l6.734375 0l-0.171875 0.578125q-1.1875 0 -1.71875 0.234375q-0.515625 0.21875 -0.90625 0.8125q-0.390625 0.578125 -0.875 2.265625l-2.296875 7.859375q-1.109375 3.828127 -2.09375 5.656252q-0.984375 1.8125 -2.859375 3.046875q-1.859375 1.21875 -4.625 1.21875q-3.1875 0 -5.140625 -1.796875q-1.953125 -1.8125 -1.953125 -4.140625q0 -0.921875 0.171875 -1.9687519q0.125 -0.6875 0.609375 -2.375l2.09375 -7.203125q0.4375 -1.5625 0.4375 -2.296875q0 -0.578125 -0.453125 -0.890625q-0.4375 -0.328125 -2.234375 -0.421875l0.15625 -0.578125zm32.21875 21.187502l-3.390625 -10.296877q-1.1875 0.015625 -2.4375 -0.234375l-1.828125 6.406252q-0.359375 1.25 -0.359375 2.109375q0 0.65625 0.453125 1.03125q0.34375 0.28125 1.875 0.40625l-0.140625 0.578125l-8.203125 0l0.171875 -0.578125q1.15625 -0.046875 1.5625 -0.234375q0.640625 -0.265625 0.9375 -0.71875q0.5 -0.734375 1.046875 -2.59375l3.703125 -12.796877q0.375 -1.28125 0.375 -1.984375q0 -0.71875 -0.59375 -1.21875q-0.578125 -0.5 -1.671875 -0.484375l0.1875 -0.578125l6.90625 0q3.46875 0 5.0 1.3125q1.53125 1.3125 1.53125 3.453125q0 2.046875 -1.578125 3.75q-1.5625 1.6875 -4.296875 2.140625l2.0625 6.203127q0.75 2.28125 1.5 2.96875q0.75 0.6875 2.421875 0.78125l-0.171875 0.578125l-5.0625 0zm-5.5625 -11.421877q1.0 0.140625 1.78125 0.140625q2.6875 0 4.25 -1.484375q1.5625 -1.5 1.5625 -3.71875q0 -1.734375 -0.984375 -2.65625q-0.96875 -0.921875 -2.921875 -0.921875q-0.5 0 -1.1875 0.125l-2.5 8.515625zm20.984375 -9.765625l6.546875 16.609377l3.546875 -12.406252q0.4375 -1.53125 0.4375 -2.375q0 -0.578125 -0.40625 -0.90625q-0.40625 -0.328125 -1.515625 -0.328125q-0.1875 0 -0.390625 -0.015625l0.171875 -0.578125l6.8125 0l-0.1875 0.578125q-1.0625 -0.015625 -1.578125 0.21875q-0.734375 0.328125 -1.09375 0.84375q-0.5 0.734375 -1.015625 2.5625l-4.984375 17.468752l-0.5625 0l-7.046875 -17.875002l-3.765625 13.203127q-0.421875 1.5 -0.421875 2.296875q0 0.59375 0.375 0.90625q0.390625 0.296875 1.828125 0.40625l-0.15625 0.578125l-6.65625 0l0.21875 -0.578125q1.25 -0.03125 1.671875 -0.21875q0.640625 -0.28125 0.953125 -0.734375q0.453125 -0.6875 1.015625 -2.65625l4.203125 -14.734377q-0.609375 -0.9375 -1.3125 -1.28125q-0.6875 -0.359375 -2.15625 -0.40625l0.171875 -0.578125l5.296875 0zm28.65625 -0.484375l-1.609375 17.625002q-0.125 1.234375 -0.125 1.625q0 0.625 0.234375 0.953125q0.296875 0.453125 0.796875 0.671875q0.515625 0.21875 1.71875 0.21875l-0.171875 0.578125l-8.34375 0l0.171875 -0.578125l0.359375 0q1.015625 0 1.65625 -0.4375q0.453125 -0.296875 0.703125 -0.984375q0.171875 -0.484375 0.328125 -2.28125l0.25 -2.6875l-6.0625 0l-2.15625 2.921875q-0.734375 0.984375 -0.921875 1.421875q-0.1875 0.421875 -0.1875 0.796875q0 0.5 0.40625 0.859375q0.40625 0.359375 1.34375 0.390625l-0.171875 0.578125l-6.265625 0l0.171875 -0.578125q1.15625 -0.046875 2.03125 -0.765625q0.890625 -0.734375 2.640625 -3.109375l12.65625 -17.218752l0.546875 0zm-3.09375 5.203125l-6.140625 8.359375l5.328125 0l0.8125 -8.359375zm20.828125 16.468752l-15.703125 0l0.21875 -0.578125q1.25 -0.03125 1.671875 -0.203125q0.65625 -0.28125 0.96875 -0.734375q0.484375 -0.71875 1.03125 -2.59375l3.734375 -12.890627q0.46875 -1.59375 0.46875 -2.34375q0 -0.59375 -0.4375 -0.921875q-0.421875 -0.328125 -1.609375 -0.328125q-0.265625 0 -0.421875 -0.015625l0.1875 -0.578125l8.640625 0l-0.125 0.578125q-1.453125 0 -2.0625 0.28125q-0.609375 0.28125 -1.015625 0.921875q-0.28125 0.421875 -0.921875 2.625l-3.671875 12.671877q-0.421875 1.4375 -0.421875 2.0q0 0.375 0.421875 0.71875q0.265625 0.234375 1.203125 0.234375l2.046875 0q2.234375 0 3.546875 -0.5625q0.96875 -0.421875 1.78125 -1.265625q0.4375 -0.46875 1.546875 -2.328125l0.40625 -0.703125l0.578125 0l-2.0625 6.015625zm25.796875 0l-15.703125 0l0.21875 -0.578125q1.25 -0.03125 1.671875 -0.203125q0.65625 -0.28125 0.96875 -0.734375q0.484375 -0.71875 1.03125 -2.59375l3.734375 -12.890627q0.46875 -1.59375 0.46875 -2.34375q0 -0.59375 -0.4375 -0.921875q-0.421875 -0.328125 -1.609375 -0.328125q-0.265625 0 -0.421875 -0.015625l0.1875 -0.578125l8.640625 0l-0.125 0.578125q-1.453125 0 -2.0625 0.28125q-0.609375 0.28125 -1.015625 0.921875q-0.28125 0.421875 -0.921875 2.625l-3.671875 12.671877q-0.421875 1.4375 -0.421875 2.0q0 0.375 0.421875 0.71875q0.265625 0.234375 1.203125 0.234375l2.046875 0q2.234375 0 3.546875 -0.5625q0.96875 -0.421875 1.78125 -1.265625q0.4375 -0.46875 1.546875 -2.328125l0.40625 -0.703125l0.578125 0l-2.0625 6.015625zm11.015625 -0.578125l-0.171875 0.578125l-8.71875 0l0.21875 -0.578125q1.3125 -0.03125 1.734375 -0.21875q0.6875 -0.265625 1.015625 -0.734375q0.515625 -0.734375 1.0625 -2.625l3.6875 -12.781252q0.46875 -1.59375 0.46875 -2.40625q0 -0.40625 -0.203125 -0.6875q-0.203125 -0.28125 -0.625 -0.421875q-0.40625 -0.15625 -1.609375 -0.15625l0.1875 -0.578125l8.1875 0l-0.171875 0.578125q-1.0 -0.015625 -1.484375 0.21875q-0.703125 0.3125 -1.078125 0.890625q-0.359375 0.578125 -0.9375 2.5625l-3.671875 12.781252q-0.5 1.765625 -0.5 2.25q0 0.390625 0.1875 0.671875q0.203125 0.265625 0.625 0.421875q0.4375 0.140625 1.796875 0.234375zm7.453125 -20.609377l16.09375 0l-1.734375 5.625l-0.59375 0q0.296875 -1.234375 0.296875 -2.203125q0 -1.140625 -0.703125 -1.71875q-0.53125 -0.4375 -2.734375 -0.4375l-1.671875 0l-4.1875 14.593752q-0.796875 2.75 -0.796875 3.390625q0 0.59375 0.5 0.984375q0.5 0.375 1.765625 0.375l0.71875 0l-0.1875 0.578125l-9.21875 0l0.171875 -0.578125l0.40625 0q1.21875 0 1.875 -0.390625q0.453125 -0.265625 0.8125 -0.953125q0.375 -0.703125 1.03125 -2.953125l4.390625 -15.046877l-1.265625 0q-1.828125 0 -2.953125 0.46875q-1.109375 0.46875 -1.796875 1.359375q-0.6875 0.890625 -1.125 2.53125l-0.578125 0l1.484375 -5.625zm17.796875 0l16.09375 0l-1.734375 5.625l-0.59375 0q0.296875 -1.234375 0.296875 -2.203125q0 -1.140625 -0.703125 -1.71875q-0.53125 -0.4375 -2.734375 -0.4375l-1.671875 0l-4.1875 14.593752q-0.796875 2.75 -0.796875 3.390625q0 0.59375 0.5 0.984375q0.5 0.375 1.765625 0.375l0.71875 0l-0.1875 0.578125l-9.21875 0l0.171875 -0.578125l0.40625 0q1.21875 0 1.875 -0.390625q0.453125 -0.265625 0.8125 -0.953125q0.375 -0.703125 1.03125 -2.953125l4.390625 -15.046877l-1.265625 0q-1.828125 0 -2.953125 0.46875q-1.109375 0.46875 -1.796875 1.359375q-0.6875 0.890625 -1.125 2.53125l-0.578125 0l1.484375 -5.625zm23.46875 1.140625l-2.421875 8.375l1.984375 0q2.125 0 3.078125 -0.640625q0.953125 -0.65625 1.640625 -2.40625l0.578125 0l-2.171875 7.687502l-0.625 0q0.28125 -0.9687519 0.28125 -1.6562519q0 -0.671875 -0.28125 -1.078125q-0.265625 -0.40625 -0.75 -0.59375q-0.46875 -0.203125 -2.0 -0.203125l-2.015625 0l-2.046875 7.015627q-0.296875 1.015625 -0.296875 1.546875q0 0.40625 0.390625 0.71875q0.265625 0.21875 1.328125 0.21875l1.875 0q3.046875 0 4.875 -1.078125q1.84375 -1.078125 3.296875 -3.75l0.578125 0l-2.0 5.890625l-16.375 0l0.203125 -0.578125q1.21875 -0.03125 1.640625 -0.21875q0.625 -0.28125 0.90625 -0.71875q0.421875 -0.640625 1.0 -2.6875l3.71875 -12.781252q0.4375 -1.546875 0.4375 -2.359375q0 -0.59375 -0.421875 -0.921875q-0.40625 -0.34375 -1.609375 -0.34375l-0.328125 0l0.1875 -0.578125l15.21875 0l-1.3125 5.109375l-0.578125 0q0.109375 -0.71875 0.109375 -1.203125q0 -0.828125 -0.40625 -1.390625q-0.53125 -0.71875 -1.546875 -1.09375q-0.75 -0.28125 -3.453125 -0.28125l-2.6875 0zm6.15625 -7.859374l-4.59375 5.359374l-0.53125 0l1.609375 -5.359374l3.515625 0zm16.328125 27.90625l-3.390625 -10.296877q-1.1875 0.015625 -2.4375 -0.234375l-1.828125 6.406252q-0.359375 1.25 -0.359375 2.109375q0 0.65625 0.453125 1.03125q0.34375 0.28125 1.875 0.40625l-0.140625 0.578125l-8.203125 0l0.171875 -0.578125q1.15625 -0.046875 1.5625 -0.234375q0.640625 -0.265625 0.9375 -0.71875q0.5 -0.734375 1.046875 -2.59375l3.703125 -12.796877q0.375 -1.28125 0.375 -1.984375q0 -0.71875 -0.59375 -1.21875q-0.578125 -0.5 -1.671875 -0.484375l0.1875 -0.578125l6.90625 0q3.46875 0 5.0 1.3125q1.53125 1.3125 1.53125 3.453125q0 2.046875 -1.578125 3.75q-1.5625 1.6875 -4.296875 2.140625l2.0625 6.203127q0.75 2.28125 1.5 2.96875q0.75 0.6875 2.421875 0.78125l-0.171875 0.578125l-5.0625 0zm-5.5625 -11.421877q1.0 0.140625 1.78125 0.140625q2.6875 0 4.25 -1.484375q1.5625 -1.5 1.5625 -3.71875q0 -1.734375 -0.984375 -2.65625q-0.96875 -0.921875 -2.921875 -0.921875q-0.5 0 -1.1875 0.125l-2.5 8.515625zm28.296875 -10.25l-1.609375 17.625002q-0.125 1.234375 -0.125 1.625q0 0.625 0.234375 0.953125q0.296875 0.453125 0.796875 0.671875q0.515625 0.21875 1.71875 0.21875l-0.171875 0.578125l-8.34375 0l0.171875 -0.578125l0.359375 0q1.015625 0 1.65625 -0.4375q0.453125 -0.296875 0.703125 -0.984375q0.171875 -0.484375 0.328125 -2.28125l0.25 -2.6875l-6.0625 0l-2.15625 2.921875q-0.734375 0.984375 -0.921875 1.421875q-0.1875 0.421875 -0.1875 0.796875q0 0.5 0.40625 0.859375q0.40625 0.359375 1.34375 0.390625l-0.171875 0.578125l-6.265625 0l0.171875 -0.578125q1.15625 -0.046875 2.03125 -0.765625q0.890625 -0.734375 2.640625 -3.109375l12.65625 -17.218752l0.546875 0zm-3.09375 5.203125l-6.140625 8.359375l5.328125 0l0.8125 -8.359375zm14.046875 15.890627l-0.171875 0.578125l-8.71875 0l0.21875 -0.578125q1.3125 -0.03125 1.734375 -0.21875q0.6875 -0.265625 1.015625 -0.734375q0.515625 -0.734375 1.0625 -2.625l3.6875 -12.781252q0.46875 -1.59375 0.46875 -2.40625q0 -0.40625 -0.203125 -0.6875q-0.203125 -0.28125 -0.625 -0.421875q-0.40625 -0.15625 -1.609375 -0.15625l0.1875 -0.578125l8.1875 0l-0.171875 0.578125q-1.0 -0.015625 -1.484375 0.21875q-0.703125 0.3125 -1.078125 0.890625q-0.359375 0.578125 -0.9375 2.5625l-3.671875 12.781252q-0.5 1.765625 -0.5 2.25q0 0.390625 0.1875 0.671875q0.203125 0.265625 0.625 0.421875q0.4375 0.140625 1.796875 0.234375zm16.062561 0.578125l-3.390625 -10.296877q-1.1875 0.015625 -2.437561 -0.234375l-1.828125 6.406252q-0.359375 1.25 -0.359375 2.109375q0 0.65625 0.453125 1.03125q0.34375 0.28125 1.875061 0.40625l-0.14068604 0.578125l-8.203125 0l0.171875 -0.578125q1.15625 -0.046875 1.5625 -0.234375q0.640625 -0.265625 0.9375 -0.71875q0.5 -0.734375 1.046875 -2.59375l3.703125 -12.796877q0.375 -1.28125 0.375 -1.984375q0 -0.71875 -0.59375 -1.21875q-0.578125 -0.5 -1.671875 -0.484375l0.1875 -0.578125l6.906311 0q3.46875 0 5.0 1.3125q1.53125 1.3125 1.53125 3.453125q0 2.046875 -1.578125 3.75q-1.5625 1.6875 -4.296875 2.140625l2.0625 6.203127q0.75 2.28125 1.5 2.96875q0.75 0.6875 2.421875 0.78125l-0.171875 0.578125l-5.0625 0zm-5.5625 -11.421877q1.0 0.140625 1.78125 0.140625q2.6875 0 4.25 -1.484375q1.5625 -1.5 1.5625 -3.71875q0 -1.734375 -0.984375 -2.65625q-0.96875 -0.921875 -2.921875 -0.921875q-0.5 0 -1.1875 0.125l-2.5 8.515625zm22.171875 -8.625l-2.421875 8.375l1.984375 0q2.125 0 3.078125 -0.640625q0.953125 -0.65625 1.640625 -2.40625l0.578125 0l-2.171875 7.687502l-0.625 0q0.28125 -0.9687519 0.28125 -1.6562519q0 -0.671875 -0.28125 -1.078125q-0.265625 -0.40625 -0.75 -0.59375q-0.46875 -0.203125 -2.0 -0.203125l-2.015625 0l-2.046875 7.015627q-0.296875 1.015625 -0.296875 1.546875q0 0.40625 0.390625 0.71875q0.265625 0.21875 1.328125 0.21875l1.875 0q3.046875 0 4.875 -1.078125q1.84375 -1.078125 3.296875 -3.75l0.578125 0l-2.0 5.890625l-16.375 0l0.203125 -0.578125q1.21875 -0.03125 1.640625 -0.21875q0.625 -0.28125 0.90625 -0.71875q0.421875 -0.640625 1.0 -2.6875l3.71875 -12.781252q0.4375 -1.546875 0.4375 -2.359375q0 -0.59375 -0.421875 -0.921875q-0.40625 -0.34375 -1.609375 -0.34375l-0.328125 0l0.1875 -0.578125l15.21875 0l-1.3125 5.109375l-0.578125 0q0.109375 -0.71875 0.109375 -1.203125q0 -0.828125 -0.40625 -1.390625q-0.53125 -0.71875 -1.546875 -1.09375q-0.75 -0.28125 -3.453125 -0.28125l-2.6875 0zm8.859375 23.562502q1.171875 -0.53125 1.90625 -1.34375q0.5625 -0.625 0.5625 -1.203125q0 -0.28125 -0.09375 -0.515625q-0.0625 -0.125 -0.4375 -0.5q-0.375 -0.375 -0.421875 -0.515625q-0.109375 -0.265625 -0.109375 -0.609375q0 -0.671875 0.453125 -1.15625q0.46875 -0.484375 1.09375 -0.484375q0.640625 0 1.125 0.515625q0.5 0.515625 0.5 1.296875q0 1.390625 -1.09375 2.8125q-1.09375 1.421875 -3.171875 2.203125l-0.3125 -0.5zm31.0 -3.515625l-15.703125 0l0.21875 -0.578125q1.25 -0.03125 1.671875 -0.203125q0.65625 -0.28125 0.96875 -0.734375q0.484375 -0.71875 1.03125 -2.59375l3.734375 -12.890627q0.46875 -1.59375 0.46875 -2.34375q0 -0.59375 -0.4375 -0.921875q-0.421875 -0.328125 -1.609375 -0.328125q-0.265625 0 -0.421875 -0.015625l0.1875 -0.578125l8.640625 0l-0.125 0.578125q-1.453125 0 -2.0625 0.28125q-0.609375 0.28125 -1.015625 0.921875q-0.28125 0.421875 -0.921875 2.625l-3.671875 12.671877q-0.421875 1.4375 -0.421875 2.0q0 0.375 0.421875 0.71875q0.265625 0.234375 1.203125 0.234375l2.046875 0q2.234375 0 3.546875 -0.5625q0.96875 -0.421875 1.78125 -1.265625q0.4375 -0.46875 1.546875 -2.328125l0.40625 -0.703125l0.578125 0l-2.0625 6.015625zm19.609375 -21.671877l-1.609375 17.625002q-0.125 1.234375 -0.125 1.625q0 0.625 0.234375 0.953125q0.296875 0.453125 0.796875 0.671875q0.515625 0.21875 1.71875 0.21875l-0.171875 0.578125l-8.34375 0l0.171875 -0.578125l0.359375 0q1.015625 0 1.65625 -0.4375q0.453125 -0.296875 0.703125 -0.984375q0.171875 -0.484375 0.328125 -2.28125l0.25 -2.6875l-6.0625 0l-2.15625 2.921875q-0.734375 0.984375 -0.921875 1.421875q-0.1875 0.421875 -0.1875 0.796875q0 0.5 0.40625 0.859375q0.40625 0.359375 1.34375 0.390625l-0.171875 0.578125l-6.265625 0l0.171875 -0.578125q1.15625 -0.046875 2.03125 -0.765625q0.890625 -0.734375 2.640625 -3.109375l12.65625 -17.218752l0.546875 0zm-3.09375 5.203125l-6.140625 8.359375l5.328125 0l0.8125 -8.359375z" fill-rule="nonzero"/><path fill="#000000" fill-opacity="0.0" d="m151.13078 61.54153l618.6456 0" fill-rule="evenodd"/><path stroke="#000000" stroke-width="3.0" stroke-linejoin="round" stroke-linecap="butt" d="m168.01561 61.541534l584.8759 0" fill-rule="evenodd"/><path fill="#000000" stroke="#000000" stroke-width="3.0" stroke-linecap="butt" d="m168.0156 61.541534l-7.1348267 -4.995861l-7.1348267 4.995861l7.1348267 4.9958572z" fill-rule="evenodd"/><path fill="#000000" stroke="#000000" stroke-width="3.0" stroke-linecap="butt" d="m752.8916 61.541534l7.1348267 4.9958572l7.1348267 -4.9958572l-7.1348267 -4.995861z" fill-rule="evenodd"/><path fill="#000000" fill-opacity="0.0" d="m24.341558 174.79721l743.1181 0" fill-rule="evenodd"/><path stroke="#000000" stroke-width="3.0" stroke-linejoin="round" stroke-linecap="butt" d="m41.226387 174.79723l709.34845 0" fill-rule="evenodd"/><path fill="#000000" stroke="#000000" stroke-width="3.0" stroke-linecap="butt" d="m41.226387 174.79723l-7.1348305 -4.995865l-7.1348286 4.995865l7.1348286 4.995865z" fill-rule="evenodd"/><path fill="#000000" stroke="#000000" stroke-width="3.0" stroke-linecap="butt" d="m750.5748 174.79723l7.1348267 4.995865l7.1348267 -4.995865l-7.1348267 -4.995865z" fill-rule="evenodd"/><path fill="#000000" fill-opacity="0.0" d="m380.6484 86.06305l171.18112 0l0 51.93701l-171.18112 0z" fill-rule="evenodd"/><path fill="#000000" d="m469.00266 98.6503l-6.71875 23.046875q-0.546875 1.875 -0.546875 2.46875q0 0.1875 0.15625 0.375q0.171875 0.171875 0.359375 0.171875q0.25 0 0.59375 -0.25q0.671875 -0.46875 2.234375 -2.34375l0.65625 0.40625q-1.40625 1.953125 -2.84375 3.171875q-1.421875 1.203125 -2.671875 1.203125q-0.671875 0 -1.109375 -0.46875q-0.421875 -0.46875 -0.421875 -1.328125q0 -1.109375 0.59375 -2.984375l0.75 -2.421875q-2.828125 4.375 -5.15625 6.046875q-1.59375 1.15625 -3.0625 1.15625q-1.484375 0 -2.59375 -1.3125q-1.09375 -1.328125 -1.09375 -3.59375q0 -2.90625 1.84375 -6.203125q1.859375 -3.3125 4.90625 -5.375q2.40625 -1.65625 4.421875 -1.65625q1.046875 0 1.8125 0.4375q0.765625 0.421875 1.5 1.40625l1.921875 -6.796875q0.21875 -0.71875 0.34375 -1.140625q0.234375 -0.78125 0.234375 -1.296875q0 -0.40625 -0.28125 -0.6875q-0.421875 -0.328125 -1.0625 -0.328125q-0.453125 0 -1.484375 0.140625l0 -0.71875l6.71875 -1.125zm-7.25 13.875q0 -1.25 -0.71875 -2.015625q-0.71875 -0.765625 -1.828125 -0.765625q-2.46875 0 -5.140625 4.0625q-2.65625 4.0625 -2.65625 7.78125q0 1.46875 0.640625 2.234375q0.640625 0.765625 1.546875 0.765625q2.03125 0 5.09375 -4.390625q3.0625 -4.390625 3.0625 -7.671875zm10.375 6.546875q-0.140625 0.96875 -0.140625 1.609375q0 1.75 1.234375 2.96875q1.234375 1.21875 2.984375 1.21875q1.40625 0 2.703125 -0.578125q1.3125 -0.578125 3.859375 -2.546875l0.421875 0.5625q-4.640625 4.59375 -8.828125 4.59375q-2.859375 0 -4.3125 -1.796875q-1.4375 -1.796875 -1.4375 -3.96875q0 -2.90625 1.796875 -5.953125q1.796875 -3.046875 4.515625 -4.734375q2.71875 -1.6875 5.578125 -1.6875q2.078125 0 3.0625 0.84375q1.0 0.828125 1.0 1.984375q0 1.625 -1.28125 3.109375q-1.703125 1.921875 -5.0 3.125q-2.1875 0.796875 -6.15625 1.25zm0.140625 -0.96875q2.890625 -0.328125 4.703125 -1.125q2.40625 -1.078125 3.609375 -2.5625q1.203125 -1.5 1.203125 -2.84375q0 -0.828125 -0.53125 -1.328125q-0.515625 -0.515625 -1.46875 -0.515625q-1.984375 0 -4.234375 2.125q-2.234375 2.109375 -3.28125 6.25z" fill-rule="nonzero"/></g></svg>